<?xml version="1.0" encoding="utf-8"?>
<!-- Generator: Adobe Illustrator 21.0.2, SVG Export Plug-In . SVG Version: 6.00 Build 0)  -->
<svg version="1.1" id="Layer_1" xmlns="http://www.w3.org/2000/svg" xmlns:xlink="http://www.w3.org/1999/xlink" x="0px" y="0px"
	 viewBox="0 0 841.9 595.3" style="enable-background:new 0 0 841.9 595.3;" xml:space="preserve">
<style type="text/css">
	.st0{fill:#ED2024;stroke:#9B1C1F;stroke-width:4;stroke-miterlimit:10;}
	.st1{fill:#439B46;stroke:#305027;stroke-width:2;stroke-miterlimit:10;}
	.st2{fill:#FFFFFF;stroke:#FFFFFF;stroke-miterlimit:10;}
	.st3{stroke:#000000;stroke-miterlimit:10;}
	.st4{font-family:'AmaticSC-Regular';}
	.st5{font-size:18px;}
</style>
<path class="st0" d="M481.6,260c1.7,4.8,1.2,9.4-1.8,19.7c-4.6,15.4-8.5,29.9-17.1,40.8c-16.7,21.3-47.5,32.8-80.6,29.8
	c6.3-23.6,14.7-37.9,21.6-46.6c3-3.8,7.6-9.1,10.7-17.9c4.3-12.4,0.3-16.8,4-25.1c5.1-11.3,19.8-19.2,34-18.5
	C463.5,242.7,477.6,248.6,481.6,260z"/>
<path class="st1" d="M443,239.8c-2.8,0.2-4.6,0.3-5.5,1.6c-1.4,2,0,6.1,2.1,6.8c3.1,1.1,7.8-5,8.4-4.5c0.5,0.5-3.7,4.3-2.7,7
	c0.8,2.2,5,3.4,7,2c2.2-1.6,1.3-6.3,1.9-6.3c0.8-0.1,0.6,7.5,4.3,9.2c2.5,1.2,6.5-0.6,6.8-2.4c0.4-2.2-4.4-4.8-4.2-5
	c0.2-0.3,4.5,3.7,7.3,2.6c2.2-0.9,3.5-4.9,2.1-7.1c-2.2-3.5-10.2,0-12.3-3.1c-1.2-1.7-0.6-5.1,4.7-12.2c-4.3-0.8-8.6-1.6-12.9-2.4
	c2.3,10.2,1.3,13.2-0.2,14C448.6,240.5,447.3,239.5,443,239.8z"/>
<ellipse class="st2" cx="458.3" cy="273.2" rx="6.9" ry="6.8"/>
<ellipse class="st2" cx="438.3" cy="272.9" rx="6.9" ry="6.8"/>
<path class="st3" d="M453.1,273.4c0,2.8,2.2,5.4,5.2,5.4c2.9,0,5.3-2.5,5.2-5.4c0.1-3-2.4-5.4-5.2-5.4
	C455.4,267.9,453.1,270.6,453.1,273.4z"/>
<path class="st3" d="M433,272.9c0,2.8,2.2,5.4,5.2,5.4c2.9,0,5.3-2.5,5.2-5.4c0.1-3-2.4-5.4-5.2-5.4
	C435.2,267.4,433,270.1,433,272.9z"/>
<path class="st3" d="M455.3,299.8c0.4-0.9-4.1-5.8-9.6-6.1c-5.5-0.3-10.6,4.1-10.3,5.1c0,0,0.1,0.3,0.4,0.4c0.2,0.1,0.5-0.1,0.8-0.3
	c0.2-0.2,0.3-0.2,0.5-0.5c0.3-0.3,3.7-3.7,8.7-3.4c0,0,4.6,0.3,8.2,4.3c0.1,0.1,0.2,0.3,0.2,0.3c0.1,0.2,0.1,0.2,0.2,0.2
	c0,0,0.3,0.4,0.6,0.3C455.1,300.1,455.3,299.8,455.3,299.8z"/>
<text transform="matrix(1 0 0 1 384.9735 210.1964)" class="st4 st5">i’m a little chilli!</text>
</svg>
