<?xml version="1.0" encoding="utf-8"?>
<!-- Generator: Adobe Illustrator 21.0.2, SVG Export Plug-In . SVG Version: 6.00 Build 0)  -->
<svg version="1.1" id="Layer_1" xmlns="http://www.w3.org/2000/svg" xmlns:xlink="http://www.w3.org/1999/xlink" x="0px" y="0px"
	 viewBox="0 0 841.9 595.3" style="enable-background:new 0 0 841.9 595.3;" xml:space="preserve">
<style type="text/css">
	.st0{fill:#D33535;stroke:#AF2024;stroke-width:4;stroke-miterlimit:10;}
	.st1{fill:#AF2024;stroke:#AF2024;stroke-miterlimit:10;}
	.st2{fill:#FFFFFF;stroke:#FFFFFF;stroke-miterlimit:10;}
	.st3{stroke:#000000;stroke-miterlimit:10;}
	.st4{stroke:#AF2125;stroke-miterlimit:10;}
	.st5{fill:#F27079;stroke:#F27079;stroke-miterlimit:10;}
	.st6{fill:#449B45;stroke:#2D5026;stroke-width:4;stroke-miterlimit:10;}
	.st7{fill:#702324;stroke:#5E1A19;stroke-width:4;stroke-miterlimit:10;}
	.st8{font-family:'AmaticSC-Regular';}
	.st9{font-size:18px;}
</style>
<g>
	<path class="st0" d="M482.2,366c-0.2,0.6-1,3.4,0.5,6.5c1.5,3,4.1,4.1,4.8,4.4c0.8,8,1,21.2-4.3,36.1c-3.2,9.1-4.8,13.9-9.7,17.4
		c-10.7,7.5-20.8-1.9-45.8,1.2c-14.3,1.8-18,5.7-26,2.8c-9.8-3.5-14.4-13.1-17.7-19.7c-7.9-16.3-12.4-43.2,2.4-59.6
		c5.1-5.7,10.9-8.4,12.4-9c11.2-4.9,15.2,0.6,34.1-0.6c14.8-0.9,23.1-4.8,33.3,0.6c1.8,0.9,3.1,1.9,3.9,2.6
		c-0.1,0.4-0.9,2.6,0.3,4.8c1,1.9,3.1,3.2,5.4,3.2c0,0.8,0.1,3.5,2,6C479.4,364.9,481.4,365.7,482.2,366z"/>
	<path class="st1" d="M451.4,350.1c0.5,1.3-8.1,9-18.6,8.7c-8.9-0.2-16.4-6.1-15.9-7.5c0.3-0.8,3.2-0.5,8.5,0
		c4.8,0.4,5.3,0.9,8.3,0.9c2.5,0,3.1-0.4,8.3-1.2C448.1,350.1,451.2,349.6,451.4,350.1z"/>
	<ellipse class="st2" cx="420.1" cy="375.4" rx="6.4" ry="6.1"/>
	<ellipse class="st2" cx="446.8" cy="375.4" rx="6.4" ry="6.1"/>
	<path class="st3" d="M424.7,375.4c0.1,2.7-2.2,4.9-4.8,4.9c-2.7,0-4.8-2.4-4.8-4.9c0-2.6,2.1-4.8,4.8-4.9c-0.4,1.4,0,3,1.1,4
		C422.5,375.9,424.5,375.5,424.7,375.4z"/>
	<path class="st3" d="M441.8,375.4c0,2.6,2.1,4.9,4.8,4.9c2.6,0,4.9-2.2,4.8-4.9c-0.1,0-2.3,0.3-3.8-1.3c-1.4-1.5-1-3.4-1-3.6
		C443.9,370.6,441.8,372.8,441.8,375.4z"/>
	<path class="st4" d="M446,396.3c-1.9,5.1-6.9,8.5-12.4,8.5c-5.4-0.1-10.3-3.5-12.1-8.6C429.6,396.2,437.8,396.3,446,396.3z"/>
	<path class="st5" d="M438.2,401.9c-0.9,0.4-2.7,1-4.9,1c-2,0-3.6-0.5-4.5-0.9c0.7-1.9,2.5-3.3,4.5-3.4
		C435.4,398.5,437.4,399.8,438.2,401.9z"/>
	<path class="st6" d="M434.1,343.9c-1,0.9-4.5-2.4-12-5.7c-7.5-3.3-8.7-2-13-4.8c-1.6-1-7.9-5.2-9.6-12.8c-0.4-1.7-1.8-7.9,1.5-10.7
		c4.2-3.7,13.4,1.1,16.9,3.4c1.1,0.7,6.7,4.5,9.6,11.3c1.4,3.2,0.7,3.7,2.6,8.8C432.5,340.3,434.9,343.1,434.1,343.9z"/>
	<path class="st7" d="M439.9,306.2c-3.1,1-3.2,7.8-3.6,13.4c-1.6,22.4-8.3,33.4-3.6,36.3c1.2,0.8,2.9,0.7,4.1,0.2
		c4.7-2,1.5-11.6,4.1-26.6c2.1-12,6.4-18.8,2.9-22.2C442.7,306.4,441.2,305.8,439.9,306.2z"/>
</g>
<text transform="matrix(1 0 0 1 393.6177 287.5704)" class="st8 st9">your’e the apple</text>
<text transform="matrix(1 0 0 1 406.9419 465.0645)" class="st8 st9">of my eye!</text>
</svg>
