<?xml version="1.0" encoding="utf-8"?>
<!-- Generator: Adobe Illustrator 21.0.2, SVG Export Plug-In . SVG Version: 6.00 Build 0)  -->
<svg version="1.1" id="Layer_1" xmlns="http://www.w3.org/2000/svg" xmlns:xlink="http://www.w3.org/1999/xlink" x="0px" y="0px"
	 viewBox="0 0 841.9 595.3" style="enable-background:new 0 0 841.9 595.3;" xml:space="preserve">
<style type="text/css">
	.st0{fill:#439B45;stroke:#305027;stroke-width:4;stroke-miterlimit:10;}
	.st1{fill:#DBE352;stroke:#7AC144;stroke-width:2;stroke-miterlimit:10;}
	.st2{fill:#763031;stroke:#5B3533;stroke-width:4;stroke-miterlimit:10;}
	.st3{fill:none;stroke:#000000;stroke-miterlimit:10;}
	.st4{stroke:#315027;stroke-width:2;stroke-miterlimit:10;}
	.st5{font-family:'AmaticSC-Regular';}
	.st6{font-size:18px;}
</style>
<path class="st0" d="M468.5,361.8c-5.6,6.6-13,9.8-16.7,11.4c-9,3.9-16.8,4.2-19.3,4.2c-9.1,0.2-15.8-2.3-17.6-2.9
	c-2.9-1.1-11.7-4.5-18.3-12.7c-9.7-12-12.4-31.3-5.2-44.3c4.7-8.5,11.8-11.9,13.5-21.5c1.1-6.4,1-13.9,1-13.9c0-3.3-0.4-5-0.3-6.5
	c0.2-4.2,0.4-19.6,11.5-27.8c2.1-1.6,7.3-4.9,15.9-5.1c8,0.4,12.8,3.5,15,5.1c11.1,8.3,11.3,23.7,11.5,27.8c0.1,1.4-0.3,3.3-0.3,6.5
	c0,0,0,6.9,1,13.2c1.6,9.5,9,13.8,13.5,22.3C480.8,330.7,478.3,350.3,468.5,361.8z"/>
<path class="st1" d="M465.7,352.9c-4.7,7.5-11.3,10.8-14.7,12.4c-7.1,3.4-13.3,3.7-17,3.8c-3.9,0.1-10.1,0.4-17.2-2.5
	c-2.8-1.1-11.1-4.6-16.6-13.7c-4.5-7.5-6.6-17.7-3.3-26.1c0.9-2.3,2.7-5.9,5.1-9.4c2.4-3.5,3.8-4.5,6.1-8.4c2-3.4,3.2-6.3,3.6-7.4
	c0.5-1.3,2.1-5.9,2.6-14.2c0.5-9.1-1.2-9.5-0.3-16c0.3-2.3,1.1-7.8,4.3-12.4c0.9-1.2,6.1-8.6,14.6-8.5c8.4,0,13.5,7.2,14.5,8.5
	c3.3,4.6,4,10.1,4.3,12.4c0.9,6.5-0.7,6.8-0.3,16c0.4,8.3,2.1,12.9,2.5,14.2c0.4,1.1,1.5,3.9,3.6,7.4c2.3,3.8,3.7,4.9,6.1,8.4
	c2.4,3.5,4.2,7.1,5.1,9.4C472.1,334.9,470.5,345.2,465.7,352.9z"/>
<ellipse class="st2" cx="432.9" cy="337.3" rx="19.1" ry="18.9"/>
<path class="st3" d="M423.5,274.9c0.2-1.8,1.7-3.2,3.3-3.2c1.7,0,3.2,1.4,3.4,3.2"/>
<path class="st4" d="M440,283c-1.2,3.8-4.3,6.3-7.7,6.3c-3.4,0-6.4-2.6-7.6-6.3C429.8,282.9,434.9,282.9,440,283z"/>
<path class="st3" d="M434.3,274.7c0.2-1.8,1.7-3.2,3.3-3.2c1.7,0,3.2,1.4,3.4,3.2"/>
<text transform="matrix(1 0 0 1 382.8213 405.6406)" class="st5 st6">you guac my world!</text>
</svg>
