<?xml version="1.0" encoding="utf-8"?>
<!-- Generator: Adobe Illustrator 21.0.2, SVG Export Plug-In . SVG Version: 6.00 Build 0)  -->
<svg version="1.1" id="Layer_1" xmlns="http://www.w3.org/2000/svg" xmlns:xlink="http://www.w3.org/1999/xlink" x="0px" y="0px"
	 viewBox="0 0 841.9 595.3" style="enable-background:new 0 0 841.9 595.3;" xml:space="preserve">
<style type="text/css">
	.st0{fill:#439B45;stroke:#2F5027;stroke-width:4;stroke-miterlimit:10;}
	.st1{fill:#F47820;stroke:#EF3E23;stroke-width:4;stroke-miterlimit:10;}
	.st2{fill:none;stroke:#EF3E23;stroke-width:4;stroke-miterlimit:10;}
	.st3{fill:#ED1F24;stroke:#EF3E23;stroke-width:4;stroke-miterlimit:10;}
	.st4{fill:#FFFFFF;stroke:#FFFFFF;stroke-miterlimit:10;}
	.st5{stroke:#000000;stroke-miterlimit:10;}
	.st6{font-family:'AmaticSC-Regular';}
	.st7{font-size:18px;}
</style>
<g>
	<path class="st0" d="M409.8,190.5c-0.3,1.1-2.9,11.1,3.9,19.9c6.9,8.9,17.5,8.8,18.5,8.7c0.3-1.1,2.7-11.1-4.1-19.9
		C421.2,190.6,411,190.5,409.8,190.5z"/>
	<path class="st0" d="M455.1,190.5c0.3,1.1,2.9,11.1-3.9,19.9c-6.9,8.9-17.5,8.8-18.5,8.7c-0.3-1.1-2.7-11.1,4.1-19.9
		C443.6,190.6,453.9,190.5,455.1,190.5z"/>
	<path class="st0" d="M432,183c0.9,0.7,9.1,7,9,18.1c-0.1,11.3-8.5,17.6-9.4,18.2c-0.9-0.7-8.9-7.2-8.8-18.3
		C422.9,189.9,431,183.7,432,183z"/>
	<path class="st1" d="M459.9,251.7c0.3,14.2-10,34.2-14.3,42.3c-5.6,10.5-10.3,19.2-13.5,25c-2.6-4.9-7.4-13.7-13.4-25
		c-4.7-8.9-14.5-28-14.3-42c0-1.2,0.1-2.2,0.2-3.2c0.1-0.9,0.2-2,0.5-3.4c0.8-4.2,2.5-10.2,7.4-15c7.3-7.2,17.4-7.4,19.6-7.3
		c2.2,0,12.4,0,19.8,7.3c6.5,6.4,7.5,15.1,7.9,18.5C459.8,249.7,459.9,250.6,459.9,251.7z"/>
	<line class="st2" x1="404.9" y1="246" x2="457.8" y2="246"/>
	<line class="st2" x1="406.2" y1="264" x2="456.6" y2="264.1"/>
	<line class="st2" x1="412.2" y1="282.2" x2="451.6" y2="282.2"/>
	<line class="st2" x1="420.7" y1="299.9" x2="443.2" y2="299.8"/>
	<line class="st3" x1="415.2" y1="228.2" x2="449.3" y2="227.7"/>
	<ellipse class="st4" cx="442.2" cy="248.3" rx="6.9" ry="6.8"/>
	<ellipse class="st4" cx="423.3" cy="248" rx="6.9" ry="6.8"/>
	<path class="st5" d="M418.2,247.8c-0.1,2.9,2.3,5.4,5.2,5.4c2.9,0,5.4-2.4,5.3-5.3c0-2.8-2.4-5.1-5.1-5.1
		C420.8,242.8,418.3,245,418.2,247.8z"/>
	<path class="st5" d="M436.9,248.2c-0.1,2.9,2.3,5.4,5.2,5.4c2.9,0,5.4-2.4,5.3-5.3c0-2.8-2.4-5.1-5.1-5.1
		C439.5,243.1,437,245.3,436.9,248.2z"/>
	<path class="st5" d="M422.7,266.8c-0.4,0.9,4.4,5.6,9.9,5.6c5.5,0,10.4-4.6,10-5.6c0,0-0.1-0.3-0.4-0.4c-0.2-0.1-0.5,0.2-0.7,0.4
		c-0.2,0.2-0.3,0.3-0.4,0.5c-0.2,0.4-3.5,3.8-8.5,3.8c0,0-4.6,0-8.4-3.9c-0.1-0.1-0.2-0.2-0.2-0.2c-0.1-0.2-0.2-0.2-0.2-0.2
		c0,0-0.3-0.3-0.6-0.3C422.9,266.5,422.7,266.8,422.7,266.8z"/>
</g>
<text transform="matrix(1 0 0 1 385.7733 167.0293)" class="st6 st7">haters gonna hate</text>
<text transform="matrix(1 0 0 1 376.07 349.394)" class="st6 st7">But i don’t carrot all</text>
</svg>
