<?xml version="1.0" encoding="utf-8"?>
<!-- Generator: Adobe Illustrator 21.0.2, SVG Export Plug-In . SVG Version: 6.00 Build 0)  -->
<svg version="1.1" id="Layer_1" xmlns="http://www.w3.org/2000/svg" xmlns:xlink="http://www.w3.org/1999/xlink" x="0px" y="0px"
	 viewBox="0 0 841.9 595.3" style="enable-background:new 0 0 841.9 595.3;" xml:space="preserve">
<style type="text/css">
	.st0{fill:#EA2160;stroke:#EA2160;stroke-width:4;stroke-miterlimit:10;}
	.st1{fill:none;stroke:#439B46;stroke-width:4;stroke-miterlimit:10;}
	.st2{fill:none;stroke:#2F5027;stroke-width:4;stroke-miterlimit:10;}
	.st3{fill:#702325;stroke:#5E1A19;stroke-miterlimit:10;}
	.st4{fill:#FFFFFF;stroke:#FFFFFF;stroke-miterlimit:10;}
	.st5{stroke:#000000;stroke-miterlimit:10;}
	.st6{font-family:'AmaticSC-Regular';}
	.st7{font-size:18px;}
</style>
<path class="st0" d="M484.1,375.9c0,27.9-23.5,50.9-52.1,50.9s-52.1-23-52.1-50.9C414.5,375.9,449.3,375.9,484.1,375.9z"/>
<path class="st1" d="M375.8,373.9c-0.2,30.9,24.9,56.5,55.3,56.9c31,0.4,57.1-25.3,56.9-56.9"/>
<path class="st2" d="M371.8,373.9c-0.1,33,26.6,60.2,58.8,60.8c33.2,0.7,61.4-26.8,61.4-60.7"/>
<path class="st3" d="M469.8,385.6c-1.4,0-2.9-1.4-3.4-3.6c1.7-1.4,3.8-1.5,4.9-0.5c0.6,0.6,1.1,1.7,0.7,2.8
	C471.6,385.2,470.6,385.6,469.8,385.6z"/>
<path class="st3" d="M429.7,420.8c-0.6-1.3,0.2-3.2,2.1-4.5c1.9,1.1,2.8,3,2.2,4.4c-0.3,0.8-1.2,1.7-2.3,1.6
	C430.7,422.3,430,421.5,429.7,420.8z"/>
<path class="st3" d="M445.1,418.6c-1-1-1.1-3.1,0.2-5c2.2,0.3,3.7,1.7,3.8,3.1c0,0.9-0.5,2-1.5,2.4
	C446.6,419.6,445.6,419.2,445.1,418.6z"/>
<path class="st3" d="M456,413.4c-1.3-0.7-1.9-2.6-1.3-4.8c2.2-0.4,4,0.5,4.5,1.9c0.3,0.8,0.2,2.1-0.7,2.7
	C457.8,413.8,456.7,413.7,456,413.4z"/>
<path class="st3" d="M465.3,404.5c-1.4-0.5-2.3-2.3-1.9-4.6c2.1-0.7,4.1,0,4.7,1.2c0.4,0.8,0.4,2-0.3,2.8
	C467.1,404.7,466,404.7,465.3,404.5z"/>
<path class="st3" d="M472.8,394c-1.4-0.2-2.7-1.8-2.8-4.1c1.9-1.1,4-0.9,4.9,0.2c0.5,0.7,0.9,1.9,0.3,2.8
	C474.6,393.8,473.5,394,472.8,394z"/>
<path class="st3" d="M478.8,382.3c-1.4,0.4-3.2-0.5-4.3-2.5c1.3-1.8,3.2-2.5,4.5-1.8c0.8,0.4,1.6,1.4,1.4,2.5
	C480.4,381.4,479.6,382.1,478.8,382.3z"/>
<path class="st3" d="M418.8,418.6c1-1,1.1-3.1-0.2-5c-2.2,0.3-3.7,1.7-3.8,3.1c0,0.9,0.5,2,1.5,2.4
	C417.2,419.6,418.2,419.2,418.8,418.6z"/>
<path class="st3" d="M407.8,413.4c1.3-0.7,1.9-2.6,1.3-4.8c-2.2-0.4-4,0.5-4.5,1.9c-0.3,0.8-0.2,2.1,0.7,2.7
	C406.1,413.8,407.1,413.7,407.8,413.4z"/>
<path class="st3" d="M398.5,404.5c1.4-0.5,2.3-2.3,1.9-4.6c-2.1-0.7-4.1,0-4.7,1.2c-0.4,0.8-0.4,2,0.3,2.8
	C396.7,404.7,397.8,404.7,398.5,404.5z"/>
<path class="st3" d="M391,394c1.4-0.2,2.7-1.8,2.8-4.1c-1.9-1.1-4-0.9-4.9,0.2c-0.5,0.7-0.9,1.9-0.3,2.8
	C389.3,393.8,390.3,394,391,394z"/>
<path class="st3" d="M385,382.3c1.4,0.4,3.2-0.5,4.3-2.5c-1.3-1.8-3.2-2.5-4.5-1.8c-0.8,0.4-1.6,1.4-1.4,2.5
	C383.4,381.4,384.3,382.1,385,382.3z"/>
<path class="st3" d="M447.8,411.1c-1.3-0.7-1.8-2.7-1.1-4.8c2.2-0.3,4,0.6,4.5,2c0.3,0.8,0.1,2.1-0.8,2.7
	C449.5,411.5,448.4,411.4,447.8,411.1z"/>
<path class="st3" d="M456.5,404.6c-1.4-0.4-2.4-2.2-2.1-4.5c2.1-0.8,4.1-0.2,4.8,1c0.4,0.7,0.5,2-0.2,2.8
	C458.3,404.7,457.2,404.8,456.5,404.6z"/>
<path class="st3" d="M464.2,395.9c-1.4-0.2-2.6-1.9-2.7-4.2c2-1.1,4-0.7,4.9,0.4c0.5,0.7,0.8,1.9,0.2,2.8
	C466,395.8,464.9,396,464.2,395.9z"/>
<path class="st3" d="M436.7,415.8c-0.9-1.1-0.6-3.2,1-4.9c2.1,0.6,3.4,2.2,3.2,3.7c-0.1,0.8-0.8,1.9-1.9,2.2
	C438.1,417,437.1,416.4,436.7,415.8z"/>
<path class="st3" d="M394.5,385.6c1.4,0,2.9-1.4,3.4-3.6c-1.7-1.4-3.8-1.5-4.9-0.5c-0.6,0.6-1.1,1.7-0.7,2.8
	C392.8,385.2,393.7,385.6,394.5,385.6z"/>
<path class="st3" d="M416.6,411.1c1.3-0.7,1.8-2.7,1.1-4.8c-2.2-0.3-4,0.6-4.5,2c-0.3,0.8-0.1,2.1,0.8,2.7
	C414.8,411.5,415.9,411.4,416.6,411.1z"/>
<path class="st3" d="M407.8,404.6c1.4-0.4,2.4-2.2,2.1-4.5c-2.1-0.8-4.1-0.2-4.8,1c-0.4,0.7-0.5,2,0.2,2.8
	C406,404.7,407.1,404.8,407.8,404.6z"/>
<path class="st3" d="M400.1,395.9c1.4-0.2,2.6-1.9,2.7-4.2c-2-1.1-4-0.7-4.9,0.4c-0.5,0.7-0.8,1.9-0.2,2.8
	C398.3,395.8,399.4,396,400.1,395.9z"/>
<path class="st3" d="M427.6,415.8c0.9-1.1,0.6-3.2-1-4.9c-2.1,0.6-3.4,2.2-3.2,3.7c0.1,0.8,0.8,1.9,1.9,2.2
	C426.3,417,427.2,416.4,427.6,415.8z"/>
<path class="st4" d="M417.8,384.4c0,2.8,2.2,5.4,5.2,5.4c2.9,0,5.3-2.5,5.2-5.4c0.1-3-2.4-5.4-5.2-5.4
	C420,378.9,417.8,381.6,417.8,384.4z"/>
<path class="st4" d="M434.6,384.2c0,2.8,2.2,5.4,5.2,5.4c2.9,0,5.3-2.5,5.2-5.4c0.1-3-2.4-5.4-5.2-5.4
	C436.8,378.8,434.6,381.4,434.6,384.2z"/>
<path class="st5" d="M442.5,384.1c0,1.5-1.3,2.6-2.7,2.6c-1.4,0-2.7-1.2-2.7-2.6c0.1-1.5,1.3-2.6,2.7-2.6
	C441.3,381.4,442.5,382.6,442.5,384.1z"/>
<path class="st5" d="M425.8,384.1c-0.1,1.5-1.3,2.6-2.7,2.6c-1.4,0-2.7-1.2-2.7-2.6s1.3-2.6,2.7-2.6
	C424.6,381.4,425.8,382.6,425.8,384.1z"/>
<path class="st5" d="M421.4,394.8c-0.4,0.9,4.4,5.6,9.9,5.7c5.5,0.1,10.4-4.5,10-5.5c0,0-0.1-0.3-0.4-0.4c-0.2-0.1-0.5,0.2-0.7,0.4
	c-0.2,0.2-0.3,0.2-0.5,0.5c-0.3,0.4-3.6,3.8-8.5,3.7c0,0-4.6-0.1-8.4-3.9c-0.1-0.1-0.2-0.2-0.2-0.2c-0.1-0.2-0.2-0.2-0.2-0.2
	c0,0-0.3-0.3-0.6-0.3C421.6,394.5,421.4,394.7,421.4,394.8z"/>
<text transform="matrix(1 0 0 1 398.3296 356.3086)" class="st6 st7">your’e one in</text>
<text transform="matrix(1 0 0 1 408.9399 463.5859)" class="st6 st7">a melon!</text>
</svg>
