<?xml version="1.0" encoding="utf-8"?>
<!-- Generator: Adobe Illustrator 21.0.2, SVG Export Plug-In . SVG Version: 6.00 Build 0)  -->
<svg version="1.1" id="Layer_1" xmlns="http://www.w3.org/2000/svg" xmlns:xlink="http://www.w3.org/1999/xlink" x="0px" y="0px"
	 viewBox="0 0 841.9 595.3" style="enable-background:new 0 0 841.9 595.3;" xml:space="preserve">
<style type="text/css">
	.st0{fill:#FCEE21;stroke:#5B3433;stroke-width:4;stroke-miterlimit:10;}
	.st1{fill:none;stroke:#5B3433;stroke-width:4;stroke-miterlimit:10;}
	.st2{fill:#449B45;stroke:#2D5026;stroke-width:4;stroke-miterlimit:10;}
	.st3{fill:#FFFFFF;stroke:#FFFFFF;stroke-miterlimit:10;}
	.st4{stroke:#000000;stroke-miterlimit:10;}
	.st5{stroke:#9D8730;stroke-width:2;stroke-miterlimit:10;}
	.st6{fill:#F27079;stroke:#F27079;stroke-miterlimit:10;}
	.st7{font-family:'AmaticSC-Regular';}
	.st8{font-size:18px;}
</style>
<g>
	<path class="st0" d="M457.9,380c10.7,8.7,11.4,23,12.4,41.7c0.9,18,1.4,27.1-4.1,34.5c-13.2,17.9-52,18.2-65.9-0.2
		c-6.4-8.4-5.5-19.1-3.8-40.4c1.3-16.6,2.4-28.2,11.4-35.7c7.4-6.1,16.5-6.5,22.7-6.8C436.4,373,448.6,372.5,457.9,380z"/>
	<line class="st1" x1="460" y1="382.9" x2="401.2" y2="457"/>
	<line class="st1" x1="470" y1="420" x2="431.6" y2="470.8"/>
	<line class="st1" x1="429.9" y1="373.5" x2="397.3" y2="410.6"/>
	<line class="st1" x1="470.7" y1="439.8" x2="418.5" y2="374"/>
	<line class="st1" x1="398.8" y1="397.3" x2="452.2" y2="466.3"/>
	<line class="st1" x1="395.7" y1="433.6" x2="421.3" y2="468.1"/>
	<path class="st2" d="M399.1,348.2c2.2-2.5,12.5,2.1,25.1,10.6c2.3-12.3,6.2-20.8,9.1-20.6c2.9,0.2,5.5,8.9,6.3,20.6
		c22.1-16,26-14.7,26.9-13.8c2.7,2.8-4.7,17.7-17.2,25.1c-7.2,4.3-14.5,5-19.1,5c-5.4,5.4-19.1,18.4-23,15.6
		c-2.9-2.1,0.7-12.2,4.2-20.4C402.6,359.9,397,350.7,399.1,348.2z"/>
	<ellipse class="st3" cx="444.9" cy="408.6" rx="6.4" ry="6.3"/>
	<ellipse class="st3" cx="420.7" cy="409.3" rx="6.4" ry="6.3"/>
	<path class="st4" d="M438.9,409.5c0,2.6,2.1,5.1,4.8,5.1c2.6,0,4.9-2.3,4.8-5.1c0.1-2.8-2.2-5.1-4.8-5.1
		C441,404.4,438.9,406.8,438.9,409.5z"/>
	<path class="st4" d="M417.1,409.8c0,2.6,2.1,5.1,4.8,5.1c2.6,0,4.9-2.3,4.8-5.1c0.1-2.8-2.2-5.1-4.8-5.1
		C419.1,404.7,417.1,407.2,417.1,409.8z"/>
	<ellipse class="st5" cx="434" cy="436.4" rx="6.4" ry="6.3"/>
	<path class="st6" d="M430.3,437.6c0,2.1,1.6,4.1,3.7,4.1c2.1,0,3.8-1.8,3.7-4.1c0-2.2-1.7-4.1-3.7-4.1
		C431.9,433.5,430.3,435.5,430.3,437.6z"/>
</g>
<text transform="matrix(1 0 0 1 386.0034 317.0264)" class="st7 st8">if you were a fruit</text>
<text transform="matrix(1 0 0 1 380.6304 501.7197)" class="st7 st8">you’d be a fine-apple</text>
</svg>
