<?xml version="1.0" encoding="utf-8"?>
<!-- Generator: Adobe Illustrator 21.0.2, SVG Export Plug-In . SVG Version: 6.00 Build 0)  -->
<svg version="1.1" id="Layer_1" xmlns="http://www.w3.org/2000/svg" xmlns:xlink="http://www.w3.org/1999/xlink" x="0px" y="0px"
	 viewBox="0 0 841.9 595.3" style="enable-background:new 0 0 841.9 595.3;" xml:space="preserve">
<style type="text/css">
	.st0{fill:#ED1F24;stroke:#A91F23;stroke-width:4;stroke-miterlimit:10;}
	.st1{fill:#FFD44C;stroke:#FFC41C;stroke-miterlimit:10;}
	.st2{fill:#FFFFFF;stroke:#FFFFFF;stroke-miterlimit:10;}
	.st3{stroke:#000000;stroke-miterlimit:10;}
	.st4{stroke:#AF2125;stroke-width:2;stroke-miterlimit:10;}
	.st5{fill:#F27079;stroke:#F27079;stroke-miterlimit:10;}
	.st6{fill:#459B45;stroke:#2C5025;stroke-width:4;stroke-miterlimit:10;}
	.st7{font-family:'AmaticSC-Regular';}
	.st8{font-size:18px;}
</style>
<g>
	<path class="st0" d="M478.8,350.4c16.3,25.2-14.5,85.3-45.5,85.1c-30.8-0.2-61-59.5-44.7-84.8c10.2-15.8,37-15.9,45.2-15.9
		C442,334.8,468.7,334.8,478.8,350.4z"/>
	<path class="st1" d="M399.2,352.9c0.5,1.2-0.2,3-1.9,4.2c-1.8-1-2.5-2.8-2-4c0.3-0.7,1.1-1.6,2.1-1.5
		C398.2,351.6,398.9,352.3,399.2,352.9z"/>
	<path class="st1" d="M402.8,366.1c-0.5,1.2,0.2,3,1.9,4.2c1.8-1,2.5-2.8,2-4c-0.3-0.7-1.1-1.6-2.1-1.5
		C403.8,364.8,403.1,365.5,402.8,366.1z"/>
	<path class="st1" d="M458.4,380.4c0.5,1.2-0.2,3-1.9,4.2c-1.8-1-2.5-2.8-2-4c0.3-0.7,1.1-1.6,2.1-1.5
		C457.4,379,458.1,379.7,458.4,380.4z"/>
	<path class="st1" d="M429.6,341.7c-0.5,1.2,0.2,3,1.9,4.2c1.8-1,2.5-2.8,2-4c-0.3-0.7-1.1-1.6-2.1-1.5
		C430.5,340.4,429.9,341.1,429.6,341.7z"/>
	<path class="st1" d="M452.3,368.1c0.5,1.2-0.2,3-1.9,4.2c-1.8-1-2.5-2.8-2-4c0.3-0.7,1.1-1.6,2.1-1.5
		C451.4,366.7,452.1,367.4,452.3,368.1z"/>
	<path class="st1" d="M449.3,356.7c-0.5,1.2,0.2,3,1.9,4.2c1.8-1,2.5-2.8,2-4c-0.3-0.7-1.1-1.6-2.1-1.5
		C450.2,355.3,449.5,356,449.3,356.7z"/>
	<path class="st1" d="M446.1,382.1c0.5,1.2-0.2,3-1.9,4.2c-1.8-1-2.5-2.8-2-4c0.3-0.7,1.1-1.6,2.1-1.5
		C445.1,380.8,445.8,381.5,446.1,382.1z"/>
	<path class="st1" d="M429.8,374.4c-0.5,1.2,0.2,3,1.9,4.2c1.8-1,2.5-2.8,2-4c-0.3-0.7-1.1-1.6-2.1-1.5
		C430.8,373.1,430.1,373.8,429.8,374.4z"/>
	<path class="st1" d="M448.9,346.3c0.5,1.2-0.2,3-1.9,4.2c-1.8-1-2.5-2.8-2-4c0.3-0.7,1.1-1.6,2.1-1.5
		C447.9,345,448.6,345.7,448.9,346.3z"/>
	<path class="st1" d="M413.3,347.9c-0.5,1.2,0.2,3,1.9,4.2c1.8-1,2.5-2.8,2-4c-0.3-0.7-1.1-1.6-2.1-1.5
		C414.3,346.6,413.6,347.3,413.3,347.9z"/>
	<path class="st1" d="M422.5,365.9c0.5,1.2-0.2,3-1.9,4.2c-1.8-1-2.5-2.8-2-4c0.3-0.7,1.1-1.6,2.1-1.5
		C421.6,364.5,422.2,365.2,422.5,365.9z"/>
	<path class="st1" d="M458.3,348.5c-0.5,1.2,0.2,3,1.9,4.2c1.8-1,2.5-2.8,2-4c-0.3-0.7-1.1-1.6-2.1-1.5
		C459.3,347.2,458.6,347.9,458.3,348.5z"/>
	<path class="st1" d="M406.9,403.4c0.5,1.2-0.2,3-1.9,4.2c-1.8-1-2.5-2.8-2-4c0.3-0.7,1.1-1.6,2.1-1.5
		C405.9,402.1,406.6,402.8,406.9,403.4z"/>
	<path class="st1" d="M392,372.1c-0.5,1.2,0.2,3,1.9,4.2c1.8-1,2.5-2.8,2-4c-0.3-0.7-1.1-1.6-2.1-1.5
		C393,370.8,392.3,371.5,392,372.1z"/>
	<path class="st1" d="M444.8,396.8c0.5,1.2-0.2,3-1.9,4.2c-1.8-1-2.5-2.8-2-4c0.3-0.7,1.1-1.6,2.1-1.5
		C443.8,395.5,444.5,396.2,444.8,396.8z"/>
	<path class="st1" d="M452.3,412.2c-0.5,1.2,0.2,3,1.9,4.2c1.8-1,2.5-2.8,2-4c-0.3-0.7-1.1-1.6-2.1-1.5
		C453.2,410.9,452.5,411.6,452.3,412.2z"/>
	<path class="st1" d="M460.5,395.3c0.5,1.2-0.2,3-1.9,4.2c-1.8-1-2.5-2.8-2-4c0.3-0.7,1.1-1.6,2.1-1.5
		C459.6,394,460.3,394.7,460.5,395.3z"/>
	<path class="st1" d="M431.5,355.6c-0.5,1.2,0.2,3,1.9,4.2c1.8-1,2.5-2.8,2-4c-0.3-0.7-1.1-1.6-2.1-1.5
		C432.5,354.2,431.8,354.9,431.5,355.6z"/>
	<path class="st1" d="M434.1,427.8c0.5,1.2-0.2,3-1.9,4.2c-1.8-1-2.5-2.8-2-4c0.3-0.7,1.1-1.6,2.1-1.5
		C433.2,426.5,433.8,427.2,434.1,427.8z"/>
	<path class="st1" d="M415.1,413.7c-0.5,1.2,0.2,3,1.9,4.2c1.8-1,2.5-2.8,2-4c-0.3-0.7-1.1-1.6-2.1-1.5
		C416.1,412.4,415.4,413.1,415.1,413.7z"/>
	<path class="st1" d="M431.7,388.5c0.5,1.2-0.2,3-1.9,4.2c-1.8-1-2.5-2.8-2-4c0.3-0.7,1.1-1.6,2.1-1.5
		C430.8,387.2,431.5,387.9,431.7,388.5z"/>
	<path class="st1" d="M439.7,413.7c-0.5,1.2,0.2,3,1.9,4.2c1.8-1,2.5-2.8,2-4c-0.3-0.7-1.1-1.6-2.1-1.5
		C440.7,412.4,440,413.1,439.7,413.7z"/>
	<path class="st1" d="M475,357.3c0.5,1.2-0.2,3-1.9,4.2c-1.8-1-2.5-2.8-2-4c0.3-0.7,1.1-1.6,2.1-1.5
		C474.1,356,474.7,356.7,475,357.3z"/>
	<path class="st1" d="M425.7,409.6c-0.5,1.2,0.2,3,1.9,4.2c1.8-1,2.5-2.8,2-4c-0.3-0.7-1.1-1.6-2.1-1.5
		C426.7,408.2,426,408.9,425.7,409.6z"/>
	<path class="st1" d="M473.3,379.5c0.5,1.2-0.2,3-1.9,4.2c-1.8-1-2.5-2.8-2-4c0.3-0.7,1.1-1.6,2.1-1.5
		C472.3,378.1,473,378.9,473.3,379.5z"/>
	<path class="st1" d="M395.8,388.3c-0.5,1.2,0.2,3,1.9,4.2c1.8-1,2.5-2.8,2-4c-0.3-0.7-1.1-1.6-2.1-1.5
		C396.8,387,396.1,387.7,395.8,388.3z"/>
	<path class="st1" d="M466.4,368.5c0.5,1.2-0.2,3-1.9,4.2c-1.8-1-2.5-2.8-2-4c0.3-0.7,1.1-1.6,2.1-1.5
		C465.4,367.2,466.1,367.9,466.4,368.5z"/>
	<path class="st1" d="M414.5,394.2c-0.5,1.2,0.2,3,1.9,4.2c1.8-1,2.5-2.8,2-4c-0.3-0.7-1.1-1.6-2.1-1.5
		C415.4,392.9,414.7,393.6,414.5,394.2z"/>
	<path class="st1" d="M412.1,379.7c0.5,1.2-0.2,3-1.9,4.2c-1.8-1-2.5-2.8-2-4c0.3-0.7,1.1-1.6,2.1-1.5
		C411.2,378.4,411.9,379.1,412.1,379.7z"/>
	<ellipse class="st2" cx="449" cy="367.6" rx="6.3" ry="6.3"/>
	<ellipse class="st2" cx="419.7" cy="368.3" rx="6.3" ry="6.3"/>
	<path class="st3" d="M414.7,368.3c0.2,0,2.3-0.2,3.8,1.5c1.3,1.5,1,3.3,1,3.6c0.4,0,2.1-0.2,3.4-1.7c1.3-1.4,1.4-3,1.4-3.4
		c-0.1,0-2.3,0.4-3.8-1.3c-1.4-1.6-1-3.5-1-3.7c-0.5,0.1-2.1,0.5-3.4,2C415,366.5,414.8,367.8,414.7,368.3z"/>
	<path class="st3" d="M444,367.9c0.2,0,2.3-0.2,3.8,1.5c1.3,1.5,1,3.3,1,3.6c0.4,0,2.1-0.2,3.4-1.7c1.3-1.4,1.4-3,1.4-3.4
		c-0.1,0-2.3,0.4-3.8-1.3c-1.4-1.6-1-3.5-1-3.7c-0.5,0.1-2.1,0.5-3.4,2C444.3,366.1,444.1,367.4,444,367.9z"/>
	<path class="st4" d="M446.2,391.6c-0.5,5.6-4.4,10.2-9.7,11.6c-5.2,1.3-10.8-0.8-13.8-5.4C430.5,395.8,438.3,393.7,446.2,391.6z"/>
	<path class="st5" d="M440.9,398.5c-0.8,0.7-2.2,1.8-4.4,2.5c-1.9,0.6-3.6,0.5-4.6,0.4c0.1-2.1,1.4-4,3.3-4.7
		C437.2,396,439.6,396.7,440.9,398.5z"/>
	<path class="st6" d="M398.9,323.7c-0.7-0.2-7.3-1.7-12.5,2.9c-0.5,0.4-4.7,4.1-4.7,9.3c0,8.5,11,17.6,20.6,14.9
		c7.8-2.2,10.7-11.2,10.9-12.1c0.8,1.2,4.5,6.4,11.1,7.4c7,1.1,14.4-2.9,18.2-10.1c0.7,1.7,3.6,8.3,10.7,11.1
		c1.1,0.4,9.7,3.8,14.4-1.1c2.6-2.7,2.6-6.6,2.5-8c6.2,0.1,10.1-4.2,9.8-7.2c-0.3-2.5-3.6-5-7.9-5.4c4.2-4.4,4.7-10.6,2.2-14
		c-3.1-4.1-11.4-4.8-16.8,1.1c-1.5-1.4-6.5-5.6-13.8-5.8c-8-0.1-15.5,4.7-19.6,12.4c-4-8.5-10.9-12.9-15.7-11.5
		c-4,1.2-6.5,6.5-7.3,8.3C399.5,319,399.1,321.8,398.9,323.7z"/>
</g>
<text transform="matrix(1 0 0 1 374.8511 461.5439)" class="st7 st8">i miss you berry much!</text>
</svg>
