<?xml version="1.0" encoding="utf-8"?>
<!-- Generator: Adobe Illustrator 21.0.2, SVG Export Plug-In . SVG Version: 6.00 Build 0)  -->
<svg version="1.1" id="Layer_1" xmlns="http://www.w3.org/2000/svg" xmlns:xlink="http://www.w3.org/1999/xlink" x="0px" y="0px"
	 viewBox="0 0 841.9 595.3" style="enable-background:new 0 0 841.9 595.3;" xml:space="preserve">
<style type="text/css">
	.st0{fill:#FCEE21;stroke:#6A2E12;stroke-width:4;stroke-miterlimit:10;}
	.st1{fill:none;stroke:#6A2E12;stroke-width:4;stroke-miterlimit:10;}
	.st2{fill:none;stroke:#6A2F14;stroke-width:4;stroke-miterlimit:10;}
	.st3{fill:#439B45;stroke:#2F5027;stroke-width:4;stroke-miterlimit:10;}
	.st4{fill:#FFFFFF;stroke:#FFFFFF;stroke-miterlimit:10;}
	.st5{stroke:#000000;stroke-miterlimit:10;}
	.st6{stroke:#9D8730;stroke-width:2;stroke-miterlimit:10;}
	.st7{font-family:'AmaticSC-Regular';}
	.st8{font-size:18px;}
</style>
<path class="st0" d="M462.7,236.1c-10.2,10.3-20.3,20.6-30.5,31c-10.2-10.3-20.3-20.6-30.5-31c-0.1-6,0.2-29.8,17.2-46.3
	c4.5-4.4,9.2-7.3,13.3-9.3c4.2,2,8.9,5,13.3,9.3C462.5,206.3,462.8,230,462.7,236.1z"/>
<line class="st1" x1="421.6" y1="186.8" x2="451.7" y2="197.1"/>
<line class="st1" x1="443" y1="186.7" x2="412.9" y2="197.1"/>
<line class="st1" x1="413.4" y1="194.7" x2="459.1" y2="213.6"/>
<line class="st1" x1="449.5" y1="195.1" x2="404.4" y2="214.1"/>
<line class="st1" x1="405.8" y1="210.8" x2="462.4" y2="229.2"/>
<line class="st1" x1="458.7" y1="210.4" x2="401.1" y2="229.4"/>
<line class="st1" x1="402.8" y1="226.2" x2="455.4" y2="243.8"/>
<line class="st1" x1="462.1" y1="226.2" x2="409.5" y2="243.9"/>
<line class="st2" x1="410.5" y1="243.6" x2="436.2" y2="264.3"/>
<line class="st2" x1="455.8" y1="243" x2="427.7" y2="264.6"/>
<path class="st3" d="M380.8,224.4c21.1-0.4,35,14.4,36.7,16.3c10.7,11.7,12.4,25.1,12.9,29.9c0,12.8,0,25.6-0.1,38.4
	c-12.5-1.9-18.8-6.7-22.3-10.8c-5.5-6.4-7.4-15.2-11.3-33c-2.7-12.1-2.7-16.4-7-19.9c-4.8-3.9-9.4-2.6-15.5-7.4
	c-4.2-3.4-6.5-7.6-7.7-10.8C369.7,225.8,374.6,224.5,380.8,224.4z"/>
<path class="st3" d="M434.2,270.5c0,12.8,0,25.6,0.1,38.4c12.5-1.9,18.8-6.7,22.3-10.8c5.5-6.4,7.4-15.2,11.3-33
	c2.7-12.1,2.7-16.4,7-19.9c4.8-3.9,9.4-2.6,15.5-7.4c4.2-3.4,6.5-7.6,7.7-10.8c-3.3-1.2-8.2-2.5-14.4-2.6
	c-21.1-0.4-35,14.4-36.7,16.3C436.4,252.3,434.6,265.7,434.2,270.5z"/>
<ellipse class="st4" cx="443" cy="211.3" rx="6.9" ry="6.8"/>
<ellipse class="st4" cx="421.9" cy="211.7" rx="6.9" ry="6.8"/>
<path class="st5" d="M437.9,211.4c0,2.8,2.3,5.4,5.2,5.4c2.9,0,5.3-2.5,5.2-5.4c-0.2,0-2.5,0.4-4.2-1.4c-1.5-1.7-1.1-3.8-1.1-4
	C440.2,206.1,437.9,208.6,437.9,211.4z"/>
<path class="st5" d="M416.6,211.7c0,2.8,2.3,5.4,5.2,5.4c2.9,0,5.3-2.5,5.2-5.4c-0.2,0-2.5,0.4-4.2-1.4c-1.5-1.7-1.1-3.8-1.1-4
	C418.9,206.4,416.6,208.8,416.6,211.7z"/>
<path class="st6" d="M445.6,229.5c-2,5.7-7.5,9.4-13.5,9.4c-5.9-0.1-11.2-3.9-13.2-9.5C427.8,229.4,436.7,229.5,445.6,229.5z"/>
<text transform="matrix(1 0 0 1 378.8149 160.979)" class="st7 st8">CORN-GRADULATIONS!</text>
</svg>
