<?xml version="1.0" encoding="utf-8"?>
<!-- Generator: Adobe Illustrator 21.0.2, SVG Export Plug-In . SVG Version: 6.00 Build 0)  -->
<svg version="1.1" id="Layer_1" xmlns="http://www.w3.org/2000/svg" xmlns:xlink="http://www.w3.org/1999/xlink" x="0px" y="0px"
	 viewBox="0 0 841.9 595.3" style="enable-background:new 0 0 841.9 595.3;" xml:space="preserve">
<style type="text/css">
	.st0{fill:#439B45;stroke:#2F5027;stroke-width:4;stroke-miterlimit:10;}
	.st1{fill:#A74F9E;stroke:#8D278E;stroke-width:4;stroke-miterlimit:10;}
	.st2{fill:#FEF9CC;stroke:#F8EB8E;stroke-width:4;stroke-miterlimit:10;}
	.st3{fill:#FFFFFF;stroke:#FFFFFF;stroke-miterlimit:10;}
	.st4{stroke:#000000;stroke-miterlimit:10;}
	.st5{stroke:#8D288C;stroke-width:2;stroke-miterlimit:10;}
	.st6{fill:#FFFFFF;}
	.st7{font-family:'AmaticSC-Regular';}
	.st8{font-size:18px;}
</style>
<path class="st0" d="M410.1,310.7c-0.3,1.1-2.9,11.1,3.9,19.9c6.9,8.9,17.5,8.8,18.5,8.7c0.3-1.1,2.7-11.1-4.1-19.9
	C421.5,310.8,411.3,310.7,410.1,310.7z"/>
<path class="st0" d="M455.4,310.7c0.3,1.1,2.9,11.1-3.9,19.9c-6.9,8.9-17.5,8.8-18.5,8.7c-0.3-1.1-2.7-11.1,4.1-19.9
	C444,310.8,454.2,310.7,455.4,310.7z"/>
<path class="st0" d="M432.3,303.2c0.9,0.7,9.1,7,9,18.1c-0.1,11.3-8.5,17.6-9.4,18.2c-0.9-0.7-8.9-7.2-8.8-18.3
	C423.2,310.1,431.3,303.9,432.3,303.2z"/>
<path class="st1" d="M458.5,404.8c-6.8,6.5-13.6,8.6-13.6,8.6c-4.4,1.1-7.4,1-10,3.6c-1.6,1.5-2.4,3.3-2.9,5.3
	c-0.1,0.4-0.2,0.8-0.2,1.2c-0.1-0.4-0.1-0.8-0.2-1.2c-0.5-1.9-1.3-3.8-2.9-5.3c-2.7-2.5-5.6-2.4-10-3.6c0,0-6.8-2.1-13.6-8.6
	c-10.9-10.5-9.6-25.2-9.4-27.4c1.3-16.2,14.9-35.5,35.9-35.6c21.2-0.1,35.1,19.5,36.4,35.6C468.8,389.1,463.3,400.2,458.5,404.8z"/>
<path class="st2" d="M397.1,392c10.7-3.5,17.3-2,21.4,0c6.7,3.3,8.1,9,13.4,9c5.3,0,6.8-5.7,13.7-8.9c4.2-2,10.5-3.1,20.2,0
	c-1.6,5.2-4,8.7-5.7,10.8c-1.3,1.6-6.5,8-15.2,10.5c-4.5,1.3-6.8,0.8-9.5,3.1c-2.6,2.3-3.5,5.6-3.8,8.1c-0.3-2.5-1.1-5.8-3.6-8
	c-2.8-2.5-5.3-1.5-10-2.8c-10.2-2.9-16-11.3-17.3-13.3C398.8,397.3,397.7,394.3,397.1,392z"/>
<ellipse class="st3" cx="441.5" cy="364.2" rx="6.9" ry="6.8"/>
<ellipse class="st3" cx="422" cy="364.4" rx="6.9" ry="6.8"/>
<path class="st4" d="M446.9,364.1c0.1,3-2.4,5.4-5.2,5.4c-3,0-5.2-2.6-5.2-5.4c0-2.8,2.3-5.3,5.2-5.4c-0.4,1.6,0,3.3,1.2,4.4
	C444.5,364.7,446.7,364.2,446.9,364.1z"/>
<path class="st4" d="M427.2,364.5c0.1,3-2.4,5.4-5.2,5.4c-3,0-5.2-2.6-5.2-5.4c0-2.8,2.3-5.3,5.2-5.4c-0.4,1.6,0,3.3,1.2,4.4
	C424.8,365.1,427,364.6,427.2,364.5z"/>
<path class="st5" d="M444.8,380.2c-2,5.7-7.5,9.4-13.5,9.4c-5.9-0.1-11.2-3.9-13.2-9.5C427,380.2,435.9,380.2,444.8,380.2z"/>
<path class="st6" d="M421.6,381.1c0.1,0.9,0.3,2.1,1.1,3.2c1.6,2.1,4.5,2.1,8.4,2.2c4.1,0.1,7.4,0.1,9.1-2.2c0.8-1.1,1-2.3,1.1-3.2
	C434.8,381.2,428.2,381.2,421.6,381.1z"/>
<text transform="matrix(1 0 0 1 404.2993 283.8926)" class="st7 st8">lets turnip</text>
<text transform="matrix(1 0 0 1 410.9131 466.6514)" class="st7 st8">the beet!</text>
</svg>
