<svg id="Layer_1" data-name="Layer 1" xmlns="http://www.w3.org/2000/svg" viewBox="0 0 94.43172 138.90678"><defs><style>.cls-1{fill:#439b45;stroke:#305027;}.cls-1,.cls-2,.cls-3,.cls-4,.cls-5{stroke-miterlimit:10;}.cls-1,.cls-3{stroke-width:4px;}.cls-2{fill:#dbe352;stroke:#7ac144;}.cls-2,.cls-5{stroke-width:2px;}.cls-3{fill:#763031;stroke:#5b3533;}.cls-4{fill:none;stroke:#000;}.cls-5{stroke:#315027;}</style></defs><title>avocado</title><path class="cls-1" d="M423.48294,308.77826c-5.62122,6.61511-13.01178,9.79446-16.71027,11.38553a51.63821,51.63821,0,0,1-19.25809,4.24332,48.45931,48.45931,0,0,1-17.626-2.93768c-2.93179-1.10834-11.72858-4.54922-18.30647-12.69116-9.6844-11.98709-12.35924-31.287-5.19559-44.34827,4.66463-8.50485,11.8463-11.85937,13.5023-21.52005a92.90223,92.90223,0,0,0,1.04364-13.93124c-.02383-3.27258-.35306-5.01654-.29663-6.50415.15805-4.1655.40509-19.55756,11.47836-27.83685,2.12552-1.58923,7.2883-4.89108,15.8519-5.12894a26.94047,26.94047,0,0,1,14.98474,5.12894c11.07428,8.30243,11.32138,23.69888,11.47842,27.83685.05133,1.35358-.27957,3.256-.29834,6.50488a90.34005,90.34005,0,0,0,.994,13.17041c1.58093,9.5217,8.99506,13.84161,13.544,22.28015C435.835,277.72327,433.25467,297.27875,423.48294,308.77826Z" transform="translate(-340.32596 -187.50721)"/><path class="cls-2" d="M420.69272,299.92191a33.44339,33.44339,0,0,1-14.68066,12.40018,40.90437,40.90437,0,0,1-16.98743,3.825,39.056,39.056,0,0,1-17.17764-2.51147,33.84166,33.84166,0,0,1-16.56067-13.71371c-4.50356-7.45016-6.57265-17.7395-3.32906-26.10178a48.37884,48.37884,0,0,1,5.11861-9.37106c2.415-3.47961,3.82938-4.53778,6.13849-8.3606a45.23178,45.23178,0,0,0,3.57919-7.3501c.48108-1.287,2.12628-5.901,2.55927-14.18527.47144-9.12326-1.19305-9.50461-.2598-15.968.32736-2.26724,1.06393-7.80008,4.34891-12.4122.888-1.24673,6.09525-8.55786,14.63513-8.5155,8.43176.04184,13.53806,7.21957,14.46005,8.5155,3.27377,4.60178,4.01257,10.10666,4.34888,12.4122.9429,6.46344-.73123,6.84479-.25015,15.968.433,8.28424,2.07825,12.89832,2.54968,14.18527a44.71425,44.71425,0,0,0,3.58878,7.3501c2.30917,3.82281,3.71387,4.881,6.12885,8.3606a47.33924,47.33924,0,0,1,5.11862,9.37106C427.13419,281.932,425.53259,292.19885,420.69272,299.92191Z" transform="translate(-340.32596 -187.50721)"/><ellipse class="cls-3" cx="47.5794" cy="96.75073" rx="19.09132" ry="18.9162"/><path class="cls-4" d="M378.46719,221.863a3.37483,3.37483,0,0,1,6.744,0" transform="translate(-340.32596 -187.50721)"/><path class="cls-5" d="M395.04952,229.95c-1.17131,3.79182-4.28673,6.31895-7.73187,6.2782-3.40111-.04023-6.44186-2.57506-7.581-6.32515Z" transform="translate(-340.32596 -187.50721)"/><path class="cls-4" d="M389.30568,221.67929a3.37483,3.37483,0,0,1,6.744,0" transform="translate(-340.32596 -187.50721)"/></svg>