<svg id="Layer_1" data-name="Layer 1" xmlns="http://www.w3.org/2000/svg" viewBox="0 0 114.56427 134.48004"><defs><style>.cls-1{fill:#fff18c;stroke:#ffe600;}.cls-1,.cls-2,.cls-3,.cls-4,.cls-5,.cls-6,.cls-7{stroke-miterlimit:10;}.cls-1,.cls-2,.cls-3{stroke-width:4px;}.cls-2{fill:#ffce07;stroke:#673514;}.cls-3{fill:none;stroke:#673616;}.cls-4{fill:#fff;stroke:#fff;}.cls-5{stroke:#000;}.cls-6{stroke:#9d8730;stroke-width:2px;}.cls-7{fill:#f27079;stroke:#f27079;}</style></defs><title>banana</title><path class="cls-1" d="M368.6546,226.00555c2.06232,5.39026,25.08633,3.95551,44.07455-4.222,24.29617-10.4635,36.60645-29.65015,40.18616-35.721,3.41217-5.78674,14.66974-25.45935,11.37772-48.33856a49.22738,49.22738,0,0,0-8.82816-22.0704c-2.3851-3.24722-8.08084-11.00177-12.26135-9.80908-4.49268,1.28177-3.12619,11.72461-6.23508,26.95544a124.71164,124.71164,0,0,1-15.9469,38.59149c-6.223,9.681-12.86627,16.02213-26.15289,28.70438C375.63651,218.45306,367.32,222.5174,368.6546,226.00555Z" transform="translate(-366.36353 -103.72089)"/><path class="cls-2" d="M421.80966,169.385a156.94372,156.94372,0,0,1-16.04974,19.36435c-5.31717,5.44562-11.34619,10.80566-25.38333,23.81091-10.49609,9.72449-12.55164,11.75513-11.90546,13.70251,1.65106,4.97583,19.16574,4.05725,30.99912,1.57239,6.68753-1.4043,24.58328-5.421,39.98434-21.34a74.35052,74.35052,0,0,0,14.89816-22.48938Z" transform="translate(-366.36353 -103.72089)"/><path class="cls-2" d="M421.73505,165.11931c-1.50816-1.17944-10.98068-8.33774-23.63386-5.99933-15.9073,2.93979-21.83286,18.11531-22.47475,19.84759-2.75508,7.4353-2.88806,17.07775.20511,18.36291,2.41579,1.0037,5.05983-3.81309,16.17471-11.73055a62.15657,62.15657,0,0,1,11.57776-7.00827,47.1311,47.1311,0,0,1,16.62333-3.87994l12.48859-1.49826Z" transform="translate(-366.36353 -103.72089)"/><path class="cls-2" d="M454.89517,180.25949c1.88226.35046,13.51712,2.71677,20.13574,13.7515,8.32077,13.87262.86261,28.35657-.01157,29.984-3.75217,6.98535-10.89423,13.465-13.90445,11.996-2.351-1.14728-.48874-6.31683-1.90628-19.88953a62.1574,62.1574,0,0,0-2.40555-13.31818,47.13057,47.13057,0,0,0-8.0896-15.03152q-3.56982-5.17772-7.13965-10.35544Z" transform="translate(-366.36353 -103.72089)"/><path class="cls-3" d="M368.26776,226.42017a101.54372,101.54372,0,0,0,47.765-24.09766,99.20209,99.20209,0,0,0,20.22485-25.819" transform="translate(-366.36353 -103.72089)"/><path class="cls-4" d="M438.36089,142.40706a5.3946,5.3946,0,0,0,5.23059,5.43982,5.444,5.444,0,0,0,0-10.87962A5.39458,5.39458,0,0,0,438.36089,142.40706Z" transform="translate(-366.36353 -103.72089)"/><path class="cls-4" d="M450.836,142.72693a5.3946,5.3946,0,0,0,5.23059,5.43982,5.444,5.444,0,0,0,0-10.87962A5.39458,5.39458,0,0,0,450.836,142.72693Z" transform="translate(-366.36353 -103.72089)"/><path class="cls-5" d="M445.05062,143.87423a2.70094,2.70094,0,0,1-2.71544,2.63315,2.63439,2.63439,0,1,1,0-5.2663A2.70094,2.70094,0,0,1,445.05062,143.87423Z" transform="translate(-366.36353 -103.72089)"/><path class="cls-5" d="M459.60836,140.99537a2.70094,2.70094,0,0,1-2.71544,2.63315,2.63439,2.63439,0,1,1,0-5.2663A2.70094,2.70094,0,0,1,459.60836,140.99537Z" transform="translate(-366.36353 -103.72089)"/><ellipse class="cls-6" cx="80.78164" cy="56.99298" rx="6.93855" ry="6.79598"/><path class="cls-7" d="M443.223,161.42118a4.26929,4.26929,0,0,0,4.06175,4.36793,4.37946,4.37946,0,0,0,0-8.73585A4.26927,4.26927,0,0,0,443.223,161.42118Z" transform="translate(-366.36353 -103.72089)"/></svg>