<svg id="Layer_1" data-name="Layer 1" xmlns="http://www.w3.org/2000/svg" viewBox="0 0 135.58857 138.52974"><defs><style>.cls-1,.cls-4{fill:#439b46;}.cls-1,.cls-2{stroke:#315027;}.cls-1,.cls-2,.cls-3,.cls-4,.cls-5,.cls-6,.cls-7{stroke-miterlimit:10;}.cls-1,.cls-2,.cls-7{stroke-width:4px;}.cls-2{fill:#1e4721;}.cls-3,.cls-7{fill:none;}.cls-3,.cls-4{stroke:#000;}.cls-5{stroke:#157139;stroke-width:2px;}.cls-6{fill:#f27079;stroke:#f27079;}.cls-7{stroke:#325027;}</style></defs><title>broccoli</title><path class="cls-1" d="M492.2384,199.642c-6.91876,2.79662-3.1463,22.95972-9.03119,24.43726-2.09357.52565-4.94238-1.43085-5.98572-3.52246-.89154-1.78737-.29608-3.33537.142-6.03995.08789-.54268,1.83643-11.81036-1.59375-13.81236-.6778-.3956-2.49512-.97647-6.90613,2.125a78.232,78.232,0,0,0-1.59375,11.15613c-.42,6.0952.06921,9.70143-2.28448,11.27739a4.57577,4.57577,0,0,1-4.09045.41c-2.65686-1.07106-2.98254-4.67288-4.78119-11.68739-.63708-2.48462-1.65454-6.16-3.1875-10.62489l-16.46857,3.71872c8.39319,16.23625,10.52087,29.70857,10.77417,39.39243.27277,10.42969-1.64587,15.80612,2.38684,20.61891,7.48987,8.93864,28.77332,7.89452,35.40692-1.686,3.24286-4.68346,1.77429-9.65874,1.48627-15.87888-.49359-10.65964,2.451-25.599,17.42419-44.49872C497.74194,199.31615,494.28558,198.81447,492.2384,199.642Z" transform="translate(-401.04655 -136.70031)"/><path class="cls-2" d="M466.47913,208.07922c-.32916.22392-7.46582,4.94493-13.48834,1.26453a11.41042,11.41042,0,0,1-4.6366-5.90114c-.627,2.06108-3.55341,10.87221-12.22382,15.17438-9.84027,4.88263-24.85327,2.8531-30.77026-8.43021-5.55878-10.60027-.843-25.08394,11.3808-30.77029-2.11841-1.23447-8.68677-5.41524-10.11627-12.64532-2.16925-10.97157,8.62677-23.24107,21.0755-24.86913,10.74408-1.40512,21.80719,5.23569,26.55518,16.43892.75989-3.404,2.83453-10.15662,8.85175-14.75288,11.56421-8.83336,31.748-5.1631,38.779,6.74417,3.21442,5.44373,2.91742,11.318,2.52905,14.33137,7.06879-4.3417,15.629-4.50072,21.91858-.42152,10.14624,6.58045,8.24677,20.20988,8.00867,21.91856-1.07129,7.68784-6.38135,18.92129-17.28192,20.654-11.06024,1.75813-19.16962-7.649-19.675-8.25436a13.62489,13.62489,0,0,1-25.96844,3.63557A14.55927,14.55927,0,0,1,466.47913,208.07922Z" transform="translate(-401.04655 -136.70031)"/><path class="cls-3" d="M456.35529,232.31929a9.44576,9.44576,0,0,1,7.01147,3.3759,21.69521,21.69521,0,0,0-6.47516-.74425" transform="translate(-401.04655 -136.70031)"/><path class="cls-4" d="M463.76428,235.817a28.83365,28.83365,0,0,0-6.48157,1.45276" transform="translate(-401.04655 -136.70031)"/><path class="cls-3" d="M476.76428,232.31929a9.44576,9.44576,0,0,0-7.01147,3.3759,21.69521,21.69521,0,0,1,6.47516-.74425" transform="translate(-401.04655 -136.70031)"/><path class="cls-4" d="M469.35529,235.817a28.83365,28.83365,0,0,1,6.48157,1.45276" transform="translate(-401.04655 -136.70031)"/><path class="cls-5" d="M476.92537,245.65681a10.29445,10.29445,0,0,1-19.36741,4.08812Z" transform="translate(-401.04655 -136.70031)"/><path class="cls-6" d="M464.35056,253.88678a10.96366,10.96366,0,0,1,8.39217-1.87152,4.57294,4.57294,0,0,1-8.39217,1.87152Z" transform="translate(-401.04655 -136.70031)"/><path class="cls-7" d="M469.02683,167.59894a7.23216,7.23216,0,0,0,12.33588,7.40151c.21936.40675,2.27063,4.09064,5.55115,4.31755,3.61291.24989,7.86725-3.752,8.01831-9.86868" transform="translate(-401.04655 -136.70031)"/><path class="cls-7" d="M424.01013,199.121c4.70233,3.15923,10.21655,2.18445,12.33588-.9252,1.93475-2.83885.48645-6.64459.30841-7.09311.75891.08273,4.24475.385,6.47632-1.85037,2.75549-2.76023,2.72308-8.51263-1.23358-12.95265" transform="translate(-401.04655 -136.70031)"/></svg>