<svg id="Layer_1" data-name="Layer 1" xmlns="http://www.w3.org/2000/svg" viewBox="0 0 59.55018 146.63014"><defs><style>.cls-1,.cls-4{fill:none;}.cls-1,.cls-3,.cls-4,.cls-5{stroke:#ef3e23;}.cls-1,.cls-2,.cls-3,.cls-4,.cls-5,.cls-6,.cls-7,.cls-8{stroke-miterlimit:10;}.cls-1{stroke-width:0.25px;}.cls-2{fill:#439b45;stroke:#2f5027;}.cls-2,.cls-3,.cls-4,.cls-5,.cls-8{stroke-width:4px;}.cls-3{fill:#f47820;}.cls-5{fill:#ed1f24;}.cls-6{fill:#fff;stroke:#fff;}.cls-7,.cls-8{stroke:#000;}</style></defs><title>carrot</title><path class="cls-1" d="M370.05,302.01c0-.01-.01-.01-.01-.02" transform="translate(-340.34665 -155.46577)"/><path class="cls-2" d="M347.79227,165.53138c-.29949,1.062-2.94437,11.11243,3.85378,19.90187,6.88632,8.90342,17.46586,8.76018,18.52817,8.72712.29406-1.12883,2.71746-11.14666-4.13475-19.8806C359.21665,165.5833,348.97078,165.51827,347.79227,165.53138Z" transform="translate(-340.34665 -155.46577)"/><path class="cls-2" d="M393.073,165.53138c.29949,1.062,2.94437,11.11243-3.85378,19.90187-6.88632,8.90342-17.46586,8.76018-18.52817,8.72712-.29406-1.12883-2.71746-11.14666,4.13475-19.8806C381.64858,165.5833,391.89444,165.51827,393.073,165.53138Z" transform="translate(-340.34665 -155.46577)"/><path class="cls-2" d="M369.97014,157.96372c.8834.66118,9.0932,7.03343,9.0386,18.145-.05531,11.25563-8.54261,17.5733-9.40619,18.19283-.91971-.71754-8.93384-7.19855-8.80258-18.29888C360.93067,164.94992,369.02643,158.66974,369.97014,157.96372Z" transform="translate(-340.34665 -155.46577)"/><path class="cls-3" d="M397.89,226.70758c.31,14.2325-10.03,34.22778-14.31,42.28993-5.6,10.54579-10.3,19.16095-13.54,25.0402-2.63-4.86058-7.38-13.69886-13.37-25.0402-4.73-8.945-14.53-27.99922-14.32-42.01825a29.91172,29.91172,0,0,1,.21-3.1822c.09964-.86029.2365-2.04021.486-3.4261.75218-4.178,2.52808-10.22808,7.394-15.03629,7.34-7.23752,17.37-7.35394,19.57-7.32481,2.16-.03884,12.38-.00971,19.8,7.32481,6.49,6.41284,7.49,15.10562,7.87,18.46239A27.13988,27.13988,0,0,1,397.89,226.70758Z" transform="translate(-340.34665 -155.46577)"/><path class="cls-1" d="M370.04,301.99c-.01.02-.02.03-.03.05" transform="translate(-340.34665 -155.46577)"/><line class="cls-4" x1="2.60162" y1="65.53326" x2="55.43807" y2="65.54376"/><line class="cls-4" x1="3.85005" y1="83.49153" x2="54.26766" y2="83.58756"/><line class="cls-4" x1="9.80413" y1="101.7379" x2="49.25816" y2="101.73528"/><line class="cls-4" x1="18.35112" y1="119.40807" x2="40.82296" y2="119.31204"/><line class="cls-5" x1="12.90327" y1="47.76744" x2="46.99989" y2="47.27329"/><ellipse class="cls-6" cx="39.87032" cy="67.80334" rx="6.93855" ry="6.79598"/><ellipse class="cls-6" cx="20.98472" cy="67.48551" rx="6.93855" ry="6.79598"/><path class="cls-7" d="M356.13338,223.02283a5.49032,5.49032,0,0,0,5.23059,5.43982,5.56952,5.56952,0,0,0,5.13869-3.47633l-6.42836-7.12846A5.59735,5.59735,0,0,0,356.13338,223.02283Z" transform="translate(-340.34665 -155.46577)"/><path class="cls-7" d="M385.50247,223.02283a5.49032,5.49032,0,0,1-5.23059,5.43982,5.56952,5.56952,0,0,1-5.13869-3.47633l6.42836-7.12846A5.59735,5.59735,0,0,1,385.50247,223.02283Z" transform="translate(-340.34665 -155.46577)"/><rect class="cls-8" x="19.03899" y="87.01149" width="22.17308" height="3.6744" rx="1.8372" ry="1.8372"/></svg>