<svg id="Layer_1" data-name="Layer 1" xmlns="http://www.w3.org/2000/svg" viewBox="0 0 137.07282 121.24829"><defs><style>.cls-1{fill:#449b45;stroke:#2d5026;}.cls-1,.cls-2,.cls-3,.cls-4,.cls-5,.cls-6{stroke-miterlimit:10;}.cls-1,.cls-2{stroke-width:4px;}.cls-2{fill:#9b1b45;stroke:#5e082f;}.cls-3{fill:#fff;stroke:#fff;}.cls-4{stroke:#000;}.cls-5{fill:#b82d91;stroke:#b82b91;}.cls-6{fill:none;stroke:#80277a;}</style></defs><title>cherry</title><path class="cls-1" d="M298.41734,241.34893c-1.69579-.88867,6.68846-20.35281,9.70114-27.3468,3.04376-7.06613,4.705-10.92279,7.4481-16.46423,7.28462-14.71609,11.40312-19.5054,9.60414-25.87238-1.40195-4.96176-5.26405-6.86975-4.11606-9.60416,1.27234-3.03058,7.57266-4.39368,9.99615-2.156,2.14337,1.979-.13577,5.491.588,10.78015.62968,4.60159,3.69507,7.96509,9.80016,14.50424,15.92661,17.059,16.38025,17.403,18.22827,19.99228.00006.00009,3.04918,4.27231,9.21213,18.42429a10.86457,10.86457,0,0,1,.784,2.94c.26836,2.17307.02548,5.58221-1.29617,5.99939-1.56717.49469-4.16806-3.37-5.36792-5.60739a23.48058,23.48058,0,0,1-2.156-6.07608c-.91823-3.58057-2.97668-6.42117-7.05611-11.95618-3.60973-4.89774-6.14192-7.52542-15.28822-17.44427-3.47462-3.7681-6.22646-6.76947-7.72383-8.40442a167.05651,167.05651,0,0,0-8.54442,16.24454c-3.133,6.84122-4.00966,9.97327-5.88008,14.50424C310.02813,229.12182,299.903,242.1275,298.41734,241.34893Z" transform="translate(-265.23428 -156.79565)"/><path class="cls-2" d="M324.55514,235.45508c9.08577,6.46539,6.42859,24.78644-2.45988,33.61853-6.98956,6.94522-16.76335,6.9606-22.549,6.9697-5.77521.00909-17.00638.02676-24.59892-8.19965-7.43219-8.05267-11.46434-24.0986-2.86987-31.5686,6.41533-5.576,18.46347-5.15451,27.87878,2.4599C308.53867,232.7207,318.6069,231.22235,324.55514,235.45508Z" transform="translate(-265.23428 -156.79565)"/><path class="cls-2" d="M342.98624,229.86506c-9.08577,6.46539-6.42859,24.78644,2.45988,33.61853,6.98956,6.94522,16.76335,6.9606,22.549,6.9697,5.77521.00909,17.00638.02676,24.59892-8.19965,7.43219-8.05267,11.46434-24.0986,2.86987-31.5686-6.41533-5.576-18.46347-5.15451-27.87878,2.4599C359.00271,227.13068,348.93449,225.63233,342.98624,229.86506Z" transform="translate(-265.23428 -156.79565)"/><path class="cls-3" d="M284.16611,250.12184a5.3946,5.3946,0,0,0,5.23059,5.43982,5.444,5.444,0,0,0,0-10.87962A5.39458,5.39458,0,0,0,284.16611,250.12184Z" transform="translate(-265.23428 -156.79565)"/><path class="cls-3" d="M354.77477,243.78334a5.3946,5.3946,0,0,0,5.23059,5.43982,5.444,5.444,0,0,0,0-10.87962A5.39458,5.39458,0,0,0,354.77477,243.78334Z" transform="translate(-265.23428 -156.79565)"/><path class="cls-3" d="M301.15463,249.8791a5.3946,5.3946,0,0,0,5.23059,5.43982,5.444,5.444,0,0,0,0-10.87962A5.39458,5.39458,0,0,0,301.15463,249.8791Z" transform="translate(-265.23428 -156.79565)"/><path class="cls-3" d="M371.13187,242.92268a5.3946,5.3946,0,0,0,5.23059,5.43982,5.444,5.444,0,0,0,0-10.87962A5.39458,5.39458,0,0,0,371.13187,242.92268Z" transform="translate(-265.23428 -156.79565)"/><ellipse class="cls-4" cx="25.92987" cy="92.46561" rx="2.71543" ry="2.63314"/><ellipse class="cls-4" cx="42.84739" cy="92.16347" rx="2.71543" ry="2.63314"/><ellipse class="cls-4" cx="109.18698" cy="86.2119" rx="2.71543" ry="2.63314"/><ellipse class="cls-4" cx="92.80828" cy="87.30797" rx="2.71543" ry="2.63314"/><path class="cls-5" d="M357.00121,259.4433c.91136.94434,3.59361.64795,4.8334-1.03345a3.473,3.473,0,0,0,.32481-3.68127c-1.23157-2.08487-4.96979-1.81226-5.84673-.54135a1.50707,1.50707,0,0,0-.22624,1.10452c.2113.93872,1.44987,1.259,1.52551,1.27747a2.23054,2.23054,0,0,0-1.033,1.67789A1.79648,1.79648,0,0,0,357.00121,259.4433Z" transform="translate(-265.23428 -156.79565)"/><path class="cls-6" d="M356.93085,254.5881c-.13918.10876.0155.63223.28145.98511.42726.56693,1.00934.51776,1.05548.84439.04549.322-.51085.43521-.84438,1.12582-.19141.39636-.29942.96219-.14073,1.05548.26131.15359,1.65973-.73059,1.61839-2.04059C358.85658,255.14813,357.18,254.39343,356.93085,254.5881Z" transform="translate(-265.23428 -156.79565)"/><path class="cls-4" d="M287.89417,260.22913c-.36159.90131,4.3582,5.62857,9.86806,5.70554,5.51773.07709,10.38908-4.52954,10.04749-5.52612a.62549.62549,0,0,0-.37267-.37451c-.246-.05655-.50777.15909-.74872.36252a2.1446,2.1446,0,0,0-.45227.47037,11.76308,11.76308,0,0,1-8.50856,3.74792,12.92214,12.92214,0,0,1-8.35083-3.94711c-.12155-.12561-.23071-.247-.23077-.24707-.14323-.15927-.15292-.18149-.205-.23517-.03282-.03381-.33382-.3371-.62036-.30234A.63326.63326,0,0,0,287.89417,260.22913Z" transform="translate(-265.23428 -156.79565)"/></svg>