<svg id="Layer_1" data-name="Layer 1" xmlns="http://www.w3.org/2000/svg" viewBox="0 0 104.97055 128.20129"><defs><style>.cls-1{fill:#ed2024;stroke:#9b1c1f;stroke-width:4px;}.cls-1,.cls-2,.cls-3,.cls-4{stroke-miterlimit:10;}.cls-2{fill:#439b46;stroke:#305027;stroke-width:2px;}.cls-3{fill:#fff;stroke:#fff;}.cls-4{stroke:#000;}</style></defs><title>chilli</title><path class="cls-1" d="M472.64459,178.99938c1.68195,4.75758,1.22177,9.38013-1.82806,19.674-4.55008,15.35761-8.53836,29.90221-17.06351,40.80408-16.66827,21.31525-47.4946,32.769-80.57214,29.76,6.28693-23.6478,14.7475-37.87492,21.59171-46.638,2.98672-3.82411,7.62473-9.11607,10.698-17.9413,4.31622-12.39464.34909-16.83517,4.03619-25.08215,5.07339-11.34767,19.84836-19.1876,34.0195-18.45125C454.51764,161.69587,468.617,167.60671,472.64459,178.99938Z" transform="translate(-370.63897 -143.51103)"/><path class="cls-2" d="M434.02414,158.81039c-2.77621.20473-4.58569.33818-5.459,1.61089-1.35632,1.97672-.02533,6.07721,2.14285,6.8069,3.14554,1.05861,7.78491-5.04629,8.373-4.5087.50665.4631-3.71759,4.2793-2.67618,6.97452.8392,2.17191,4.99878,3.35956,6.97232,1.95565,2.23941-1.593,1.29251-6.25855,1.90662-6.31786.77457-.07481.63647,7.50633,4.30045,9.20882,2.51187,1.16716,6.46854-.58759,6.77219-2.44177.36133-2.2064-4.41611-4.76062-4.22134-5.04072.20236-.291,4.48767,3.7217,7.31244,2.55085,2.15619-.89372,3.46359-4.90562,2.1257-7.05734-2.18658-3.51667-10.16611-.02991-12.3291-3.146-1.15009-1.65686-.591-5.08715,4.66089-12.23627l-12.89359-2.39679c2.32593,10.1619,1.289,13.21336-.18509,14.03786C439.59756,159.4977,438.32257,158.49339,434.02414,158.81039Z" transform="translate(-370.63897 -143.51103)"/><ellipse class="cls-3" cx="78.65023" cy="48.69987" rx="6.93855" ry="6.79598"/><ellipse class="cls-3" cx="58.62686" cy="48.34859" rx="6.93855" ry="6.79598"/><path class="cls-4" d="M444.13381,192.36076a5.3946,5.3946,0,0,0,5.23059,5.43982,5.444,5.444,0,0,0,0-10.87962A5.39458,5.39458,0,0,0,444.13381,192.36076Z" transform="translate(-370.63897 -143.51103)"/><path class="cls-4" d="M423.9935,191.88351a5.3946,5.3946,0,0,0,5.23059,5.43982,5.444,5.444,0,0,0,0-10.87962A5.39458,5.39458,0,0,0,423.9935,191.88351Z" transform="translate(-370.63897 -143.51103)"/><path class="cls-4" d="M446.31125,218.75061c.3988-.88547-4.12006-5.80516-9.62193-6.11147-5.50974-.30677-10.56867,4.093-10.26887,5.103a.62549.62549,0,0,0,.35675.3897c.24342.06674.514-.13781.76316-.331a2.1446,2.1446,0,0,0,.47146-.45113,11.76308,11.76308,0,0,1,8.65724-3.3904,12.92214,12.92214,0,0,1,8.17924,4.2914c.11622.13056.22023.2564.22029.25646.13648.1651.14523.1877.19506.2435.03139.03515.31949.3507.60723.32791A.63326.63326,0,0,0,446.31125,218.75061Z" transform="translate(-370.63897 -143.51103)"/></svg>