<svg id="Layer_1" data-name="Layer 1" xmlns="http://www.w3.org/2000/svg" viewBox="0 0 114.25215 112.62702"><defs><style>.cls-1,.cls-4{fill:#efd18c;stroke:#c4a974;}.cls-1,.cls-2,.cls-3,.cls-4,.cls-5,.cls-6{stroke-miterlimit:10;}.cls-1,.cls-2,.cls-3{stroke-width:4px;}.cls-2{fill:none;stroke:#315027;}.cls-3{fill:#6e5b39;stroke:#8e794f;}.cls-4{stroke-width:2px;}.cls-5{fill:#fff;stroke:#fff;}.cls-6{stroke:#000;}</style></defs><title>mushroom</title><path class="cls-1" d="M495.0574,223.01163,472.01506,222.98c6.32052,12.83412,7.2415,23.13914,6.75593,30.46661-.47832,7.21794-2.49035,14.09508,2.35567,18.63011,3.58026,3.35049,9.35458,3.97277,13.84183,3.94067" transform="translate(-438.67779 -165.39148)"/><path class="cls-1" d="M495.01506,223.01163,518.0574,222.98c-6.32051,12.83412-7.2415,23.13914-6.75594,30.46661.48128,7.26277,2.4744,14.10712-2.35567,18.63011-3.62178,3.39152-9.50549,3.99726-14.11038,3.93723" transform="translate(-438.67779 -165.39148)"/><path class="cls-2" d="M466.3701,234.98676" transform="translate(-438.67779 -165.39148)"/><path class="cls-3" d="M494.92992,167.41125c-6.51216.09866-27.47915.41629-41.52629,16.7088-12.43194,14.41913-17.25881,38.81631-7.61725,48.4064,7.57889,7.53842,17.8259-.31079,49.14354-.24573,32.62646.06778,43.14732,8.63171,50.86357.98288,9.87543-9.78915,4.83359-35.90076-9.33727-50.86356C521.87418,167.00308,501.32222,167.31442,494.92992,167.41125Z" transform="translate(-438.67779 -165.39148)"/><ellipse class="cls-4" cx="70.38346" cy="21.0938" rx="7.25544" ry="6.98165"/><ellipse class="cls-4" cx="20.00604" cy="44.50287" rx="6.43407" ry="6.29718"/><ellipse class="cls-4" cx="91.87601" cy="46.00872" rx="3.83307" ry="3.96996"/><ellipse class="cls-4" cx="51.48023" cy="49.4311" rx="5.88649" ry="5.7496"/><ellipse class="cls-4" cx="33.28487" cy="19.17726" rx="4.38065" ry="4.24375"/><path class="cls-5" d="M483.60378,246.9231a5.3946,5.3946,0,0,0,5.23059,5.43982,5.444,5.444,0,0,0,0-10.87962A5.39458,5.39458,0,0,0,483.60378,246.9231Z" transform="translate(-438.67779 -165.39148)"/><path class="cls-6" d="M491.65308,246.58226a2.75221,2.75221,0,0,1-2.71542,2.63315,2.63439,2.63439,0,1,1,0-5.2663A2.75221,2.75221,0,0,1,491.65308,246.58226Z" transform="translate(-438.67779 -165.39148)"/><path class="cls-5" d="M496.19814,246.64931a5.3946,5.3946,0,0,0,5.23059,5.43982,5.444,5.444,0,0,0,0-10.87962A5.39458,5.39458,0,0,0,496.19814,246.64931Z" transform="translate(-438.67779 -165.39148)"/><path class="cls-6" d="M504.24744,246.30847a2.75221,2.75221,0,0,1-2.71542,2.63315,2.63439,2.63439,0,1,1,0-5.2663A2.75221,2.75221,0,0,1,504.24744,246.30847Z" transform="translate(-438.67779 -165.39148)"/><path class="cls-6" d="M485.50207,257.04219c-.356.90352,4.39289,5.60154,9.90312,5.64446,5.5181.043,10.3609-4.59365,10.01315-5.5881a.62549.62549,0,0,0-.375-.3722c-.24633-.055-.50677.16222-.74646.36714a2.1446,2.1446,0,0,0-.44936.47315,11.76308,11.76308,0,0,1-8.48524,3.80043,12.92214,12.92214,0,0,1-8.37506-3.89544c-.12233-.12486-.23223-.24558-.2323-.24564-.14422-.15838-.154-.18054-.20648-.2339-.033-.03361-.33589-.335-.62222-.2985A.63326.63326,0,0,0,485.50207,257.04219Z" transform="translate(-438.67779 -165.39148)"/></svg>