<svg id="Layer_1" data-name="Layer 1" xmlns="http://www.w3.org/2000/svg" viewBox="0 0 124.25211 62.85705"><defs><style>.cls-1{fill:#f36f2d;stroke:#f36f2d;}.cls-1,.cls-2,.cls-3,.cls-4,.cls-5,.cls-6,.cls-7,.cls-8{stroke-miterlimit:10;}.cls-1,.cls-2,.cls-3{stroke-width:4px;}.cls-2,.cls-3,.cls-5{fill:none;}.cls-2,.cls-4,.cls-5{stroke:#ffdda1;}.cls-3{stroke:#ef3e23;}.cls-4{fill:#ffdda1;}.cls-6{fill:#fff;stroke:#fff;}.cls-7{stroke:#000;}.cls-8{fill:#401515;stroke:#ec2c26;}</style></defs><title>orange</title><path class="cls-1" d="M462.55544,200.12039c.00037,27.91145-23.53716,50.87926-52.14126,50.87926s-52.14164-22.9678-52.14126-50.87926Z" transform="translate(-348.30197 -198.08255)"/><path class="cls-2" d="M354.30182,198.11482c-.21735,30.93787,24.88008,56.46,55.34309,56.88251,31.04147.4306,57.12018-25.34674,56.90784-56.87692" transform="translate(-348.30197 -198.08255)"/><path class="cls-3" d="M350.30219,198.08794c-.089,33.01151,26.5553,60.15134,58.83736,60.83835,33.1927.70636,61.43649-26.78577,61.41452-60.74011" transform="translate(-348.30197 -198.08255)"/><path class="cls-4" d="M405.77208,198.615a5.23461,5.23461,0,1,0,10.46118,0Z" transform="translate(-348.30197 -198.08255)"/><line class="cls-5" x1="8.42084" y1="14.29656" x2="60.00587" y2="1.35879"/><line class="cls-5" x1="26.69418" y1="44.14" x2="61.95925" y2="2.48794"/><line class="cls-5" x1="62.48835" y1="56.61131" x2="62.52685" y2="2.39133"/><line class="cls-5" x1="96.78654" y1="44.62231" x2="63.48467" y2="2.3702"/><line class="cls-5" x1="116.62984" y1="13.98483" x2="64.07265" y2="1.81166"/><path class="cls-6" d="M396.33413,213.0385a5.3946,5.3946,0,0,0,5.23059,5.43982,5.444,5.444,0,0,0,0-10.87962A5.39458,5.39458,0,0,0,396.33413,213.0385Z" transform="translate(-348.30197 -198.08255)"/><path class="cls-6" d="M413.66574,212.804a5.3946,5.3946,0,0,0,5.23059,5.43982,5.444,5.444,0,0,0,0-10.87962A5.39458,5.39458,0,0,0,413.66574,212.804Z" transform="translate(-348.30197 -198.08255)"/><path class="cls-7" d="M404.34966,213.13594a2.75221,2.75221,0,0,1-2.71542,2.63315,2.63439,2.63439,0,1,1,0-5.2663A2.75221,2.75221,0,0,1,404.34966,213.13594Z" transform="translate(-348.30197 -198.08255)"/><path class="cls-7" d="M421.61227,212.804a2.70094,2.70094,0,0,1-2.71544,2.63315,2.63439,2.63439,0,1,1,0-5.2663A2.70094,2.70094,0,0,1,421.61227,212.804Z" transform="translate(-348.30197 -198.08255)"/><path class="cls-8" d="M424.33872,223.23718a14.15036,14.15036,0,0,1-26.6747-.07021Z" transform="translate(-348.30197 -198.08255)"/><path class="cls-6" d="M407.719,229.95668h0a2.32949,2.32949,0,0,1-2.32266-2.32266v-1.16135q.03232-1.14413.06467-2.28827,1.135.007,2.278.00943,1.16684.00243,2.32532,0-.01135,1.13942-.02267,2.27884V227.634A2.32949,2.32949,0,0,1,407.719,229.95668Z" transform="translate(-348.30197 -198.08255)"/><path class="cls-6" d="M414.23473,229.96144h0a2.32949,2.32949,0,0,1-2.32266-2.32266v-1.16135q.03232-1.14413.06467-2.28827,1.135.007,2.278.00943,1.16684.00243,2.32532,0-.01135,1.13942-.02267,2.27884v1.16135A2.32949,2.32949,0,0,1,414.23473,229.96144Z" transform="translate(-348.30197 -198.08255)"/></svg>