<svg id="Layer_1" data-name="Layer 1" xmlns="http://www.w3.org/2000/svg" viewBox="0 0 138.19201 94.15009"><defs><style>.cls-1{fill:#439b45;stroke-width:4px;}.cls-1,.cls-2{stroke:#315027;}.cls-1,.cls-2,.cls-3,.cls-4,.cls-5{stroke-miterlimit:10;}.cls-2{fill:#7ac144;}.cls-2,.cls-3{stroke-width:2px;}.cls-3{fill:#a7cf38;stroke:#325027;}.cls-4,.cls-5{stroke:#000;}.cls-5{fill:none;}</style></defs><title>peas</title><path class="cls-1" d="M494.96,194.86c.05576,2.32062-2.1875,4.04312-4.21,4.37a5.39481,5.39481,0,0,1-3.87024-.97821A71.31189,71.31189,0,0,1,463.83,227c-5.90222,4.30325-18.22052,13.02231-35.87,13.05-18.02695.02826-30.51425-9.028-36.06-13.05a71.95294,71.95294,0,0,1-23.147-28.53348A5.51067,5.51067,0,0,1,364.98,199.23c-1.95676-.35806-4.26581-2.02362-4.21-4.37.0531-2.23074,2.213-3.78436,4.09-4.13a5.44674,5.44674,0,0,1,3.89307.86374A79.275,79.275,0,0,1,392.07,163.97c7.17438-5.30481,19.02924-14.07043,35.8-14.07,16.80872.00043,28.68875,8.80634,35.79,14.07a78.84945,78.84945,0,0,1,23.21979,27.62375A5.53607,5.53607,0,0,1,490.87,190.73C492.70724,191.08417,494.90579,192.60248,494.96,194.86Z" transform="translate(-358.76903 -147.89996)"/><path class="cls-2" d="M482.05722,195.00967a61.81861,61.81861,0,0,1-108.0842,0,62.04906,62.04906,0,0,1,108.0842,0Z" transform="translate(-358.76903 -147.89996)"/><ellipse class="cls-3" cx="69.45817" cy="47.52895" rx="21.26595" ry="21.25377"/><path class="cls-3" d="M416.07132,196.11182c-.27005,11.16556-9.52509,20.71039-21.26593,21.25375a68.23525,68.23525,0,0,1-20.89774-22.33545A76.22893,76.22893,0,0,1,393.667,173.7673C406.27539,173.72409,416.36035,184.16141,416.07132,196.11182Z" transform="translate(-358.76903 -147.89996)"/><path class="cls-3" d="M481.04379,194.359a52.8563,52.8563,0,0,1-20.93713,22.9332c-12.41989-.53314-22.03583-11.05338-21.59476-22.9332a22.468,22.468,0,0,1,21.266-21.25375A53.70087,53.70087,0,0,1,481.04379,194.359Z" transform="translate(-358.76903 -147.89996)"/><path class="cls-4" d="M426.045,191.53464a1.71818,1.71818,0,0,1-1.66039,1.6811,1.68123,1.68123,0,0,1,0-3.36221A1.71818,1.71818,0,0,1,426.045,191.53464Z" transform="translate(-358.76903 -147.89996)"/><path class="cls-4" d="M433.47236,191.71611a1.71818,1.71818,0,0,1-1.66039,1.6811,1.68123,1.68123,0,0,1,0-3.36221A1.71818,1.71818,0,0,1,433.47236,191.71611Z" transform="translate(-358.76903 -147.89996)"/><path class="cls-5" d="M389.17252,191.53406a2.599,2.599,0,0,1,5.18565,0" transform="translate(-358.76903 -147.89996)"/><path class="cls-5" d="M398.71212,191.33831a2.599,2.599,0,0,1,5.18565,0" transform="translate(-358.76903 -147.89996)"/><path class="cls-4" d="M386.91392,197.85455c-.3418.324,1.45045,3.3434,4.42343,4.47661,2.97723,1.13484,6.36228.08217,6.33848-.424a.32831.32831,0,0,0-.14131-.239.64735.64735,0,0,0-.46436.00994,1.13839,1.13839,0,0,0-.32118.11649,7.46349,7.46349,0,0,1-5.21684-.05048,8.4299,8.4299,0,0,1-3.88594-3.401c-.04553-.07946-.085-.1546-.08505-.15464-.05183-.09858-.05349-.11028-.073-.14427a.57357.57357,0,0,0-.2872-.25666A.35389.35389,0,0,0,386.91392,197.85455Z" transform="translate(-358.76903 -147.89996)"/><path class="cls-5" d="M467.16316,189.9361a2.599,2.599,0,0,1-5.18542.04881" transform="translate(-358.76903 -147.89996)"/><path class="cls-5" d="M456.97265,189.80841a2.599,2.599,0,0,1-5.18319.15989" transform="translate(-358.76903 -147.89996)"/><path class="cls-4" d="M453.9951,200.25234c-.19409.42909,2.60592,2.54781,5.78669,2.47406,3.18532-.07385,5.922-2.32718,5.70873-2.78685a.32831.32831,0,0,0-.2211-.16788.64735.64735,0,0,0-.4262.18461,1.13839,1.13839,0,0,0-.25339.22918,7.46349,7.46349,0,0,1-4.84941,1.92385,8.4299,8.4299,0,0,1-4.88274-1.6812c-.07217-.05637-.13713-.111-.13716-.11105-.08523-.0717-.09118-.0819-.12212-.106a.57357.57357,0,0,0-.36287-.12916A.35389.35389,0,0,0,453.9951,200.25234Z" transform="translate(-358.76903 -147.89996)"/><path class="cls-4" d="M429.34532,200.99416a1.25475,1.25475,0,0,1-1.22306,1.21687,1.21689,1.21689,0,1,1,0-2.43375A1.25475,1.25475,0,0,1,429.34532,200.99416Z" transform="translate(-358.76903 -147.89996)"/></svg>