<?xml version="1.0" encoding="utf-8"?>
<!-- Generator: Adobe Illustrator 21.0.2, SVG Export Plug-In . SVG Version: 6.00 Build 0)  -->
<svg version="1.1" id="Layer_1" xmlns="http://www.w3.org/2000/svg" xmlns:xlink="http://www.w3.org/1999/xlink" x="0px" y="0px"
	 viewBox="0 0 841.9 595.3" style="enable-background:new 0 0 841.9 595.3;" xml:space="preserve">
<style type="text/css">
	.st0{fill:#ED1F24;stroke:#A91F23;stroke-width:4;stroke-miterlimit:10;}
	.st1{fill:#FFD44C;stroke:#FFC41C;stroke-miterlimit:10;}
	.st2{fill:#FFFFFF;stroke:#FFFFFF;stroke-miterlimit:10;}
	.st3{stroke:#000000;stroke-miterlimit:10;}
	.st4{stroke:#AF2125;stroke-width:2;stroke-miterlimit:10;}
	.st5{fill:#F27079;stroke:#F27079;stroke-miterlimit:10;}
	.st6{fill:#459B45;stroke:#2C5025;stroke-width:4;stroke-miterlimit:10;}
</style>
<g>
	<path class="st0" d="M465.8,276.4c16.3,25.2-14.5,85.3-45.5,85.1c-30.8-0.2-61-59.5-44.7-84.8c10.2-15.8,37-15.9,45.2-15.9
		C429,260.8,455.7,260.8,465.8,276.4z"/>
	<path class="st1" d="M386.2,278.9c0.5,1.2-0.2,3-1.9,4.2c-1.8-1-2.5-2.8-2-4c0.3-0.7,1.1-1.6,2.1-1.5
		C385.2,277.6,385.9,278.3,386.2,278.9z"/>
	<path class="st1" d="M389.8,292.1c-0.5,1.2,0.2,3,1.9,4.2c1.8-1,2.5-2.8,2-4c-0.3-0.7-1.1-1.6-2.1-1.5
		C390.8,290.8,390.1,291.5,389.8,292.1z"/>
	<path class="st1" d="M445.4,306.4c0.5,1.2-0.2,3-1.9,4.2c-1.8-1-2.5-2.8-2-4c0.3-0.7,1.1-1.6,2.1-1.5
		C444.4,305,445.1,305.7,445.4,306.4z"/>
	<path class="st1" d="M416.6,267.7c-0.5,1.2,0.2,3,1.9,4.2c1.8-1,2.5-2.8,2-4c-0.3-0.7-1.1-1.6-2.1-1.5
		C417.5,266.4,416.9,267.1,416.6,267.7z"/>
	<path class="st1" d="M439.3,294.1c0.5,1.2-0.2,3-1.9,4.2c-1.8-1-2.5-2.8-2-4c0.3-0.7,1.1-1.6,2.1-1.5
		C438.4,292.7,439.1,293.4,439.3,294.1z"/>
	<path class="st1" d="M436.3,282.7c-0.5,1.2,0.2,3,1.9,4.2c1.8-1,2.5-2.8,2-4c-0.3-0.7-1.1-1.6-2.1-1.5
		C437.2,281.3,436.5,282,436.3,282.7z"/>
	<path class="st1" d="M433.1,308.1c0.5,1.2-0.2,3-1.9,4.2c-1.8-1-2.5-2.8-2-4c0.3-0.7,1.1-1.6,2.1-1.5
		C432.1,306.8,432.8,307.5,433.1,308.1z"/>
	<path class="st1" d="M416.8,300.4c-0.5,1.2,0.2,3,1.9,4.2c1.8-1,2.5-2.8,2-4c-0.3-0.7-1.1-1.6-2.1-1.5
		C417.8,299.1,417.1,299.8,416.8,300.4z"/>
	<path class="st1" d="M435.9,272.3c0.5,1.2-0.2,3-1.9,4.2c-1.8-1-2.5-2.8-2-4c0.3-0.7,1.1-1.6,2.1-1.5
		C434.9,271,435.6,271.7,435.9,272.3z"/>
	<path class="st1" d="M400.3,273.9c-0.5,1.2,0.2,3,1.9,4.2c1.8-1,2.5-2.8,2-4c-0.3-0.7-1.1-1.6-2.1-1.5
		C401.3,272.6,400.6,273.3,400.3,273.9z"/>
	<path class="st1" d="M409.5,291.9c0.5,1.2-0.2,3-1.9,4.2c-1.8-1-2.5-2.8-2-4c0.3-0.7,1.1-1.6,2.1-1.5
		C408.6,290.5,409.2,291.2,409.5,291.9z"/>
	<path class="st1" d="M445.3,274.5c-0.5,1.2,0.2,3,1.9,4.2c1.8-1,2.5-2.8,2-4c-0.3-0.7-1.1-1.6-2.1-1.5
		C446.3,273.2,445.6,273.9,445.3,274.5z"/>
	<path class="st1" d="M393.9,329.4c0.5,1.2-0.2,3-1.9,4.2c-1.8-1-2.5-2.8-2-4c0.3-0.7,1.1-1.6,2.1-1.5
		C392.9,328.1,393.6,328.8,393.9,329.4z"/>
	<path class="st1" d="M379,298.1c-0.5,1.2,0.2,3,1.9,4.2c1.8-1,2.5-2.8,2-4c-0.3-0.7-1.1-1.6-2.1-1.5
		C380,296.8,379.3,297.5,379,298.1z"/>
	<path class="st1" d="M431.8,322.8c0.5,1.2-0.2,3-1.9,4.2c-1.8-1-2.5-2.8-2-4c0.3-0.7,1.1-1.6,2.1-1.5
		C430.8,321.5,431.5,322.2,431.8,322.8z"/>
	<path class="st1" d="M439.3,338.2c-0.5,1.2,0.2,3,1.9,4.2c1.8-1,2.5-2.8,2-4c-0.3-0.7-1.1-1.6-2.1-1.5
		C440.2,336.9,439.5,337.6,439.3,338.2z"/>
	<path class="st1" d="M447.5,321.3c0.5,1.2-0.2,3-1.9,4.2c-1.8-1-2.5-2.8-2-4c0.3-0.7,1.1-1.6,2.1-1.5
		C446.6,320,447.3,320.7,447.5,321.3z"/>
	<path class="st1" d="M418.5,281.6c-0.5,1.2,0.2,3,1.9,4.2c1.8-1,2.5-2.8,2-4c-0.3-0.7-1.1-1.6-2.1-1.5
		C419.5,280.2,418.8,280.9,418.5,281.6z"/>
	<path class="st1" d="M421.1,353.8c0.5,1.2-0.2,3-1.9,4.2c-1.8-1-2.5-2.8-2-4c0.3-0.7,1.1-1.6,2.1-1.5
		C420.2,352.5,420.8,353.2,421.1,353.8z"/>
	<path class="st1" d="M402.1,339.7c-0.5,1.2,0.2,3,1.9,4.2c1.8-1,2.5-2.8,2-4c-0.3-0.7-1.1-1.6-2.1-1.5
		C403.1,338.4,402.4,339.1,402.1,339.7z"/>
	<path class="st1" d="M418.7,314.5c0.5,1.2-0.2,3-1.9,4.2c-1.8-1-2.5-2.8-2-4c0.3-0.7,1.1-1.6,2.1-1.5
		C417.8,313.2,418.5,313.9,418.7,314.5z"/>
	<path class="st1" d="M426.7,339.7c-0.5,1.2,0.2,3,1.9,4.2c1.8-1,2.5-2.8,2-4c-0.3-0.7-1.1-1.6-2.1-1.5
		C427.7,338.4,427,339.1,426.7,339.7z"/>
	<path class="st1" d="M462,283.3c0.5,1.2-0.2,3-1.9,4.2c-1.8-1-2.5-2.8-2-4c0.3-0.7,1.1-1.6,2.1-1.5
		C461.1,282,461.7,282.7,462,283.3z"/>
	<path class="st1" d="M412.7,335.6c-0.5,1.2,0.2,3,1.9,4.2c1.8-1,2.5-2.8,2-4c-0.3-0.7-1.1-1.6-2.1-1.5
		C413.7,334.2,413,334.9,412.7,335.6z"/>
	<path class="st1" d="M460.3,305.5c0.5,1.2-0.2,3-1.9,4.2c-1.8-1-2.5-2.8-2-4c0.3-0.7,1.1-1.6,2.1-1.5
		C459.3,304.1,460,304.9,460.3,305.5z"/>
	<path class="st1" d="M382.8,314.3c-0.5,1.2,0.2,3,1.9,4.2c1.8-1,2.5-2.8,2-4c-0.3-0.7-1.1-1.6-2.1-1.5
		C383.8,313,383.1,313.7,382.8,314.3z"/>
	<path class="st1" d="M453.4,294.5c0.5,1.2-0.2,3-1.9,4.2c-1.8-1-2.5-2.8-2-4c0.3-0.7,1.1-1.6,2.1-1.5
		C452.4,293.2,453.1,293.9,453.4,294.5z"/>
	<path class="st1" d="M401.5,320.2c-0.5,1.2,0.2,3,1.9,4.2c1.8-1,2.5-2.8,2-4c-0.3-0.7-1.1-1.6-2.1-1.5
		C402.4,318.9,401.7,319.6,401.5,320.2z"/>
	<path class="st1" d="M399.1,305.7c0.5,1.2-0.2,3-1.9,4.2c-1.8-1-2.5-2.8-2-4c0.3-0.7,1.1-1.6,2.1-1.5
		C398.2,304.4,398.9,305.1,399.1,305.7z"/>
	<ellipse class="st2" cx="436" cy="293.6" rx="6.3" ry="6.3"/>
	<ellipse class="st2" cx="406.7" cy="294.3" rx="6.3" ry="6.3"/>
	<path class="st3" d="M401.7,294.3c0.2,0,2.3-0.2,3.8,1.5c1.3,1.5,1,3.3,1,3.6c0.4,0,2.1-0.2,3.4-1.7c1.3-1.4,1.4-3,1.4-3.4
		c-0.1,0-2.3,0.4-3.8-1.3c-1.4-1.6-1-3.5-1-3.7c-0.5,0.1-2.1,0.5-3.4,2C402,292.5,401.8,293.8,401.7,294.3z"/>
	<path class="st3" d="M431,293.9c0.2,0,2.3-0.2,3.8,1.5c1.3,1.5,1,3.3,1,3.6c0.4,0,2.1-0.2,3.4-1.7c1.3-1.4,1.4-3,1.4-3.4
		c-0.1,0-2.3,0.4-3.8-1.3c-1.4-1.6-1-3.5-1-3.7c-0.5,0.1-2.1,0.5-3.4,2C431.3,292.1,431.1,293.4,431,293.9z"/>
	<path class="st4" d="M433.2,317.6c-0.5,5.6-4.4,10.2-9.7,11.6c-5.2,1.3-10.8-0.8-13.8-5.4C417.5,321.8,425.3,319.7,433.2,317.6z"/>
	<path class="st5" d="M427.9,324.5c-0.8,0.7-2.2,1.8-4.4,2.5c-1.9,0.6-3.6,0.5-4.6,0.4c0.1-2.1,1.4-4,3.3-4.7
		C424.2,322,426.6,322.7,427.9,324.5z"/>
	<path class="st6" d="M385.9,249.7c-0.7-0.2-7.3-1.7-12.5,2.9c-0.5,0.4-4.7,4.1-4.7,9.3c0,8.5,11,17.6,20.6,14.9
		c7.8-2.2,10.7-11.2,10.9-12.1c0.8,1.2,4.5,6.4,11.1,7.4c7,1.1,14.4-2.9,18.2-10.1c0.7,1.7,3.6,8.3,10.7,11.1
		c1.1,0.4,9.7,3.8,14.4-1.1c2.6-2.7,2.6-6.6,2.5-8c6.2,0.1,10.1-4.2,9.8-7.2c-0.3-2.5-3.6-5-7.9-5.4c4.2-4.4,4.7-10.6,2.2-14
		c-3.1-4.1-11.4-4.8-16.8,1.1c-1.5-1.4-6.5-5.6-13.8-5.8c-8-0.1-15.5,4.7-19.6,12.4c-4-8.5-10.9-12.9-15.7-11.5
		c-4,1.2-6.5,6.5-7.3,8.3C386.5,245,386.1,247.8,385.9,249.7z"/>
</g>
</svg>
