<svg id="Layer_1" data-name="Layer 1" xmlns="http://www.w3.org/2000/svg" viewBox="0 0 136.91302 133.00563"><defs><style>.cls-1{fill:#fcee21;}.cls-1,.cls-2{stroke:#6a2e12;}.cls-1,.cls-2,.cls-3,.cls-4,.cls-5,.cls-6,.cls-7{stroke-miterlimit:10;}.cls-1,.cls-2,.cls-3,.cls-4{stroke-width:4px;}.cls-2,.cls-3{fill:none;}.cls-3{stroke:#6a2f14;}.cls-4{fill:#439b45;stroke:#2f5027;}.cls-5{fill:#fff;stroke:#fff;}.cls-6{stroke:#000;}.cls-7{stroke:#9d8730;stroke-width:2px;}</style></defs><title>sweetcorn</title><path class="cls-1" d="M420.72822,204.078q-15.26831,15.47572-30.52817,30.96023-15.26831-15.489-30.52811-30.96023c-.09413-6.04642.23091-29.76151,17.21855-46.347a51.20189,51.20189,0,0,1,13.30956-9.34934,51.37271,51.37271,0,0,1,13.31812,9.34934C420.4973,174.31644,420.82235,198.03153,420.72822,204.078Z" transform="translate(-321.78381 -146.15522)"/><line class="cls-2" x1="57.86309" y1="8.6346" x2="87.93307" y2="18.96088"/><line class="cls-2" x1="79.24778" y1="8.52398" x2="49.15532" y2="18.98761"/><line class="cls-2" x1="49.65212" y1="16.52732" x2="95.27694" y2="35.43292"/><line class="cls-2" x1="85.72388" y1="16.94808" x2="40.64167" y2="35.92111"/><line class="cls-2" x1="41.99505" y1="32.62441" x2="98.66425" y2="51.06243"/><line class="cls-2" x1="94.88223" y1="32.22855" x2="37.33913" y2="51.20399"/><line class="cls-2" x1="38.98089" y1="48.05044" x2="91.66499" y2="65.66746"/><line class="cls-2" x1="98.31709" y1="48.02515" x2="45.67574" y2="65.71583"/><line class="cls-3" x1="46.71452" y1="65.43498" x2="72.3711" y2="86.1899"/><line class="cls-3" x1="91.99912" y1="64.8285" x2="63.89841" y2="86.45997"/><path class="cls-4" d="M338.78181,192.35949c21.05927-.40468,34.95709,14.37747,36.66571,16.25386a51.18618,51.18618,0,0,1,12.8519,29.86176l-.05008,38.3605c-12.46774-1.88824-18.7901-6.74336-22.25174-10.76672-5.4884-6.379-7.43631-15.24284-11.33217-32.97049-2.65387-12.07614-2.663-16.36671-7.02919-19.916-4.7654-3.87386-9.44211-2.57344-15.49026-7.41969a26.08,26.08,0,0,1-7.728-10.7572A45.5495,45.5495,0,0,1,338.78181,192.35949Z" transform="translate(-321.78381 -146.15522)"/><path class="cls-4" d="M392.18121,238.4751l.05008,38.3605c12.46774-1.88824,18.7901-6.74336,22.25174-10.76672,5.4884-6.379,7.43631-15.24284,11.33218-32.97049,2.65387-12.07614,2.663-16.36671,7.02917-19.916,4.76541-3.87386,9.44211-2.57344,15.49026-7.41969a26.08008,26.08008,0,0,0,7.72806-10.7572,45.54952,45.54952,0,0,0-14.36389-2.646c-21.05927-.40466-34.95709,14.37749-36.66571,16.25386A51.18618,51.18618,0,0,0,392.18121,238.4751Z" transform="translate(-321.78381 -146.15522)"/><ellipse class="cls-5" cx="79.23845" cy="33.13291" rx="6.93855" ry="6.79598"/><ellipse class="cls-5" cx="58.11599" cy="33.5008" rx="6.93855" ry="6.79598"/><path class="cls-6" d="M395.901,179.40369a5.383,5.383,0,0,0,5.23059,5.43982,5.32847,5.32847,0,0,0,5.23059-5.43982,4.83342,4.83342,0,0,1-4.16925-1.44339,4.77273,4.77273,0,0,1-1.06134-3.99641A5.52718,5.52718,0,0,0,395.901,179.40369Z" transform="translate(-321.78381 -146.15522)"/><path class="cls-6" d="M374.55988,179.66225a5.383,5.383,0,0,0,5.23059,5.43982,5.32847,5.32847,0,0,0,5.23059-5.43982,4.83342,4.83342,0,0,1-4.16925-1.44339,4.77273,4.77273,0,0,1-1.06134-3.99641A5.52718,5.52718,0,0,0,374.55988,179.66225Z" transform="translate(-321.78381 -146.15522)"/><path class="cls-7" d="M403.61439,197.49464a14.15036,14.15036,0,0,1-26.6747-.07021Z" transform="translate(-321.78381 -146.15522)"/></svg>