<svg id="Layer_1" data-name="Layer 1" xmlns="http://www.w3.org/2000/svg" viewBox="0 0 76.50943 140.92821"><defs><style>.cls-1{fill:#439b45;stroke:#2f5027;}.cls-1,.cls-2,.cls-3,.cls-4,.cls-5,.cls-6{stroke-miterlimit:10;}.cls-1,.cls-2,.cls-3{stroke-width:4px;}.cls-2{fill:#a74f9e;stroke:#8d278e;}.cls-3{fill:#fef9cc;stroke:#f8eb8e;}.cls-4,.cls-7{fill:#fff;}.cls-4{stroke:#fff;}.cls-5{stroke:#000;}.cls-6{stroke:#8d288c;stroke-width:2px;}</style></defs><title>turnip</title><path class="cls-1" d="M399.11019,236.72268c-.29949,1.062-2.94437,11.11243,3.85378,19.90187,6.88632,8.90342,17.46586,8.76018,18.52817,8.72712.29406-1.12883,2.71746-11.14666-4.13475-19.8806C410.53457,236.7746,400.28871,236.70958,399.11019,236.72268Z" transform="translate(-382.45796 -226.65707)"/><path class="cls-1" d="M444.39088,236.72268c.29949,1.062,2.94437,11.11243-3.85378,19.90187-6.88632,8.90342-17.46586,8.76018-18.52817,8.72712-.29406-1.12883-2.71746-11.14666,4.13475-19.8806C432.9665,236.7746,443.21237,236.70958,444.39088,236.72268Z" transform="translate(-382.45796 -226.65707)"/><path class="cls-1" d="M421.28806,229.155c.8834.66118,9.0932,7.03343,9.0386,18.145-.05531,11.25563-8.54261,17.5733-9.40619,18.19283-.91971-.71754-8.93384-7.19855-8.80258-18.29888C412.2486,236.14122,420.34435,229.861,421.28806,229.155Z" transform="translate(-382.45796 -226.65707)"/><path class="cls-2" d="M447.46,330.83a37.80591,37.80591,0,0,1-13.59,8.57c-4.44,1.11-7.38,1.04-10.03,3.55a10.43244,10.43244,0,0,0-2.87006,5.29c-.1.41-.17.82-.24,1.22-.06-.4-.14-.81-.23-1.21a10.5373,10.5373,0,0,0-2.87-5.3c-2.65-2.51-5.59-2.44-10.04-3.55a37.81627,37.81627,0,0,1-13.58-8.57c-10.94-10.48-9.58-25.24-9.41-27.39,1.29-16.17,14.93005-35.5,35.9-35.63,21.21-.13,35.13,19.45,36.37,35.63C457.77,315.09,452.26,326.23,447.46,330.83Z" transform="translate(-382.45796 -226.65707)"/><path class="cls-3" d="M386.1319,318.01715c10.663-3.45868,17.28149-2.022,21.41.045,6.671,3.34,8.12787,8.968,13.41168,8.99466,5.3299.02695,6.83478-5.67059,13.73291-8.91434,4.178-1.96463,10.52155-3.11609,20.21173.01544a31.16993,31.16993,0,0,1-5.6698,10.77338c-1.31219,1.60706-6.51593,7.98-15.151,10.45374-4.52545,1.29645-6.83514.76566-9.48663,3.1315-2.58948,2.31052-3.4588,5.62286-3.77844,8.14658-.27753-2.49133-1.08539-5.7778-3.6203-8.03464-2.772-2.46787-5.26416-1.53238-9.96063-2.84329-10.23151-2.8559-16.04224-11.32275-17.31708-13.29282A30.49109,30.49109,0,0,1,386.1319,318.01715Z" transform="translate(-382.45796 -226.65707)"/><ellipse class="cls-4" cx="47.99905" cy="63.50876" rx="6.93855" ry="6.79598"/><ellipse class="cls-4" cx="28.52562" cy="63.70349" rx="6.93855" ry="6.79598"/><path class="cls-5" d="M435.87255,290.13313a5.32847,5.32847,0,0,1-5.23059,5.4398,5.383,5.383,0,0,1-5.23059-5.4398,5.52718,5.52718,0,0,1,5.23059-5.43982,4.39476,4.39476,0,0,0,1.18256,4.38463A4.61716,4.61716,0,0,0,435.87255,290.13313Z" transform="translate(-382.45796 -226.65707)"/><path class="cls-5" d="M416.20439,290.5226a5.32847,5.32847,0,0,1-5.23059,5.4398,5.383,5.383,0,0,1-5.23059-5.4398,5.52718,5.52718,0,0,1,5.23059-5.43982,4.39476,4.39476,0,0,0,1.18256,4.38463A4.61716,4.61716,0,0,0,416.20439,290.5226Z" transform="translate(-382.45796 -226.65707)"/><path class="cls-6" d="M433.81835,306.20506a14.15036,14.15036,0,0,1-26.6747-.07021Z" transform="translate(-382.45796 -226.65707)"/><path class="cls-7" d="M410.63136,307.14883a5.79369,5.79369,0,0,0,1.14044,3.20374c1.64984,2.10352,4.50085,2.1452,8.41864,2.20251,4.10712.06006,7.36633.10773,9.117-2.17718a5.72408,5.72408,0,0,0,1.08862-3.18414Q420.51368,307.17127,410.63136,307.14883Z" transform="translate(-382.45796 -226.65707)"/></svg>