<svg id="Layer_1" data-name="Layer 1" xmlns="http://www.w3.org/2000/svg" viewBox="0 0 124.25211 62.85705"><defs><style>.cls-1{fill:#ea2160;stroke:#ea2160;}.cls-1,.cls-2,.cls-3,.cls-4,.cls-5,.cls-6{stroke-miterlimit:10;}.cls-1,.cls-2,.cls-3{stroke-width:4px;}.cls-2,.cls-3{fill:none;}.cls-2{stroke:#439b46;}.cls-3{stroke:#2f5027;}.cls-4{fill:#702325;stroke:#5e1a19;}.cls-5{fill:#fff;stroke:#fff;}.cls-6{stroke:#000;}</style></defs><title>watermelon</title><path class="cls-1" d="M431.05222,137.89619c.00037,27.91145-23.53716,50.87926-52.14126,50.87926s-52.14164-22.9678-52.14126-50.87926Z" transform="translate(-316.79874 -135.85835)"/><path class="cls-2" d="M322.7986,135.89063c-.21735,30.93787,24.88008,56.46,55.34309,56.88251,31.04147.4306,57.12018-25.34674,56.90784-56.87692" transform="translate(-316.79874 -135.85835)"/><path class="cls-3" d="M318.799,135.86374c-.089,33.01151,26.5553,60.15134,58.83736,60.83835,33.1927.70636,61.43649-26.78577,61.41452-60.74011" transform="translate(-316.79874 -135.85835)"/><path class="cls-4" d="M416.83471,147.63064c-1.43434.04649-2.94619-1.36748-3.4336-3.57124,1.71183-1.40822,3.79194-1.50182,4.859-.53348a2.54534,2.54534,0,0,1,.70157,2.75221A2.45076,2.45076,0,0,1,416.83471,147.63064Z" transform="translate(-316.79874 -135.85835)"/><path class="cls-4" d="M376.68631,182.835c-.554-1.32386.22929-3.24,2.11525-4.47985,1.92529,1.0985,2.75313,3.00907,2.228,4.35087a2.54534,2.54534,0,0,1-2.32227,1.63522A2.45076,2.45076,0,0,1,376.68631,182.835Z" transform="translate(-316.79874 -135.85835)"/><path class="cls-4" d="M392.05938,180.63436c-1.03085-.99842-1.06608-3.06815.17865-4.9509,2.20238.25088,3.71615,1.68061,3.76229,3.12077a2.54534,2.54534,0,0,1-1.48993,2.41805A2.45075,2.45075,0,0,1,392.05938,180.63436Z" transform="translate(-316.79874 -135.85835)"/><path class="cls-4" d="M403.02408,175.37167c-1.27483-.659-1.905-2.6308-1.25558-4.79238,2.18125-.39439,4.04281.53847,4.502,1.90425a2.54534,2.54534,0,0,1-.72995,2.74482A2.45076,2.45076,0,0,1,403.02408,175.37167Z" transform="translate(-316.79874 -135.85835)"/><path class="cls-4" d="M412.33614,166.5c-1.35545-.47143-2.259-2.33383-1.923-4.56568,2.10321-.7,4.07831-.04072,4.72666,1.24607a2.54534,2.54534,0,0,1-.333,2.82063A2.45076,2.45076,0,0,1,412.33614,166.5Z" transform="translate(-316.79874 -135.85835)"/><path class="cls-4" d="M419.7873,155.95337c-1.4245-.174-2.70162-1.80313-2.84531-4.05556,1.90754-1.129,3.97739-.90253,4.88329.218a2.54534,2.54534,0,0,1,.2712,2.82725A2.45076,2.45076,0,0,1,419.7873,155.95337Z" transform="translate(-316.79874 -135.85835)"/><path class="cls-4" d="M425.83711,144.335c-1.36867.43154-3.2058-.52239-4.2694-2.51309,1.26869-1.81765,3.24651-2.46868,4.53511-1.82394a2.54534,2.54534,0,0,1,1.41771,2.46109A2.45076,2.45076,0,0,1,425.83711,144.335Z" transform="translate(-316.79874 -135.85835)"/><path class="cls-4" d="M365.7747,180.63436c1.03085-.99842,1.06608-3.06815-.17865-4.9509-2.20238.25088-3.71615,1.68061-3.76229,3.12077a2.54534,2.54534,0,0,0,1.48993,2.41805A2.45075,2.45075,0,0,0,365.7747,180.63436Z" transform="translate(-316.79874 -135.85835)"/><path class="cls-4" d="M354.81,175.37167c1.27483-.659,1.905-2.6308,1.25558-4.79238-2.18125-.39439-4.04281.53847-4.502,1.90425a2.54534,2.54534,0,0,0,.72995,2.74482A2.45076,2.45076,0,0,0,354.81,175.37167Z" transform="translate(-316.79874 -135.85835)"/><path class="cls-4" d="M345.49794,166.5c1.35545-.47143,2.259-2.33383,1.923-4.56568-2.10321-.7-4.07831-.04072-4.72666,1.24607a2.54534,2.54534,0,0,0,.333,2.82063A2.45076,2.45076,0,0,0,345.49794,166.5Z" transform="translate(-316.79874 -135.85835)"/><path class="cls-4" d="M338.04678,155.95337c1.4245-.174,2.70162-1.80313,2.84531-4.05556-1.90754-1.129-3.97739-.90253-4.88329.218a2.54534,2.54534,0,0,0-.2712,2.82725A2.45076,2.45076,0,0,0,338.04678,155.95337Z" transform="translate(-316.79874 -135.85835)"/><path class="cls-4" d="M331.997,144.335c1.36867.43154,3.2058-.52239,4.2694-2.51309-1.26869-1.81765-3.24651-2.46868-4.53511-1.82394a2.54534,2.54534,0,0,0-1.41771,2.46109A2.45076,2.45076,0,0,0,331.997,144.335Z" transform="translate(-316.79874 -135.85835)"/><path class="cls-4" d="M394.77156,173.05725c-1.25886-.689-1.84213-2.67519-1.14172-4.82077,2.19-.34262,4.02892.63408,4.45561,2.01035a2.54534,2.54534,0,0,1-.79476,2.72676A2.45075,2.45075,0,0,1,394.77156,173.05725Z" transform="translate(-316.79874 -135.85835)"/><path class="cls-4" d="M403.52822,166.56213c-1.37541-.40957-2.36241-2.22915-2.12775-4.47393,2.06935-.79448,4.07228-.22534,4.77823,1.03077a2.54534,2.54534,0,0,1-.205,2.83282A2.45076,2.45076,0,0,1,403.52822,166.56213Z" transform="translate(-316.79874 -135.85835)"/><path class="cls-4" d="M411.19655,157.9161c-1.41642-.23076-2.62748-1.90956-2.68111-4.16593,1.95109-1.052,4.01026-.743,4.87069.41278a2.54534,2.54534,0,0,1,.1581,2.83582A2.45076,2.45076,0,0,1,411.19655,157.9161Z" transform="translate(-316.79874 -135.85835)"/><path class="cls-4" d="M383.68263,177.79641c-.86146-1.14777-.57156-3.1974.95311-4.86158,2.13575.59327,3.4065,2.24277,3.22614,3.67234a2.54534,2.54534,0,0,1-1.85081,2.15438A2.45076,2.45076,0,0,1,383.68263,177.79641Z" transform="translate(-316.79874 -135.85835)"/><path class="cls-4" d="M341.49753,147.63064c1.43434.04649,2.94619-1.36748,3.4336-3.57124-1.71183-1.40822-3.79194-1.50182-4.859-.53348a2.54534,2.54534,0,0,0-.70157,2.75221A2.45076,2.45076,0,0,0,341.49753,147.63064Z" transform="translate(-316.79874 -135.85835)"/><path class="cls-4" d="M363.56067,173.05725c1.25886-.689,1.84212-2.67519,1.14172-4.82077-2.19-.34262-4.02892.63408-4.45561,2.01035a2.54534,2.54534,0,0,0,.79476,2.72676A2.45076,2.45076,0,0,0,363.56067,173.05725Z" transform="translate(-316.79874 -135.85835)"/><path class="cls-4" d="M354.804,166.56213c1.37541-.40957,2.36241-2.22915,2.12775-4.47393-2.06935-.79448-4.07228-.22534-4.77823,1.03077a2.54534,2.54534,0,0,0,.205,2.83282A2.45076,2.45076,0,0,0,354.804,166.56213Z" transform="translate(-316.79874 -135.85835)"/><path class="cls-4" d="M347.13568,157.9161c1.41642-.23076,2.62748-1.90956,2.68111-4.16593-1.95109-1.052-4.01026-.743-4.87069.41278a2.54534,2.54534,0,0,0-.1581,2.83582A2.45076,2.45076,0,0,0,347.13568,157.9161Z" transform="translate(-316.79874 -135.85835)"/><path class="cls-4" d="M374.6496,177.79641c.86146-1.14777.57156-3.1974-.95311-4.86158-2.13575.59327-3.4065,2.24277-3.22614,3.67234a2.54534,2.54534,0,0,0,1.85081,2.15438A2.45075,2.45075,0,0,0,374.6496,177.79641Z" transform="translate(-316.79874 -135.85835)"/><path class="cls-5" d="M364.78082,146.39116a5.3946,5.3946,0,0,0,5.23059,5.43982,5.444,5.444,0,0,0,0-10.87962A5.39458,5.39458,0,0,0,364.78082,146.39116Z" transform="translate(-316.79874 -135.85835)"/><path class="cls-5" d="M381.5888,146.23922a5.3946,5.3946,0,0,0,5.23059,5.43982,5.444,5.444,0,0,0,0-10.87962A5.39458,5.39458,0,0,0,381.5888,146.23922Z" transform="translate(-316.79874 -135.85835)"/><path class="cls-6" d="M389.54091,146.05081a2.70094,2.70094,0,0,1-2.71544,2.63315,2.63439,2.63439,0,1,1,0-5.2663A2.70094,2.70094,0,0,1,389.54091,146.05081Z" transform="translate(-316.79874 -135.85835)"/><path class="cls-6" d="M372.83012,146.05032a2.75221,2.75221,0,0,1-2.71542,2.63315,2.63439,2.63439,0,1,1,0-5.2663A2.75221,2.75221,0,0,1,372.83012,146.05032Z" transform="translate(-316.79874 -135.85835)"/><path class="cls-6" d="M368.37486,156.81113c-.36159.90131,4.3582,5.62857,9.86806,5.70554,5.51773.07709,10.38908-4.52954,10.04749-5.52612a.62549.62549,0,0,0-.37267-.37451c-.246-.05655-.50777.15909-.74872.36252a2.1446,2.1446,0,0,0-.45227.47037,11.76308,11.76308,0,0,1-8.50856,3.74792,12.92214,12.92214,0,0,1-8.35083-3.94711c-.12155-.12561-.23071-.247-.23077-.24707-.14323-.15927-.15292-.18149-.205-.23517-.03282-.03381-.33382-.3371-.62036-.30234A.63326.63326,0,0,0,368.37486,156.81113Z" transform="translate(-316.79874 -135.85835)"/></svg>