<?xml version="1.0" encoding="utf-8"?>
<!-- Generator: Adobe Illustrator 21.0.2, SVG Export Plug-In . SVG Version: 6.00 Build 0)  -->
<svg version="1.1" id="Layer_1" xmlns="http://www.w3.org/2000/svg" xmlns:xlink="http://www.w3.org/1999/xlink" x="0px" y="0px"
	 viewBox="0 0 841.9 1275.6" style="enable-background:new 0 0 841.9 1275.6;" xml:space="preserve">
<style type="text/css">
	.st0{fill:url(#SVGID_1_);stroke:#78CFE1;stroke-miterlimit:10;}
	.st1{opacity:0.74;fill:url(#SVGID_2_);stroke:url(#SVGID_3_);stroke-width:4;stroke-miterlimit:10;}
	.st2{fill:#A9DEE9;stroke:#78CFE1;stroke-width:4;stroke-miterlimit:10;}
	.st3{fill:none;stroke:#080B0C;stroke-width:4;stroke-miterlimit:10;}
	.st4{fill:#EC2427;stroke:#A91F24;stroke-width:2;stroke-miterlimit:10;}
	.st5{fill:#E92461;stroke:#CE1D5A;stroke-width:2;stroke-miterlimit:10;}
	.st6{fill:#9C1C46;stroke:#5E082F;stroke-width:2;stroke-miterlimit:10;}
	.st7{fill:#FFF18D;stroke:#FEE600;stroke-width:2;stroke-miterlimit:10;}
	.st8{fill:#469B45;stroke:#2D5126;stroke-width:2;stroke-miterlimit:10;}
	.st9{fill:#010101;stroke:#010101;stroke-miterlimit:10;}
	.st10{fill:#FBF6B1;stroke:#F6EB16;stroke-width:2;stroke-miterlimit:10;}
	.st11{fill:#5CA645;stroke:#5CA645;stroke-miterlimit:10;}
	.st12{fill:none;stroke:#3D5C2B;stroke-width:2;stroke-miterlimit:10;}
	.st13{fill:#FEE600;stroke:#010101;stroke-width:2;stroke-miterlimit:10;}
	.st14{fill:#5CA645;stroke:#3D5C2B;stroke-width:2;stroke-miterlimit:10;}
	.st15{fill:#F15E22;stroke:#964F22;stroke-width:4;stroke-miterlimit:10;}
	.st16{fill:#3F5CAA;stroke:#2B2F80;stroke-width:4;stroke-miterlimit:10;}
	.st17{fill:none;stroke:#964F22;stroke-width:4;stroke-miterlimit:10;}
	.st18{fill:none;stroke:#2B2F80;stroke-width:4;stroke-miterlimit:10;}
</style>
<g id="Layer_1_1_">
	
		<linearGradient id="SVGID_1_" gradientUnits="userSpaceOnUse" x1="-215.3589" y1="640.2539" x2="1059.9629" y2="640.2539" gradientTransform="matrix(0 -1 -1 0 1060.3539 1060.5992)">
		<stop  offset="0" style="stop-color:#FFFFFF"/>
		<stop  offset="1" style="stop-color:#40C4DC"/>
	</linearGradient>
	<path class="st0" d="M-0.7,0.6h841.6V1276H-0.7c0-199.8,0-399.5,0-599.3C-0.7,451.3-0.7,226-0.7,0.6z"/>
	
		<radialGradient id="SVGID_2_" cx="484.541" cy="317.6892" r="128.799" gradientTransform="matrix(1 0 0 0.9754 0 1.565567e-02)" gradientUnits="userSpaceOnUse">
		<stop  offset="0" style="stop-color:#F1EA2F"/>
		<stop  offset="1" style="stop-color:#FFD12D"/>
	</radialGradient>
	
		<radialGradient id="SVGID_3_" cx="484.541" cy="317.6892" r="130.799" gradientTransform="matrix(1 0 0 0.9754 0 1.565567e-02)" gradientUnits="userSpaceOnUse">
		<stop  offset="0" style="stop-color:#F1EA2F"/>
		<stop  offset="1" style="stop-color:#FFD12D"/>
	</radialGradient>
	<ellipse class="st1" cx="484.5" cy="309.9" rx="129" ry="125.5"/>
	<path class="st2" d="M-1,2.7c21.3-2.7,58.7-4.5,101,10c23.2,7.9,41.3,18.5,54.4,27.7c39.8-35,94.4-30,116.8-2.2
		c15.2,18.8,15.7,48.1,3.4,74.1c3.2-0.8,29.1-6.5,46.5,8.9c20,17.7,15.7,51.7,2.3,67.5c-19.3,22.6-70.7,23.5-119.1-11
		c-4.4,2.1-50.8,23.8-91.9,0c-16.3-9.5-25.7-22.5-30.6-31c-4.7,5-19.3,19-43.1,23.2C20.5,173,5.8,168.9-1,166.5"/>
	<path class="st2" d="M840.5,81.9c-13.1-9.8-52.7-36.8-108.9-36.1c-84.4,1.1-134.4,63.9-140.6,71.9c-5.1-4-39.5-30.2-82.8-21
		c-32.2,6.9-71.3,33.8-70.3,70.8c0.7,24.5,19,53.2,47.6,58.6c20.3,3.8,37.2-5.7,42.6-9c1.3,2.9,22.7,49.1,73.1,56.6
		c39.4,5.9,79.8-14.4,99.8-50.9c4.4,30.7,25.1,57,54.4,68.6c44.2,17.6,82.6-8.2,85.1-10"/>
	<path class="st2" d="M265.2,253.1c-32.6-27.4-80.9-20.7-102.2,9.3c-21.5,30.1-5.8,73.7,23.2,93.6c31,21.2,77.6,15.4,105.8-16.5
		c5.8,5.9,31.1,29.9,71.2,31.9c6.4,0.3,49.2,2.3,73.8-25.7c31.4-35.8,21.2-107.6-25.9-136.7C366.2,181.2,296.7,197.5,265.2,253.1z"
		/>
</g>
<g id="Layer_2">
	<path class="st3" d="M1.3,82.9C87.9,131.6,224.1,197.4,403,242c182,45.4,336.3,51.2,437,48.6"/>
	<path class="st4" d="M21.9,97.3c-0.7,22-1.4,44.1-2.1,66.1c22.4-10.9,44.7-21.7,67.1-32.6C65.3,119.5,43.5,108.4,21.9,97.3z"/>
	<path class="st5" d="M367.5,234.8c7,21.9,14.2,43.8,21.3,65.7c17-15.9,34-31.8,50.9-47.8C415.6,246.8,391.6,240.9,367.5,234.8z"/>
	<path class="st6" d="M278,207.5c5.3,22.1,10.6,44.2,15.9,66.3c18.4-14.9,36.7-29.7,55.2-44.5C325.4,222,301.7,214.8,278,207.5z"/>
	<path class="st7" d="M188.1,175.2c3.4,22.2,6.7,44.4,10.1,66.6c19.8-13.6,39.5-27.2,59.3-40.9C234.5,192.4,211.3,183.8,188.1,175.2
		z"/>
	<path class="st8" d="M103.6,138.4c1.3,22.2,2.7,44.3,4,66.5c21.2-12.2,42.2-24.6,63.4-36.9C148.5,158.2,126,148.3,103.6,138.4z"/>
	<path class="st4" d="M810.9,292.7c-10.1,19.7-20.3,39.4-30.5,59c-14.4-20-28.6-39.9-43-59.8C762,292.1,786.4,292.5,810.9,292.7z"/>
	<path class="st6" d="M532,270.4c-15.5,16.9-30.9,33.9-46.4,50.9c-8.9-21.6-17.8-43.2-26.7-64.8C483.2,261.2,507.5,265.8,532,270.4z
		"/>
	<path class="st7" d="M626.8,283.8c-13.8,17.9-27.6,35.9-41.4,53.8c-10.8-21.2-21.4-42.3-32.1-63.5
		C577.7,277.4,602.2,280.6,626.8,283.8z"/>
	<path class="st8" d="M719,290.9c-12,18.9-24.1,37.7-36.1,56.6c-12.6-20.6-25.1-41.3-37.7-61.9C669.9,287.4,694.4,289.1,719,290.9z"
		/>
	<path class="st9" d="M-0.2,85.6c1.8,0.3,3.4-0.6,3.8-2s-0.7-3-2.4-3.5C0.8,81.9,0.3,83.8-0.2,85.6z"/>
	<path class="st9" d="M841.8,288.4c-1.8-0.3-3.5,0.7-3.8,2.1c-0.4,1.4,0.7,3,2.5,3.5C840.9,292.2,841.4,290.3,841.8,288.4z"/>
</g>
<g id="Layer_2_1_">
	<path class="st3" d="M-1,407.9c99.9,2.9,251.9-2,431.1-45.2c182.3-44,321.1-110.1,408.5-158.8"/>
	<path class="st4" d="M24.1,411c10,19.7,20.2,39.4,30.2,59.2c14.5-19.9,28.8-39.8,43.3-59.6C73.1,410.6,48.6,410.9,24.1,411z"/>
	<path class="st5" d="M395.3,372.7c16.8,16.1,33.8,32,50.6,48.1c7.3-21.8,14.5-43.7,21.7-65.6C443.5,361.1,419.5,366.9,395.3,372.7z
		"/>
	<path class="st6" d="M303.2,390c15.4,17,30.8,34,46.2,51.1c9-21.6,18-43.1,27-64.7C352,380.9,327.7,385.5,303.2,390z"/>
	<path class="st7" d="M208.3,402.9c13.7,18,27.5,36,41.2,54c10.9-21.1,21.6-42.2,32.4-63.4C257.5,396.7,232.9,399.8,208.3,402.9z"/>
	<path class="st8" d="M116.1,409.6c12,18.9,23.9,37.8,35.8,56.7c12.7-20.6,25.3-41.2,38-61.7C165.2,406.3,140.6,407.9,116.1,409.6z"
		/>
	<path class="st4" d="M814,219c0.6,22,1.2,44.1,1.8,66.1c-22.3-10.9-44.6-21.9-66.9-32.9C770.6,241.1,792.3,230.1,814,219z"/>
	<path class="st6" d="M557.5,328.2c-5.4,22.1-10.8,44.1-16.2,66.3c-18.4-14.9-36.6-29.8-55-44.8C510,342.5,533.7,335.4,557.5,328.2z
		"/>
	<path class="st7" d="M647.5,296.2c-3.5,22.2-6.9,44.4-10.4,66.5c-19.7-13.7-39.4-27.4-59.1-41.1
		C601.1,313.2,624.3,304.7,647.5,296.2z"/>
	<path class="st8" d="M732.2,259.8c-1.4,22.2-2.9,44.3-4.4,66.5c-21.1-12.3-42.1-24.8-63.2-37.1
		C687.2,279.4,709.6,269.6,732.2,259.8z"/>
	<path class="st9" d="M-1,411c1.8-0.6,2.8-2.1,2.4-3.5s-2.1-2.3-3.8-2C-1.9,407.3-1.5,409.1-1,411z"/>
	<path class="st9" d="M839.1,201c-1.8,0.6-2.7,2.2-2.4,3.6s2.1,2.3,3.9,1.9C840.2,204.7,839.7,202.9,839.1,201z"/>
</g>
<path class="st2" d="M840.1,399.6c-3.7-2.9-33.5-25.6-71.6-16.9c-31.6,7.2-56.4,33.2-63,66c-6.5-13.9-22.6-42.1-55.1-56.8
	c-56.3-25.4-130.9,3.9-157.5,55c-11.4,21.8-11.8,43.3-10.9,56.3c-5.2-6.3-33.4-39.4-81.3-43.1c-11.7-0.9-58.2-4.5-86.6,31
	c-20.7,25.9-25,64.1-8.8,89.7c23.4,37.1,91.4,50.3,147.6,10.1c11.1,13.7,41.1,46.6,90.3,57.3c63.6,13.9,133.3-14.8,177.8-72.7
	c1.6,2.1,24.4,31.4,63.1,29.4c36.4-1.9,55.6-29.9,57.5-32.8"/>
<path class="st2" d="M0.9,529.1c3.4-5.2,32.4-48.2,84.1-51.4c49.5-3.1,98.3,31.6,107.6,74.4c3.6,16.5,0.7,31.1-2.2,40.5
	c4.2-1.6,38.5-14.3,65,3.3c33.5,22.2,32.4,78.1,9,102.8c-26.1,27.5-90.2,26.9-136.8-20.8c-8.2,31.9-40.1,52.7-72.9,48.1
	c-31.8-4.5-55.9-31.6-56.1-63.4"/>
<g id="Layer_2_2_">
	<path class="st3" d="M0.3,353.1C86.9,401.8,223.1,467.6,402,512.2c182,45.4,336.3,51.2,437,48.6"/>
	<path class="st4" d="M20.9,367.4c-0.7,22-1.4,44.1-2.1,66.1c22.4-10.9,44.7-21.7,67.1-32.6C64.3,389.7,42.5,378.6,20.9,367.4z"/>
	<path class="st5" d="M366.5,505c7,21.9,14.2,43.8,21.3,65.7c17-15.9,34-31.8,50.9-47.8C414.6,517,390.6,511.1,366.5,505z"/>
	<path class="st6" d="M277,477.7c5.3,22.1,10.6,44.2,15.9,66.3c18.4-14.9,36.7-29.7,55.2-44.5C324.4,492.2,300.7,485,277,477.7z"/>
	<path class="st7" d="M187.1,445.4c3.4,22.2,6.7,44.4,10.1,66.6c19.8-13.6,39.5-27.2,59.3-40.9C233.5,462.6,210.3,454,187.1,445.4z"
		/>
	<path class="st8" d="M102.6,408.6c1.3,22.2,2.7,44.3,4,66.5c21.2-12.2,42.2-24.6,63.4-36.9C147.5,428.4,125,418.5,102.6,408.6z"/>
	<path class="st4" d="M809.9,562.9c-10.1,19.7-20.3,39.4-30.5,59c-14.4-20-28.6-39.9-43-59.8C761,562.3,785.4,562.6,809.9,562.9z"/>
	<path class="st6" d="M531,540.6c-15.5,16.9-30.9,33.9-46.4,50.9c-8.9-21.6-17.8-43.2-26.7-64.8C482.2,531.3,506.5,536,531,540.6z"
		/>
	<path class="st7" d="M625.8,554c-13.8,17.9-27.6,35.9-41.4,53.8c-10.8-21.2-21.4-42.3-32.1-63.5C576.7,547.6,601.2,550.8,625.8,554
		z"/>
	<path class="st8" d="M718,561.1c-12,18.9-24.1,37.7-36.1,56.6c-12.6-20.6-25.1-41.3-37.7-61.9C668.9,557.6,693.4,559.3,718,561.1z"
		/>
	<path class="st9" d="M-0.8,356.2c1.9,0,3.3-1.1,3.4-2.6c0.1-1.5-1.2-2.8-2.9-3.1C-0.4,352.3-0.6,354.2-0.8,356.2z"/>
	<path class="st9" d="M840.8,558.6c-1.8-0.3-3.5,0.7-3.8,2.1c-0.4,1.4,0.7,3,2.5,3.5C839.9,562.3,840.4,560.5,840.8,558.6z"/>
	<path class="st3" d="M0.4,576.7c100.3,1.2,252.7-6.3,431.9-52.6C614.5,477,752.7,408.5,839.7,358.3"/>
	<path class="st9" d="M840.8,355.4c-1.9,0.2-3.2,1.5-3.2,2.9c0,1.5,1.4,2.7,3.3,2.8C840.9,359.3,840.9,357.4,840.8,355.4z"/>
	<path class="st9" d="M-1.1,579.5c1.9,0,3.3-1.1,3.4-2.6c0.1-1.5-1.2-2.8-2.9-3.1C-0.8,575.7-1,577.6-1.1,579.5z"/>
	<ellipse class="st10" cx="31.5" cy="603.2" rx="17.3" ry="16.9"/>
	<ellipse class="st10" cx="580.5" cy="506.8" rx="17.3" ry="16.9"/>
	<ellipse class="st10" cx="511.7" cy="531.2" rx="17.3" ry="16.9"/>
	<ellipse class="st10" cx="445.9" cy="546.7" rx="17.3" ry="16.9"/>
	<ellipse class="st10" cx="375.1" cy="567.6" rx="17.3" ry="16.9"/>
	<ellipse class="st10" cx="307.5" cy="578.9" rx="17.3" ry="16.9"/>
	<ellipse class="st10" cx="243.7" cy="589.1" rx="17.3" ry="16.9"/>
	<ellipse class="st10" cx="171.6" cy="591.3" rx="17.3" ry="16.9"/>
	<ellipse class="st10" cx="99.1" cy="598.6" rx="17.3" ry="16.9"/>
	<ellipse class="st10" cx="704.5" cy="458.2" rx="17.3" ry="16.9"/>
	<ellipse class="st10" cx="639.3" cy="486.9" rx="17.3" ry="16.9"/>
	<ellipse class="st10" cx="815.7" cy="404.4" rx="17.3" ry="16.9"/>
	<ellipse class="st10" cx="761.6" cy="434.6" rx="17.3" ry="16.9"/>
</g>
<path class="st9" d="M298.3,55.9c3.2-1.2,17.6-6.3,28.5,0.6c3.9,2.5,6.3,5.8,8.6,9.1c5.3,7.4,7.7,14.5,8.8,19.1
	c1.3-1.8,4.8-6.1,11-8.5c1.4-0.5,6.4-2.4,12.4-1.5c0,0,0.6,0.1,1.1,0.2c7.1,1.5,21.1,18,23.7,21c-0.4-3.2-1.1-7.7-2.9-13
	c-0.4-1.2-2.7-8.1-5.2-11.6c-7.9-11-31.4-7.5-33.8-7.2c-6-12.5-16.9-20.7-27.9-20.7c-7.8,0-15.2,4.3-15.5,4.5
	C302.9,50.7,300,53.8,298.3,55.9z"/>
<path class="st9" d="M596.4,138.9c0.8-1.9,4.5-10.2,12.4-11.3c2.8-0.4,5.5,0.2,8,0.8c5.8,1.3,10.2,3.7,12.9,5.5
	c-0.3-1.4-0.9-4.8,0.6-8.5c0.3-0.8,1.6-3.7,4.6-5.7c0,0,0.3-0.2,0.6-0.4c3.7-2.2,17.6-0.1,20.1,0.3c-1.7-1.4-4.2-3.2-7.4-5
	c-0.8-0.4-5-2.7-7.7-3.4c-8.6-2-16.9,9.2-17.8,10.4c-8.5-3.5-17.1-2.9-21.7,1.5c-3.3,3.2-4.4,8.2-4.5,8.5
	C595.9,134.6,596.1,137.2,596.4,138.9z"/>
<path class="st9" d="M176.1,328.8c1.6-1.8,8.9-9.7,18.1-8.5c3.3,0.4,6,1.9,8.6,3.3c5.9,3.2,9.9,7.2,12.2,9.9
	c0.2-1.6,0.9-5.6,3.9-9.1c0.7-0.8,3.2-3.6,7.3-4.8c0,0,0.4-0.1,0.8-0.2c5-1.2,19.5,5.3,22.2,6.6c-1.3-2-3.4-4.8-6.3-7.7
	c-0.7-0.7-4.5-4.5-7.3-6.1c-8.8-4.9-22.3,4.8-23.6,5.8c-8.1-6.4-17.8-8.5-24.7-5c-4.9,2.5-8.1,7.6-8.2,7.8
	C177.1,323.9,176.4,326.9,176.1,328.8z"/>
<path class="st9" d="M699.9,486.6c1.3-2.5,7.3-13.2,17.7-15.1c3.7-0.7,7-0.1,10.1,0.5c7.2,1.3,12.4,4.1,15.6,6.1
	c-0.2-1.8-0.3-6.1,2.1-10.8c0.6-1.1,2.6-4.8,6.8-7.6c0,0,0.4-0.3,0.8-0.5c5.1-3,22.5-1.2,25.7-0.8c-1.9-1.6-4.8-3.8-8.7-5.9
	c-0.9-0.5-6-3.2-9.4-3.8c-10.7-2.1-23.1,12.7-24.3,14.2c-10.3-3.9-21.4-2.7-28,3.3c-4.7,4.2-6.9,10.7-7,11
	C699.9,481.1,699.8,484.5,699.9,486.6z"/>
<rect x="-1.3" y="808.2" class="st11" width="842.6" height="468.4"/>
<path class="st12" d="M300.9,962.3c4.1-11.4,6.5-12.7,7.7-12.6c0.4,0,1,0.3,3.7,4.8c1.6,2.7,2.8,5.1,3.7,6.9c1.4-1,3.5-2.8,5.5-5.4
	c2.4-3.2,3-5.4,4-5.4c2.3,0.1,2.6,11.6,4,11.7c1.9,0.1,2.3-20.1,6.1-20.6c1.9-0.2,4.8,4.2,9.5,19.4"/>
<path class="st12" d="M467.8,1155.5c5.3-1.4,12.4-4.2,18.3-10.2c8.4-8.4,9.3-18.1,12.2-17.8c5,0.4,5.5,29.5,9.6,29.7
	c3.1,0.1,5.2-16.9,9.6-17c4,0,5.6,13.6,9.6,13.6c4.9,0,8-21.5,11.3-21.2c1.9,0.2,1.3,7.4,6.1,15.3c2.7,4.5,6.2,7.5,8.7,9.3"/>
<path class="st12" d="M638.3,968.8c2.3-2.2,5.9-5.9,9.6-11c6.9-9.7,7.8-16.1,10.4-16.1c5.5,0,8.1,28.2,11.3,28
	c3.8-0.2,4.1-39.7,7.8-39.9c1.9-0.1,3.1,9.6,10.4,25.5c3.1,6.6,5.7,12.2,7.8,11.9c4.4-0.7,2.6-26.9,5.2-27.2c2.6-0.2,6,24,9.6,23.8
	c2.6-0.2,2.6-13.1,6.1-13.6c2.7-0.4,6,6.5,8.7,13.6"/>
<path class="st12" d="M52.6,1208.8c6-19.9,9.5-24.5,11.7-24.3c4.4,0.5,4.5,21.2,8.8,21.4c1.8,0.1,3.6-3.3,7.2-10.1
	c3.2-5.9,3.5-7.9,5-8.1c4-0.5,7.1,14.2,11.2,13.9c4.2-0.3,4.8-15.5,8.7-15.8c2-0.2,5,3.6,9.4,18.1"/>
<path class="st12" d="M456.4,1038.5c8.9-26,12.9-32.1,14.9-31.7c2.3,0.5,0.3,9.7,6.9,19.3c1.9,2.8,6,8.7,12.5,9.4
	c7.3,0.7,13.4-5.5,14.8-7c4.7-4.8,4.6-8.6,6.8-8.8c5.3-0.4,8.8,21.3,14.4,21c3.2-0.1,5.7-7.5,7.1-11.7c3-9,1.7-13.7,3.7-14.6
	c2.2-1,7.8,2.9,23.4,26.3"/>
<path class="st12" d="M252.6,1117.8c4.1-11.4,6.5-12.7,7.7-12.6c0.4,0,1,0.3,3.7,4.8c1.6,2.7,2.8,5.1,3.7,6.9c1.4-1,3.5-2.8,5.5-5.4
	c2.4-3.2,3-5.4,4-5.4c2.3,0.1,2.6,11.6,4,11.7c1.9,0.1,2.3-20.1,6.1-20.6c1.9-0.2,4.8,4.2,9.5,19.4"/>
<path class="st12" d="M518.5,911c4.1-11.4,6.5-12.7,7.7-12.6c0.4,0,1,0.3,3.7,4.8c1.6,2.7,2.8,5.1,3.7,6.9c1.4-1,3.5-2.8,5.5-5.4
	c2.4-3.2,3-5.4,4-5.4c2.3,0.1,2.6,11.6,4,11.7c1.9,0.1,2.3-20.1,6.1-20.6c1.9-0.2,4.8,4.2,9.5,19.4"/>
<path class="st12" d="M740.3,1227.4c4.1-11.4,6.5-12.7,7.7-12.6c0.4,0,1,0.3,3.7,4.8c1.6,2.7,2.8,5.1,3.7,6.9c1.4-1,3.5-2.8,5.5-5.4
	c2.4-3.2,3-5.4,4-5.4c2.3,0.1,2.6,11.6,4,11.7c1.9,0.1,2.3-20.1,6.1-20.6c1.9-0.2,4.8,4.2,9.5,19.4"/>
<path class="st12" d="M288.2,1241.7c5.3-1.4,12.4-4.2,18.3-10.2c8.4-8.4,9.3-18.1,12.2-17.8c5,0.4,5.5,29.5,9.6,29.7
	c3.1,0.1,5.2-16.9,9.6-17c4,0,5.6,13.6,9.6,13.6c4.9,0,8-21.5,11.3-21.2c1.9,0.2,1.3,7.4,6.1,15.3c2.7,4.5,6.2,7.5,8.7,9.3"/>
<path class="st12" d="M201.5,882.4c5.3-1.4,12.4-4.2,18.3-10.2c8.4-8.4,9.3-18.1,12.2-17.8c5,0.4,5.5,29.5,9.6,29.7
	c3.1,0.1,5.2-16.9,9.6-17c4,0,5.6,13.6,9.6,13.6c4.9,0,8-21.5,11.3-21.2c1.9,0.2,1.3,7.4,6.1,15.3c2.7,4.5,6.2,7.5,8.7,9.3"/>
<path class="st12" d="M153.9,1028.2c5.3-1.4,12.4-4.2,18.3-10.2c8.4-8.4,9.3-18.1,12.2-17.8c5,0.4,5.5,29.5,9.6,29.7
	c3.1,0.1,5.2-16.9,9.6-17c4,0,5.6,13.6,9.6,13.6c4.9,0,8-21.5,11.3-21.2c1.9,0.2,1.3,7.4,6.1,15.3c2.7,4.5,6.2,7.5,8.7,9.3"/>
<path class="st12" d="M689,1061.3c5.3-1.4,12.4-4.2,18.3-10.2c8.4-8.4,9.3-18.1,12.2-17.8c5,0.4,5.5,29.5,9.6,29.7
	c3.1,0.1,5.2-16.9,9.6-17c4,0,5.6,13.6,9.6,13.6c4.9,0,8-21.5,11.3-21.2c1.9,0.2,1.3,7.4,6.1,15.3c2.7,4.5,6.2,7.5,8.7,9.3"/>
<path class="st12" d="M362.4,1110.1c6-19.9,9.5-24.5,11.7-24.3c4.4,0.5,4.5,21.2,8.8,21.4c1.8,0.1,3.6-3.3,7.2-10.1
	c3.2-5.9,3.5-7.9,5-8.1c4-0.5,7.1,14.2,11.2,13.9c4.2-0.3,4.8-15.5,8.7-15.8c2-0.2,5,3.6,9.4,18.1"/>
<path class="st12" d="M68.7,881.6c6-19.9,9.5-24.5,11.7-24.3c4.4,0.5,4.5,21.2,8.8,21.4c1.8,0.1,3.6-3.3,7.2-10.1
	c3.2-5.9,3.5-7.9,5-8.1c4-0.5,7.1,14.2,11.2,13.9c4.2-0.3,4.8-15.5,8.7-15.8c2-0.2,5,3.6,9.4,18.1"/>
<path class="st12" d="M691.6,877.9c6-19.9,9.5-24.5,11.7-24.3c4.4,0.5,4.5,21.2,8.8,21.4c1.8,0.1,3.6-3.3,7.2-10.1
	c3.2-5.9,3.5-7.9,5-8.1c4-0.5,7.1,14.2,11.2,13.9c4.2-0.3,4.8-15.5,8.7-15.8c2-0.2,5,3.6,9.4,18.1"/>
<path class="st12" d="M164.1,1225.8c2.3-2.2,5.9-5.9,9.6-11c6.9-9.7,7.8-16.1,10.4-16.1c5.5,0,8.1,28.2,11.3,28
	c3.8-0.2,4.1-39.7,7.8-39.9c1.9-0.1,3.1,9.6,10.4,25.5c3.1,6.6,5.7,12.2,7.8,11.9c4.4-0.7,2.6-26.9,5.2-27.2c2.6-0.2,6,24,9.6,23.8
	c2.6-0.2,2.6-13.1,6.1-13.6c2.7-0.4,6,6.5,8.7,13.6"/>
<path class="st12" d="M49.8,1114.8c2.3-2.2,5.9-5.9,9.6-11c6.9-9.7,7.8-16.1,10.4-16.1c5.5,0,8.1,28.2,11.3,28
	c3.8-0.2,4.1-39.7,7.8-39.9c1.9-0.1,3.1,9.6,10.4,25.5c3.1,6.6,5.7,12.2,7.8,11.9c4.4-0.7,2.6-26.9,5.2-27.2c2.6-0.2,6,24,9.6,23.8
	c2.6-0.2,2.6-13.1,6.1-13.6c2.7-0.4,6,6.5,8.7,13.6"/>
<path class="st12" d="M390.5,960.4c2.3-2.2,5.9-5.9,9.6-11c6.9-9.7,7.8-16.1,10.4-16.1c5.5,0,8.1,28.2,11.3,28
	c3.8-0.2,4.1-39.7,7.8-39.9c1.9-0.1,3.1,9.6,10.4,25.5c3.1,6.6,5.7,12.2,7.8,11.9c4.4-0.7,2.6-26.9,5.2-27.2c2.6-0.2,6,24,9.6,23.8
	c2.6-0.2,2.6-13.1,6.1-13.6c2.7-0.4,6,6.5,8.7,13.6"/>
<path class="st12" d="M521.2,1236.9c2.3-2.2,5.9-5.9,9.6-11c6.9-9.7,7.8-16.1,10.4-16.1c5.5,0,8.1,28.2,11.3,28
	c3.8-0.2,4.1-39.7,7.8-39.9c1.9-0.1,3.1,9.6,10.4,25.5c3.1,6.6,5.7,12.2,7.8,11.9c4.4-0.7,2.6-26.9,5.2-27.2c2.6-0.2,6,24,9.6,23.8
	c2.6-0.2,2.6-13.1,6.1-13.6c2.7-0.4,6,6.5,8.7,13.6"/>
<rect x="70.5" y="777.9" class="st13" width="16.4" height="185.9"/>
<path class="st14" d="M48.5,969C59,946.4,63.4,941.5,65.3,942c2,0.6,0.6,6.8,5.2,13.2c2.6,3.5,5.9,5.6,8.4,6.8
	c2.7-2.2,6.2-5.4,9.4-9.9c4.5-6.3,5-10,7.3-10.4c2.5-0.4,6.7,3.4,13.8,20.6"/>
<path class="st15" d="M-3.3,693.2c14.6-7.1,39-16.7,70.3-18.8c6.7-0.4,84.5-4.4,143.1,51.5c41,39.1,57.6,93.1,48.4,99.9
	c-7,5.1-23.5-19.3-52.1-16.5c-19.6,1.9-22.6,14.3-42.7,14.7c-20.5,0.4-23.1-12.4-43.3-12.3c-23.1,0.1-25,16.9-47.1,17.2
	c-22.2,0.3-30.6-16.1-52.8-12.9c-10.1,1.5-17.7,6.2-22.1,9.5"/>
<rect x="636.7" y="929.5" class="st13" width="16.4" height="185.9"/>
<path class="st16" d="M453.9,977.5c-10.2-8.6,13.4-66.5,60.2-106c11.4-9.6,53.7-44.3,119-47.5c8.6-0.4,85.8-3.2,143.1,51.5
	c41,39.1,57.6,93.1,48.4,99.9c-7,5.1-23.5-19.3-52.1-16.5c-19.6,1.9-22.6,14.3-42.7,14.7c-20.6,0.4-23.6-13-43.3-12.3
	c-20.8,0.8-22.8,15.6-43.1,16.3c-20.9,0.7-24.6-15-46.3-14.3c-18.5,0.5-19.9,12.1-39.7,13.6c-20.8,1.6-25.6-10.7-47.7-12.9
	C478,960.9,460.9,983.5,453.9,977.5z"/>
<path class="st14" d="M615.8,1119.4c6-19.9,9.5-24.5,11.7-24.3c4.4,0.5,4.5,21.2,8.8,21.4c1.8,0.1,3.6-3.3,7.2-10.1
	c3.2-5.9,3.5-7.9,5-8.1c4-0.5,7.1,14.2,11.2,13.9c4.2-0.3,4.8-15.5,8.7-15.8c2-0.2,5,3.6,9.4,18.1"/>
<path class="st17" d="M76.7,674.8c26.4,14.5,56,33.2,86.7,57.3c40.2,31.5,71.2,63.7,94.5,91.6"/>
<path class="st17" d="M74.2,673.8c16.5,18.2,35.2,41.7,52.9,70.8c17.8,29.3,30,56.7,38.4,79.7"/>
<path class="st17" d="M75.6,674.5c-2.6,27.9-4.4,57.6-5,88.9c-0.4,22.4-0.2,43.9,0.6,64.5"/>
<path class="st17" d="M73.8,674.6c-13.9,16.8-29.2,37.7-43.7,63C14.7,764.5,4,789.6-3.5,811"/>
<path class="st18" d="M641.8,823.9c28.4,15,61.7,35.4,96.3,63.1c37.9,30.4,66.9,61.1,88.4,87.2"/>
<path class="st18" d="M730,973.1c-8.1-20.5-18.5-43.1-31.9-66.9c-18.5-32.8-38.2-60.1-56.4-82.1"/>
<path class="st18" d="M641.7,977.1c-0.8-21.4-1.3-43.5-1.4-66.2c0-30.1,0.7-59,2-86.8"/>
<path class="st18" d="M551.4,978.4c6.4-20.8,16-45.7,30.6-72.2c19.6-35.7,41.9-62.8,60.4-82.1"/>
<path class="st18" d="M455,975.8c20.6-24,46.4-50.7,78.1-77.5c38.5-32.5,75.9-56.8,108-74.8"/>
<path class="st9" d="M44.6,578.4c1.5,9.6-5.8,17.2-12.7,17.2c-6.7,0-14-7.3-12.9-16.7C27.6,578.8,36.1,578.6,44.6,578.4z"/>
<path class="st9" d="M811.5,372.7c6.8,7.1,5,17.5-0.7,21.2c-5.6,3.7-15.8,1.6-20.3-6.8C797.5,382.3,804.5,377.5,811.5,372.7z"/>
<path class="st9" d="M758,401.8c6.5,7.3,4.3,17.7-1.6,21.3c-5.8,3.5-16.1,1.1-20.2-7.4C743.4,411,750.7,406.4,758,401.8z"/>
<path class="st9" d="M701.1,428.8c5.7,7.9,2.6,17.9-3.5,20.9c-6,2.9-15.9-0.5-19.2-9.4C686,436.5,693.6,432.6,701.1,428.8z"/>
<path class="st9" d="M581.6,477.1c5.4,8.1,1.8,18-4.5,20.8c-6.2,2.7-15.9-1.2-18.7-10.2C566.2,484.2,573.9,480.6,581.6,477.1z"/>
<path class="st9" d="M638.3,455.9c5.7,7.9,2.5,18-3.7,20.9c-6.1,2.9-15.9-0.6-19.1-9.5C623.1,463.5,630.7,459.7,638.3,455.9z"/>
<path class="st9" d="M517.1,500.9c4.2,8.8-0.6,18.1-7.2,20c-6.5,1.9-15.6-3.2-17.2-12.5C500.8,505.9,509,503.4,517.1,500.9z"/>
<path class="st9" d="M452.7,519.2c4.3,8.7-0.5,18.1-7.1,20.1c-6.5,1.9-15.6-3.1-17.3-12.4C436.5,524.4,444.6,521.8,452.7,519.2z"/>
<path class="st9" d="M381.9,537.2c4.1,8.8-0.9,18.1-7.6,19.9c-6.5,1.8-15.5-3.4-17-12.8C365.5,541.9,373.7,539.6,381.9,537.2z"/>
<path class="st9" d="M314.7,552c2.7,9.3-3.8,17.8-10.6,18.5c-6.7,0.8-14.8-5.7-14.8-15.1C297.8,554.3,306.2,553.1,314.7,552z"/>
<path class="st9" d="M253.7,561.9c1.5,9.6-5.8,17.2-12.7,17.2c-6.7,0-14-7.3-12.9-16.7C236.7,562.2,245.2,562,253.7,561.9z"/>
<path class="st9" d="M184,570.6c1.5,9.6-5.8,17.2-12.7,17.2c-6.7,0-14-7.3-12.9-16.7C167,570.9,175.5,570.8,184,570.6z"/>
<path class="st9" d="M112.6,574.9c1.5,9.6-5.8,17.2-12.7,17.2c-6.7,0-14-7.3-12.9-16.7C95.5,575.3,104.1,575.1,112.6,574.9z"/>
<path class="st9" d="M702.7,540.8c1.7-2.2,9.2-12,19.7-12.5c3.7-0.2,6.9,0.9,9.9,1.9c6.9,2.3,11.7,5.8,14.5,8.3
	c0.1-1.8,0.6-6.1,3.7-10.4c0.7-1,3.3-4.4,7.8-6.5c0,0,0.4-0.2,0.9-0.4c5.5-2.2,22.4,2,25.6,2.8c-1.7-1.9-4.2-4.4-7.7-7
	c-0.8-0.6-5.4-4-8.7-5.1c-10.3-3.5-24.8,9.3-26.2,10.6c-9.6-5.3-20.8-5.7-28.2-0.7c-5.3,3.5-8.5,9.6-8.6,9.9
	C703.4,535.4,702.9,538.7,702.7,540.8z"/>
</svg>
