<?xml version="1.0" encoding="utf-8"?>
<!-- Generator: Adobe Illustrator 21.0.2, SVG Export Plug-In . SVG Version: 6.00 Build 0)  -->
<svg version="1.1" id="Layer_1" xmlns="http://www.w3.org/2000/svg" xmlns:xlink="http://www.w3.org/1999/xlink" x="0px" y="0px"
	 viewBox="0 0 841.9 595.3" style="enable-background:new 0 0 841.9 595.3;" xml:space="preserve">
<style type="text/css">
	.st0{fill:#FFF18C;stroke:#FFE600;stroke-width:4;stroke-miterlimit:10;}
	.st1{fill:#FFCE07;stroke:#673514;stroke-width:4;stroke-miterlimit:10;}
	.st2{fill:none;stroke:#673616;stroke-width:4;stroke-miterlimit:10;}
	.st3{fill:#FFFFFF;stroke:#FFFFFF;stroke-miterlimit:10;}
	.st4{stroke:#000000;stroke-miterlimit:10;}
	.st5{stroke:#9D8730;stroke-width:2;stroke-miterlimit:10;}
	.st6{fill:#F27079;stroke:#F27079;stroke-miterlimit:10;}
	.st7{font-family:'AmaticSC-Regular';}
	.st8{font-size:18px;}
</style>
<path class="st0" d="M377.7,460c2.1,5.4,25.1,4,44.1-4.2c24.3-10.5,36.6-29.7,40.2-35.7c3.4-5.8,14.7-25.5,11.4-48.3
	c-0.6-4.3-2.4-13.3-8.8-22.1c-2.4-3.2-8.1-11-12.3-9.8c-4.5,1.3-3.1,11.7-6.2,27c-0.3,1.5-4.4,20.6-15.9,38.6
	c-6.2,9.7-12.9,16-26.2,28.7C384.6,452.5,376.3,456.5,377.7,460z"/>
<path class="st1" d="M430.8,403.4c-6.2,8.8-12,15.2-16,19.4c-5.3,5.4-11.3,10.8-25.4,23.8c-10.5,9.7-12.6,11.8-11.9,13.7
	c1.7,5,19.2,4.1,31,1.6c6.7-1.4,24.6-5.4,40-21.3c8.1-8.4,12.5-17,14.9-22.5C452.5,413.1,441.7,408.3,430.8,403.4z"/>
<path class="st1" d="M430.7,399.1c-1.5-1.2-11-8.3-23.6-6c-15.9,2.9-21.8,18.1-22.5,19.8c-2.8,7.4-2.9,17.1,0.2,18.4
	c2.4,1,5.1-3.8,16.2-11.7c3.9-2.8,7.1-5,11.6-7c6.6-2.9,12.6-3.7,16.6-3.9c4.2-0.5,8.3-1,12.5-1.5
	C438,404.5,434.4,401.8,430.7,399.1z"/>
<path class="st1" d="M463.9,414.3c1.9,0.4,13.5,2.7,20.1,13.8c8.3,13.9,0.9,28.4,0,30c-3.8,7-10.9,13.5-13.9,12
	c-2.4-1.1-0.5-6.3-1.9-19.9c-0.5-4.7-0.9-8.7-2.4-13.3c-2.2-6.8-5.6-11.8-8.1-15c-2.4-3.5-4.8-6.9-7.1-10.4
	C455,412.4,459.5,413.3,463.9,414.3z"/>
<path class="st2" d="M377.3,460.4c10-2.1,29.7-7.6,47.8-24.1c10-9.1,16.3-18.6,20.2-25.8"/>
<path class="st3" d="M447.4,376.4c0,2.8,2.2,5.4,5.2,5.4c2.9,0,5.3-2.5,5.2-5.4c0.1-3-2.4-5.4-5.2-5.4
	C449.6,371,447.4,373.6,447.4,376.4z"/>
<path class="st3" d="M459.8,376.7c0,2.8,2.2,5.4,5.2,5.4c2.9,0,5.3-2.5,5.2-5.4c0.1-3-2.4-5.4-5.2-5.4
	C462.1,371.3,459.8,373.9,459.8,376.7z"/>
<path class="st4" d="M454.1,377.9c0,1.5-1.3,2.6-2.7,2.6c-1.4,0-2.7-1.2-2.7-2.6c0.1-1.5,1.3-2.6,2.7-2.6
	C452.8,375.2,454.1,376.4,454.1,377.9z"/>
<path class="st4" d="M468.6,375c0,1.5-1.3,2.6-2.7,2.6c-1.4,0-2.7-1.2-2.7-2.6c0.1-1.5,1.3-2.6,2.7-2.6
	C467.3,372.4,468.6,373.5,468.6,375z"/>
<ellipse class="st5" cx="456.1" cy="394.7" rx="6.9" ry="6.8"/>
<path class="st6" d="M452.2,395.4c0,2.3,1.7,4.4,4.1,4.4c2.2,0,4.1-2,4.1-4.4c0-2.4-1.8-4.4-4.1-4.4
	C454,391,452.2,393.2,452.2,395.4z"/>
<text transform="matrix(1 0 0 1 394.2378 321.2822)" class="st7 st8">i find you very</text>
<text transform="matrix(1 0 0 1 405.6382 500.3057)" class="st7 st8">appealing!</text>
</svg>
