<?xml version="1.0" encoding="utf-8"?>
<!-- Generator: Adobe Illustrator 21.0.2, SVG Export Plug-In . SVG Version: 6.00 Build 0)  -->
<svg version="1.1" id="Layer_1" xmlns="http://www.w3.org/2000/svg" xmlns:xlink="http://www.w3.org/1999/xlink" x="0px" y="0px"
	 viewBox="0 0 841.9 595.3" style="enable-background:new 0 0 841.9 595.3;" xml:space="preserve">
<style type="text/css">
	.st0{fill:#439B46;stroke:#315027;stroke-width:4;stroke-miterlimit:10;}
	.st1{fill:#1E4721;stroke:#315027;stroke-width:4;stroke-miterlimit:10;}
	.st2{fill:none;stroke:#000000;stroke-miterlimit:10;}
	.st3{fill:#439B46;stroke:#000000;stroke-miterlimit:10;}
	.st4{stroke:#157139;stroke-width:2;stroke-miterlimit:10;}
	.st5{fill:#F27079;stroke:#F27079;stroke-miterlimit:10;}
	.st6{fill:none;stroke:#325027;stroke-width:4;stroke-miterlimit:10;}
	.st7{font-family:'AmaticSC-Regular';}
	.st8{font-size:18px;}
</style>
<path class="st0" d="M455.2,314.6c-6.9,2.8-3.1,23-9,24.4c-2.1,0.5-4.9-1.4-6-3.5c-0.9-1.8-0.3-3.3,0.1-6c0.1-0.5,1.8-11.8-1.6-13.8
	c-0.7-0.4-2.5-1-6.9,2.1c-1,4.6-1.4,8.5-1.6,11.2c-0.4,6.1,0.1,9.7-2.3,11.3c-1.1,0.8-2.8,0.9-4.1,0.4c-2.7-1.1-3-4.7-4.8-11.7
	c-0.6-2.5-1.7-6.2-3.2-10.6c-5.5,1.2-11,2.5-16.5,3.7c8.4,16.2,10.5,29.7,10.8,39.4c0.3,10.4-1.6,15.8,2.4,20.6
	c7.5,8.9,28.8,7.9,35.4-1.7c3.2-4.7,1.8-9.7,1.5-15.9c-0.5-10.7,2.5-25.6,17.4-44.5C460.7,314.3,457.3,313.8,455.2,314.6z"/>
<path class="st1" d="M429.5,323.1c-0.3,0.2-7.5,4.9-13.5,1.3c-3-1.8-4.2-4.7-4.6-5.9c-0.6,2.1-3.6,10.9-12.2,15.2
	c-9.8,4.9-24.9,2.9-30.8-8.4c-5.6-10.6-0.8-25.1,11.4-30.8c-2.1-1.2-8.7-5.4-10.1-12.6c-2.2-11,8.6-23.2,21.1-24.9
	c10.7-1.4,21.8,5.2,26.6,16.4c0.8-3.4,2.8-10.2,8.9-14.8c11.6-8.8,31.7-5.2,38.8,6.7c3.2,5.4,2.9,11.3,2.5,14.3
	c7.1-4.3,15.6-4.5,21.9-0.4c10.1,6.6,8.2,20.2,8,21.9c-1.1,7.7-6.4,18.9-17.3,20.7c-11.1,1.8-19.2-7.6-19.7-8.3
	c-0.8,6-5.6,10.7-11.5,11.6c-6,0.9-12-2.4-14.5-8C433.8,318.5,432.4,321.1,429.5,323.1z"/>
<path class="st2" d="M419.4,347.3c0.8,0,2.4,0.2,4.1,1c1.5,0.7,2.4,1.7,2.9,2.3c-1-0.3-2.2-0.5-3.6-0.7c-1-0.1-2-0.1-2.8-0.1"/>
<path class="st3" d="M426.8,350.8c-0.9,0.1-1.9,0.2-3,0.5c-1.3,0.3-2.5,0.6-3.5,1"/>
<path class="st2" d="M439.8,347.3c-0.8,0-2.4,0.2-4.1,1c-1.5,0.7-2.4,1.7-2.9,2.3c1-0.3,2.2-0.5,3.6-0.7c1-0.1,2-0.1,2.8-0.1"/>
<path class="st3" d="M432.4,350.8c0.9,0.1,1.9,0.2,3,0.5c1.3,0.3,2.5,0.6,3.5,1"/>
<path class="st4" d="M439.9,360.7c-0.5,4.7-3.9,8.5-8.2,9.4c-4.3,0.9-8.8-1.2-11.1-5.3C427,363.4,433.5,362,439.9,360.7z"/>
<path class="st5" d="M427.4,368.9c0.8-0.5,2.2-1.4,4.2-1.8c1.8-0.4,3.3-0.2,4.2,0c-0.2,1.8-1.6,3.4-3.4,3.8
	C430.4,371.4,428.4,370.6,427.4,368.9z"/>
<path class="st6" d="M432,282.6c-1.6,3.7,0,7.9,3.4,9.6c3,1.5,6.7,0.6,8.9-2.2c0.2,0.4,2.3,4.1,5.6,4.3c3.6,0.2,7.9-3.8,8-9.9"/>
<path class="st6" d="M387,314.1c4.7,3.2,10.2,2.2,12.3-0.9c1.9-2.8,0.5-6.6,0.3-7.1c0.8,0.1,4.2,0.4,6.5-1.9c2.8-2.8,2.7-8.5-1.2-13
	"/>
<text transform="matrix(1 0 0 1 397.3539 417.0544)" class="st7 st8">BROC ‘N’ ROLL!</text>
</svg>
