<?xml version="1.0" encoding="utf-8"?>
<!-- Generator: Adobe Illustrator 21.0.2, SVG Export Plug-In . SVG Version: 6.00 Build 0)  -->
<svg version="1.1" id="Layer_1" xmlns="http://www.w3.org/2000/svg" xmlns:xlink="http://www.w3.org/1999/xlink" x="0px" y="0px"
	 viewBox="0 0 841.9 595.3" style="enable-background:new 0 0 841.9 595.3;" xml:space="preserve">
<style type="text/css">
	.st0{fill:#449B45;stroke:#2D5026;stroke-width:4;stroke-miterlimit:10;}
	.st1{fill:#9B1B45;stroke:#5E082F;stroke-width:4;stroke-miterlimit:10;}
	.st2{fill:#FFFFFF;stroke:#FFFFFF;stroke-miterlimit:10;}
	.st3{stroke:#000000;stroke-miterlimit:10;}
	.st4{fill:#B82D91;stroke:#B82B91;stroke-miterlimit:10;}
	.st5{fill:none;stroke:#80277A;stroke-miterlimit:10;}
	.st6{font-family:'AmaticSC-Regular';}
	.st7{font-size:18px;}
</style>
<g>
	<path class="st0" d="M472.3,428.1c-1.5-0.8,6-19.3,8.7-26c2.7-6.7,4.2-10.4,6.7-15.6c6.6-14,10.3-18.5,8.7-24.6
		c-1.3-4.7-4.7-6.5-3.7-9.1c1.1-2.9,6.8-4.2,9-2c1.9,1.9-0.1,5.2,0.5,10.2c0.6,4.4,3.3,7.6,8.8,13.8c14.4,16.2,14.8,16.5,16.4,19
		c0,0,2.7,4.1,8.3,17.5c0.1,0.2,0.5,1.3,0.7,2.8c0.2,2.1,0,5.3-1.2,5.7c-1.4,0.5-3.8-3.2-4.8-5.3c-1.3-2.5-1.6-4.5-1.9-5.8
		c-0.8-3.4-2.7-6.1-6.4-11.4c-3.3-4.7-5.5-7.1-13.8-16.6c-3.1-3.6-5.6-6.4-7-8c-2,3.5-4.8,8.8-7.7,15.4c-2.8,6.5-3.6,9.5-5.3,13.8
		C482.8,416.5,473.7,428.8,472.3,428.1z"/>
	<path class="st1" d="M495.9,422.5c8.2,6.1,5.8,23.5-2.2,31.9c-6.3,6.6-15.1,6.6-20.3,6.6c-5.2,0-15.3,0-22.2-7.8
		c-6.7-7.6-10.3-22.9-2.6-30c5.8-5.3,16.6-4.9,25.1,2.3C481.5,419.9,490.5,418.5,495.9,422.5z"/>
	<path class="st1" d="M512.5,417.2c-8.2,6.1-5.8,23.5,2.2,31.9c6.3,6.6,15.1,6.6,20.3,6.6c5.2,0,15.3,0,22.2-7.8
		c6.7-7.6,10.3-22.9,2.6-30c-5.8-5.3-16.6-4.9-25.1,2.3C526.9,414.6,517.9,413.2,512.5,417.2z"/>
	<path class="st2" d="M459.5,436.4c0,2.7,2,5.2,4.7,5.2c2.6,0,4.8-2.3,4.7-5.2c0.1-2.8-2.1-5.2-4.7-5.2
		C461.5,431.3,459.5,433.8,459.5,436.4z"/>
	<path class="st2" d="M523.1,430.4c0,2.7,2,5.2,4.7,5.2c2.6,0,4.8-2.3,4.7-5.2c0.1-2.8-2.1-5.2-4.7-5.2
		C525.1,425.2,523.1,427.8,523.1,430.4z"/>
	<path class="st2" d="M474.8,436.2c0,2.7,2,5.2,4.7,5.2c2.6,0,4.8-2.3,4.7-5.2c0.1-2.8-2.1-5.2-4.7-5.2
		C476.8,431,474.8,433.5,474.8,436.2z"/>
	<path class="st2" d="M537.9,429.6c0,2.7,2,5.2,4.7,5.2c2.6,0,4.8-2.3,4.7-5.2c0.1-2.8-2.1-5.2-4.7-5.2
		C539.9,424.4,537.9,426.9,537.9,429.6z"/>
	<ellipse class="st3" cx="465.8" cy="435.6" rx="2.4" ry="2.5"/>
	<ellipse class="st3" cx="481" cy="435.3" rx="2.4" ry="2.5"/>
	<ellipse class="st3" cx="540.8" cy="429.7" rx="2.4" ry="2.5"/>
	<ellipse class="st3" cx="526.1" cy="430.7" rx="2.4" ry="2.5"/>
	<path class="st4" d="M525.1,445.3c0.8,0.9,3.2,0.6,4.4-1c0.7-1,0.9-2.4,0.3-3.5c-1.1-2-4.5-1.7-5.3-0.5c0,0-0.3,0.5-0.2,1
		c0.2,0.9,1.3,1.2,1.4,1.2c-0.1,0.1-0.9,0.6-0.9,1.6C524.7,444.2,524.7,444.9,525.1,445.3z"/>
	<path class="st5" d="M525.1,440.7c-0.1,0.1,0,0.6,0.3,0.9c0.4,0.5,0.9,0.5,1,0.8c0,0.3-0.5,0.4-0.8,1.1c-0.2,0.4-0.3,0.9-0.1,1
		c0.2,0.1,1.5-0.7,1.5-1.9C526.8,441.2,525.3,440.5,525.1,440.7z"/>
</g>
<path class="st3" d="M462.8,447c-0.3,0.9,3.9,5.3,8.9,5.4c5,0.1,9.4-4.3,9.1-5.2c0,0-0.1-0.3-0.3-0.4c-0.2-0.1-0.5,0.2-0.7,0.3
	c-0.2,0.2-0.3,0.2-0.4,0.4c-0.2,0.3-3.2,3.6-7.7,3.6c0,0-4.1-0.1-7.5-3.7c-0.1-0.1-0.2-0.2-0.2-0.2c-0.1-0.2-0.1-0.2-0.2-0.2
	c0,0-0.3-0.3-0.6-0.3C463,446.7,462.9,447,462.8,447z"/>
<text transform="matrix(1 0 0 1 452.3379 487.5781)" class="st6 st7">you are cherry sweet!</text>
</svg>
