<?xml version="1.0" encoding="utf-8"?>
<!-- Generator: Adobe Illustrator 21.0.2, SVG Export Plug-In . SVG Version: 6.00 Build 0)  -->
<svg version="1.1" id="Layer_1" xmlns="http://www.w3.org/2000/svg" xmlns:xlink="http://www.w3.org/1999/xlink" x="0px" y="0px"
	 viewBox="0 0 841.9 595.3" style="enable-background:new 0 0 841.9 595.3;" xml:space="preserve">
<style type="text/css">
	.st0{fill:#5CA645;stroke:#5CA645;stroke-width:4;stroke-miterlimit:10;}
	.st1{fill:#A9DEE9;stroke:#78CFE1;stroke-width:4;stroke-miterlimit:10;}
</style>
<rect x="2.9" y="1.7" class="st0" width="837" height="333.5"/>
<path class="st1" d="M840.9,231.5c-3.7-2.9-33.5-25.6-71.6-16.9c-31.6,7.2-56.4,33.2-63,66c-6.5-13.9-22.6-42.1-55.1-56.8
	c-56.3-25.4-130.9,3.9-157.5,55c-11.4,21.8-11.8,43.3-10.9,56.3c-5.2-6.3-33.4-39.4-81.3-43.1c-11.7-0.9-58.2-4.5-86.6,31
	c-20.7,25.9-25,64.1-8.8,89.7c23.4,37.1,91.4,50.3,147.6,10.1c11.1,13.7,41.1,46.6,90.3,57.3c63.6,13.9,133.3-14.8,177.8-72.7
	c1.6,2.1,24.4,31.4,63.1,29.4c36.4-1.9,55.6-29.9,57.5-32.8"/>
<path class="st1" d="M0,191.7c23.1-3.2,63.6-5.3,109.4,11.8c25.1,9.4,44.7,22,58.9,33c43.1-41.7,102.3-35.7,126.5-2.7
	c16.5,22.4,17,57.2,3.7,88.2c3.5-0.9,31.5-7.8,50.4,10.6c21.7,21,17,61.5,2.5,80.3c-20.9,26.9-76.6,28-129-13.1
	c-4.8,2.6-55,28.3-99.6,0c-17.7-11.3-27.8-26.8-33.1-36.9c-5.1,5.9-20.9,22.6-46.7,27.6c-19.7,3.8-35.6-1-43-3.9"/>
</svg>
