<?xml version="1.0" encoding="utf-8"?>
<!-- Generator: Adobe Illustrator 21.0.2, SVG Export Plug-In . SVG Version: 6.00 Build 0)  -->
<svg version="1.1" id="Layer_1" xmlns="http://www.w3.org/2000/svg" xmlns:xlink="http://www.w3.org/1999/xlink" x="0px" y="0px"
	 viewBox="0 0 841.9 595.3" style="enable-background:new 0 0 841.9 595.3;" xml:space="preserve">
<style type="text/css">
	.st0{fill:#D33535;stroke:#AF2024;stroke-width:4;stroke-miterlimit:10;}
	.st1{fill:#AF2024;stroke:#AF2024;stroke-miterlimit:10;}
	.st2{fill:#FFFFFF;stroke:#FFFFFF;stroke-miterlimit:10;}
	.st3{stroke:#000000;stroke-miterlimit:10;}
	.st4{stroke:#AF2125;stroke-miterlimit:10;}
	.st5{fill:#F27079;stroke:#F27079;stroke-miterlimit:10;}
	.st6{fill:#449B45;stroke:#2D5026;stroke-width:4;stroke-miterlimit:10;}
	.st7{fill:#702324;stroke:#5E1A19;stroke-width:4;stroke-miterlimit:10;}
	.st8{fill:#ED1F24;stroke:#A91F23;stroke-width:4;stroke-miterlimit:10;}
	.st9{fill:#FFD44C;stroke:#FFC41C;stroke-miterlimit:10;}
	.st10{stroke:#AF2125;stroke-width:2;stroke-miterlimit:10;}
	.st11{fill:#459B45;stroke:#2C5025;stroke-width:4;stroke-miterlimit:10;}
	.st12{fill:#FCEE21;stroke:#5B3433;stroke-width:4;stroke-miterlimit:10;}
	.st13{fill:none;stroke:#5B3433;stroke-width:4;stroke-miterlimit:10;}
	.st14{stroke:#9D8730;stroke-width:2;stroke-miterlimit:10;}
	.st15{fill:#9B1B45;stroke:#5E082F;stroke-width:4;stroke-miterlimit:10;}
	.st16{fill:#B82D91;stroke:#B82B91;stroke-miterlimit:10;}
	.st17{fill:none;stroke:#80277A;stroke-miterlimit:10;}
	.st18{fill:#F36F2D;stroke:#F36F2D;stroke-width:4;stroke-miterlimit:10;}
	.st19{fill:none;stroke:#FFDDA1;stroke-width:4;stroke-miterlimit:10;}
	.st20{fill:none;stroke:#EF3E23;stroke-width:4;stroke-miterlimit:10;}
	.st21{fill:#FFDDA1;stroke:#FFDDA1;stroke-miterlimit:10;}
	.st22{fill:none;stroke:#FFDDA1;stroke-miterlimit:10;}
	.st23{fill:#401515;stroke:#EC2C26;stroke-miterlimit:10;}
	.st24{fill:#439B45;stroke:#2E5027;stroke-width:4;stroke-miterlimit:10;}
	.st25{fill:#B0509E;stroke:#902680;stroke-width:4;stroke-miterlimit:10;}
	.st26{stroke:#4F2061;stroke-miterlimit:10;}
	.st27{fill:#FFFFFF;}
	.st28{fill:#EA2160;stroke:#EA2160;stroke-width:4;stroke-miterlimit:10;}
	.st29{fill:none;stroke:#439B46;stroke-width:4;stroke-miterlimit:10;}
	.st30{fill:none;stroke:#2F5027;stroke-width:4;stroke-miterlimit:10;}
	.st31{fill:#702325;stroke:#5E1A19;stroke-miterlimit:10;}
	.st32{fill:#FFF18C;stroke:#FFE600;stroke-width:4;stroke-miterlimit:10;}
	.st33{fill:#FFCE07;stroke:#673514;stroke-width:4;stroke-miterlimit:10;}
	.st34{fill:none;stroke:#673616;stroke-width:4;stroke-miterlimit:10;}
	.st35{fill:none;stroke:#000000;stroke-width:3;stroke-miterlimit:10;}
</style>
<g>
	<path class="st0" d="M202,86.7c-0.2,0.6-1,3.4,0.5,6.5c1.5,3,4.1,4.1,4.8,4.4c0.8,8,1,21.2-4.3,36.1c-3.2,9.1-4.8,13.9-9.7,17.4
		c-10.7,7.5-20.8-1.9-45.8,1.2c-14.3,1.8-18,5.7-26,2.8c-9.8-3.5-14.4-13.1-17.7-19.7c-7.9-16.3-12.4-43.2,2.4-59.6
		c5.1-5.7,10.9-8.4,12.4-9c11.2-4.9,15.2,0.6,34.1-0.6c14.8-0.9,23.1-4.8,33.3,0.6c1.8,0.9,3.1,1.9,3.9,2.6
		c-0.1,0.4-0.9,2.6,0.3,4.8c1,1.9,3.1,3.2,5.4,3.2c0,0.8,0.1,3.5,2,6C199.2,85.5,201.2,86.3,202,86.7z"/>
	<path class="st1" d="M171.2,70.7c0.5,1.3-8.1,9-18.6,8.7c-8.9-0.2-16.4-6.1-15.9-7.5c0.3-0.8,3.2-0.5,8.5,0
		c4.8,0.4,5.3,0.9,8.3,0.9c2.5,0,3.1-0.4,8.3-1.2C167.9,70.7,171,70.3,171.2,70.7z"/>
	<ellipse class="st2" cx="139.9" cy="96" rx="6.4" ry="6.1"/>
	<ellipse class="st2" cx="166.6" cy="96" rx="6.4" ry="6.1"/>
	<path class="st3" d="M144.5,96.1c0.1,2.7-2.2,4.9-4.8,4.9c-2.7,0-4.8-2.4-4.8-4.9c0-2.6,2.1-4.8,4.8-4.9c-0.4,1.4,0,3,1.1,4
		C142.3,96.5,144.4,96.1,144.5,96.1z"/>
	<path class="st3" d="M161.6,96.1c0,2.6,2.1,4.9,4.8,4.9c2.6,0,4.9-2.2,4.8-4.9c-0.1,0-2.3,0.3-3.8-1.3c-1.4-1.5-1-3.4-1-3.6
		C163.7,91.3,161.6,93.5,161.6,96.1z"/>
	<path class="st4" d="M165.8,116.9c-1.9,5.1-6.9,8.5-12.4,8.5c-5.4-0.1-10.3-3.5-12.1-8.6C149.5,116.9,157.6,116.9,165.8,116.9z"/>
	<path class="st5" d="M158,122.5c-0.9,0.4-2.7,1-4.9,1c-2,0-3.6-0.5-4.5-0.9c0.7-1.9,2.5-3.3,4.5-3.4
		C155.2,119.1,157.2,120.5,158,122.5z"/>
	<path class="st6" d="M153.9,64.5c-1,0.9-4.5-2.4-12-5.7c-7.5-3.3-8.7-2-13-4.8c-1.6-1-7.9-5.2-9.6-12.8c-0.4-1.7-1.8-7.9,1.5-10.7
		c4.2-3.7,13.4,1.1,16.9,3.4c1.1,0.7,6.7,4.5,9.6,11.3c1.4,3.2,0.7,3.7,2.6,8.8C152.3,60.9,154.8,63.7,153.9,64.5z"/>
	<path class="st7" d="M159.7,26.8c-3.1,1-3.2,7.8-3.6,13.4c-1.6,22.4-8.3,33.4-3.6,36.3c1.2,0.8,2.9,0.7,4.1,0.2
		c4.7-2,1.5-11.6,4.1-26.6c2.1-12,6.4-18.8,2.9-22.2C162.6,27.1,161,26.4,159.7,26.8z"/>
</g>
<g>
	<path class="st8" d="M341.6,70c16.3,25.2-14.5,85.3-45.5,85.1c-30.8-0.2-61-59.5-44.7-84.8c10.2-15.8,37-15.9,45.2-15.9
		C304.8,54.5,331.5,54.4,341.6,70z"/>
	<path class="st9" d="M262,72.6c0.5,1.2-0.2,3-1.9,4.2c-1.8-1-2.5-2.8-2-4c0.3-0.7,1.1-1.6,2.1-1.5C261,71.2,261.7,71.9,262,72.6z"
		/>
	<path class="st9" d="M265.6,85.7c-0.5,1.2,0.2,3,1.9,4.2c1.8-1,2.5-2.8,2-4c-0.3-0.7-1.1-1.6-2.1-1.5
		C266.6,84.4,265.9,85.1,265.6,85.7z"/>
	<path class="st9" d="M321.2,100c0.5,1.2-0.2,3-1.9,4.2c-1.8-1-2.5-2.8-2-4c0.3-0.7,1.1-1.6,2.1-1.5
		C320.2,98.7,320.9,99.4,321.2,100z"/>
	<path class="st9" d="M292.4,61.4c-0.5,1.2,0.2,3,1.9,4.2c1.8-1,2.5-2.8,2-4c-0.3-0.7-1.1-1.6-2.1-1.5
		C293.4,60,292.7,60.7,292.4,61.4z"/>
	<path class="st9" d="M315.1,87.7c0.5,1.2-0.2,3-1.9,4.2c-1.8-1-2.5-2.8-2-4c0.3-0.7,1.1-1.6,2.1-1.5
		C314.2,86.4,314.9,87.1,315.1,87.7z"/>
	<path class="st9" d="M312.1,76.3c-0.5,1.2,0.2,3,1.9,4.2c1.8-1,2.5-2.8,2-4c-0.3-0.7-1.1-1.6-2.1-1.5C313,75,312.3,75.7,312.1,76.3
		z"/>
	<path class="st9" d="M308.9,101.8c0.5,1.2-0.2,3-1.9,4.2c-1.8-1-2.5-2.8-2-4c0.3-0.7,1.1-1.6,2.1-1.5
		C307.9,100.4,308.6,101.1,308.9,101.8z"/>
	<path class="st9" d="M292.6,94.1c-0.5,1.2,0.2,3,1.9,4.2c1.8-1,2.5-2.8,2-4c-0.3-0.7-1.1-1.6-2.1-1.5
		C293.6,92.7,292.9,93.4,292.6,94.1z"/>
	<path class="st9" d="M311.7,66c0.5,1.2-0.2,3-1.9,4.2c-1.8-1-2.5-2.8-2-4c0.3-0.7,1.1-1.6,2.1-1.5C310.7,64.6,311.4,65.3,311.7,66z
		"/>
	<path class="st9" d="M276.1,67.5c-0.5,1.2,0.2,3,1.9,4.2c1.8-1,2.5-2.8,2-4c-0.3-0.7-1.1-1.6-2.1-1.5
		C277.1,66.2,276.4,66.9,276.1,67.5z"/>
	<path class="st9" d="M285.3,85.5c0.5,1.2-0.2,3-1.9,4.2c-1.8-1-2.5-2.8-2-4c0.3-0.7,1.1-1.6,2.1-1.5
		C284.4,84.2,285.1,84.9,285.3,85.5z"/>
	<path class="st9" d="M321.1,68.2c-0.5,1.2,0.2,3,1.9,4.2c1.8-1,2.5-2.8,2-4c-0.3-0.7-1.1-1.6-2.1-1.5
		C322.1,66.8,321.4,67.5,321.1,68.2z"/>
	<path class="st9" d="M269.7,123.1c0.5,1.2-0.2,3-1.9,4.2c-1.8-1-2.5-2.8-2-4c0.3-0.7,1.1-1.6,2.1-1.5
		C268.7,121.7,269.4,122.5,269.7,123.1z"/>
	<path class="st9" d="M254.8,91.7c-0.5,1.2,0.2,3,1.9,4.2c1.8-1,2.5-2.8,2-4c-0.3-0.7-1.1-1.6-2.1-1.5
		C255.8,90.4,255.1,91.1,254.8,91.7z"/>
	<path class="st9" d="M307.6,116.5c0.5,1.2-0.2,3-1.9,4.2c-1.8-1-2.5-2.8-2-4c0.3-0.7,1.1-1.6,2.1-1.5
		C306.6,115.1,307.3,115.8,307.6,116.5z"/>
	<path class="st9" d="M315.1,131.8c-0.5,1.2,0.2,3,1.9,4.2c1.8-1,2.5-2.8,2-4c-0.3-0.7-1.1-1.6-2.1-1.5
		C316,130.5,315.4,131.2,315.1,131.8z"/>
	<path class="st9" d="M323.3,114.9c0.5,1.2-0.2,3-1.9,4.2c-1.8-1-2.5-2.8-2-4c0.3-0.7,1.1-1.6,2.1-1.5
		C322.4,113.6,323.1,114.3,323.3,114.9z"/>
	<path class="st9" d="M294.3,75.2c-0.5,1.2,0.2,3,1.9,4.2c1.8-1,2.5-2.8,2-4c-0.3-0.7-1.1-1.6-2.1-1.5
		C295.3,73.9,294.6,74.6,294.3,75.2z"/>
	<path class="st9" d="M296.9,147.5c0.5,1.2-0.2,3-1.9,4.2c-1.8-1-2.5-2.8-2-4c0.3-0.7,1.1-1.6,2.1-1.5
		C296,146.1,296.7,146.8,296.9,147.5z"/>
	<path class="st9" d="M277.9,133.4c-0.5,1.2,0.2,3,1.9,4.2c1.8-1,2.5-2.8,2-4c-0.3-0.7-1.1-1.6-2.1-1.5
		C278.9,132,278.2,132.7,277.9,133.4z"/>
	<path class="st9" d="M294.5,108.2c0.5,1.2-0.2,3-1.9,4.2c-1.8-1-2.5-2.8-2-4c0.3-0.7,1.1-1.6,2.1-1.5
		C293.6,106.8,294.3,107.5,294.5,108.2z"/>
	<path class="st9" d="M302.6,133.4c-0.5,1.2,0.2,3,1.9,4.2c1.8-1,2.5-2.8,2-4c-0.3-0.7-1.1-1.6-2.1-1.5
		C303.5,132,302.8,132.7,302.6,133.4z"/>
	<path class="st9" d="M337.8,77c0.5,1.2-0.2,3-1.9,4.2c-1.8-1-2.5-2.8-2-4c0.3-0.7,1.1-1.6,2.1-1.5C336.9,75.6,337.6,76.3,337.8,77z
		"/>
	<path class="st9" d="M288.5,129.2c-0.5,1.2,0.2,3,1.9,4.2c1.8-1,2.5-2.8,2-4c-0.3-0.7-1.1-1.6-2.1-1.5
		C289.5,127.9,288.8,128.6,288.5,129.2z"/>
	<path class="st9" d="M336.1,99.1c0.5,1.2-0.2,3-1.9,4.2c-1.8-1-2.5-2.8-2-4c0.3-0.7,1.1-1.6,2.1-1.5
		C335.1,97.8,335.8,98.5,336.1,99.1z"/>
	<path class="st9" d="M258.6,107.9c-0.5,1.2,0.2,3,1.9,4.2c1.8-1,2.5-2.8,2-4c-0.3-0.7-1.1-1.6-2.1-1.5
		C259.6,106.6,258.9,107.3,258.6,107.9z"/>
	<path class="st9" d="M329.2,88.2c0.5,1.2-0.2,3-1.9,4.2c-1.8-1-2.5-2.8-2-4c0.3-0.7,1.1-1.6,2.1-1.5
		C328.2,86.8,328.9,87.5,329.2,88.2z"/>
	<path class="st9" d="M277.3,113.8c-0.5,1.2,0.2,3,1.9,4.2c1.8-1,2.5-2.8,2-4c-0.3-0.7-1.1-1.6-2.1-1.5
		C278.2,112.5,277.5,113.2,277.3,113.8z"/>
	<path class="st9" d="M274.9,99.4c0.5,1.2-0.2,3-1.9,4.2c-1.8-1-2.5-2.8-2-4c0.3-0.7,1.1-1.6,2.1-1.5C274,98,274.7,98.7,274.9,99.4z
		"/>
	<ellipse class="st2" cx="311.8" cy="87.3" rx="6.3" ry="6.3"/>
	<ellipse class="st2" cx="282.5" cy="88" rx="6.3" ry="6.3"/>
	<path class="st3" d="M277.5,88c0.2,0,2.3-0.2,3.8,1.5c1.3,1.5,1,3.3,1,3.6c0.4,0,2.1-0.2,3.4-1.7c1.3-1.4,1.4-3,1.4-3.4
		c-0.1,0-2.3,0.4-3.8-1.3c-1.4-1.6-1-3.5-1-3.7c-0.5,0.1-2.1,0.5-3.4,2C277.8,86.1,277.6,87.4,277.5,88z"/>
	<path class="st3" d="M306.8,87.6c0.2,0,2.3-0.2,3.8,1.5c1.3,1.5,1,3.3,1,3.6c0.4,0,2.1-0.2,3.4-1.7c1.3-1.4,1.4-3,1.4-3.4
		c-0.1,0-2.3,0.4-3.8-1.3c-1.4-1.6-1-3.5-1-3.7c-0.5,0.1-2.1,0.5-3.4,2C307.2,85.7,306.9,87,306.8,87.6z"/>
	<path class="st10" d="M309,111.3c-0.5,5.6-4.4,10.2-9.7,11.6c-5.2,1.3-10.8-0.8-13.8-5.4C293.3,115.4,301.1,113.3,309,111.3z"/>
	<path class="st5" d="M303.7,118.1c-0.8,0.7-2.2,1.8-4.4,2.5c-1.9,0.6-3.6,0.5-4.6,0.4c0.1-2.1,1.4-4,3.3-4.7
		C300.1,115.6,302.4,116.3,303.7,118.1z"/>
	<path class="st11" d="M261.7,43.3c-0.7-0.2-7.3-1.7-12.5,2.9c-0.5,0.4-4.7,4.1-4.7,9.3c0,8.5,11,17.6,20.6,14.9
		c7.8-2.2,10.7-11.2,10.9-12.1c0.8,1.2,4.5,6.4,11.1,7.4c7,1.1,14.4-2.9,18.2-10.1c0.7,1.7,3.6,8.3,10.7,11.1
		c1.1,0.4,9.7,3.8,14.4-1.1c2.6-2.7,2.6-6.6,2.5-8c6.2,0.1,10.1-4.2,9.8-7.2c-0.3-2.5-3.6-5-7.9-5.4c4.2-4.4,4.7-10.6,2.2-14
		c-3.1-4.1-11.4-4.8-16.8,1.1c-1.5-1.4-6.5-5.6-13.8-5.8c-8-0.1-15.5,4.7-19.6,12.4c-4-8.5-10.9-12.9-15.7-11.5
		c-4,1.2-6.5,6.5-7.3,8.3C262.3,38.6,261.9,41.5,261.7,43.3z"/>
</g>
<g>
	<path class="st12" d="M465.7,67.7c10.7,8.7,11.4,23,12.4,41.7c0.9,18,1.4,27.1-4.1,34.5c-13.2,17.9-52,18.2-65.9-0.2
		c-6.4-8.4-5.5-19.1-3.8-40.4c1.3-16.6,2.4-28.2,11.4-35.7c7.4-6.1,16.5-6.5,22.7-6.8C444.2,60.7,456.4,60.1,465.7,67.7z"/>
	<line class="st13" x1="467.8" y1="70.6" x2="409" y2="144.7"/>
	<line class="st13" x1="477.8" y1="107.6" x2="439.4" y2="158.5"/>
	<line class="st13" x1="437.7" y1="61.2" x2="405.1" y2="98.2"/>
	<line class="st13" x1="478.5" y1="127.4" x2="426.3" y2="61.7"/>
	<line class="st13" x1="406.6" y1="84.9" x2="460" y2="153.9"/>
	<line class="st13" x1="403.5" y1="121.2" x2="429.1" y2="155.7"/>
	<path class="st6" d="M407,35.9c2.2-2.5,12.5,2.1,25.1,10.6c2.3-12.3,6.2-20.8,9.1-20.6c2.9,0.2,5.5,8.9,6.3,20.6
		c22.1-16,26-14.7,26.9-13.8c2.7,2.8-4.7,17.7-17.2,25.1c-7.2,4.3-14.5,5-19.1,5c-5.4,5.4-19.1,18.4-23,15.6
		c-2.9-2.1,0.7-12.2,4.2-20.4C410.4,47.6,404.8,38.3,407,35.9z"/>
	<ellipse class="st2" cx="452.7" cy="96.3" rx="6.4" ry="6.3"/>
	<ellipse class="st2" cx="428.5" cy="96.9" rx="6.4" ry="6.3"/>
	<path class="st3" d="M446.7,97.1c0,2.6,2.1,5.1,4.8,5.1c2.6,0,4.9-2.3,4.8-5.1c0.1-2.8-2.2-5.1-4.8-5.1
		C448.8,92,446.7,94.5,446.7,97.1z"/>
	<path class="st3" d="M424.9,97.5c0,2.6,2.1,5.1,4.8,5.1c2.6,0,4.9-2.3,4.8-5.1c0.1-2.8-2.2-5.1-4.8-5.1
		C427,92.4,424.9,94.8,424.9,97.5z"/>
	<ellipse class="st14" cx="441.8" cy="124" rx="6.4" ry="6.3"/>
	<path class="st5" d="M438.1,125.2c0,2.1,1.6,4.1,3.7,4.1c2.1,0,3.8-1.8,3.7-4.1c0-2.2-1.7-4.1-3.7-4.1
		C439.7,121.1,438.1,123.1,438.1,125.2z"/>
</g>
<g>
	<path class="st6" d="M553.1,117.7c-1.5-0.8,6-19.3,8.7-26c2.7-6.7,4.2-10.4,6.7-15.6c6.6-14,10.3-18.5,8.7-24.6
		c-1.3-4.7-4.7-6.5-3.7-9.1c1.1-2.9,6.8-4.2,9-2c1.9,1.9-0.1,5.2,0.5,10.2c0.6,4.4,3.3,7.6,8.8,13.8c14.4,16.2,14.8,16.5,16.4,19
		c0,0,2.7,4.1,8.3,17.5c0.1,0.2,0.5,1.3,0.7,2.8c0.2,2.1,0,5.3-1.2,5.7c-1.4,0.5-3.8-3.2-4.8-5.3c-1.3-2.5-1.6-4.5-1.9-5.8
		c-0.8-3.4-2.7-6.1-6.4-11.4c-3.3-4.7-5.5-7.1-13.8-16.6c-3.1-3.6-5.6-6.4-7-8c-2,3.5-4.8,8.8-7.7,15.4c-2.8,6.5-3.6,9.5-5.3,13.8
		C563.6,106.1,554.5,118.5,553.1,117.7z"/>
	<path class="st15" d="M576.7,112.1c8.2,6.1,5.8,23.5-2.2,31.9c-6.3,6.6-15.1,6.6-20.3,6.6c-5.2,0-15.3,0-22.2-7.8
		c-6.7-7.6-10.3-22.9-2.6-30c5.8-5.3,16.6-4.9,25.1,2.3C562.3,109.6,571.3,108.1,576.7,112.1z"/>
	<path class="st15" d="M593.3,106.8c-8.2,6.1-5.8,23.5,2.2,31.9c6.3,6.6,15.1,6.6,20.3,6.6c5.2,0,15.3,0,22.2-7.8
		c6.7-7.6,10.3-22.9,2.6-30c-5.8-5.3-16.6-4.9-25.1,2.3C607.7,104.2,598.7,102.8,593.3,106.8z"/>
	<path class="st2" d="M540.3,126.1c0,2.7,2,5.2,4.7,5.2c2.6,0,4.8-2.3,4.7-5.2c0.1-2.8-2.1-5.2-4.7-5.2
		C542.3,120.9,540.3,123.4,540.3,126.1z"/>
	<path class="st2" d="M603.9,120.1c0,2.7,2,5.2,4.7,5.2c2.6,0,4.8-2.3,4.7-5.2c0.1-2.8-2.1-5.2-4.7-5.2
		C605.9,114.9,603.9,117.4,603.9,120.1z"/>
	<path class="st2" d="M555.6,125.8c0,2.7,2,5.2,4.7,5.2c2.6,0,4.8-2.3,4.7-5.2c0.1-2.8-2.1-5.2-4.7-5.2
		C557.6,120.7,555.6,123.2,555.6,125.8z"/>
	<path class="st2" d="M618.7,119.2c0,2.7,2,5.2,4.7,5.2c2.6,0,4.8-2.3,4.7-5.2c0.1-2.8-2.1-5.2-4.7-5.2
		C620.7,114.1,618.7,116.6,618.7,119.2z"/>
	<ellipse class="st3" cx="546.6" cy="125.3" rx="2.4" ry="2.5"/>
	<ellipse class="st3" cx="561.9" cy="125" rx="2.4" ry="2.5"/>
	<ellipse class="st3" cx="621.6" cy="119.3" rx="2.4" ry="2.5"/>
	<ellipse class="st3" cx="606.9" cy="120.4" rx="2.4" ry="2.5"/>
	<path class="st16" d="M605.9,134.9c0.8,0.9,3.2,0.6,4.4-1c0.7-1,0.9-2.4,0.3-3.5c-1.1-2-4.5-1.7-5.3-0.5c0,0-0.3,0.5-0.2,1
		c0.2,0.9,1.3,1.2,1.4,1.2c-0.1,0.1-0.9,0.6-0.9,1.6C605.5,133.9,605.5,134.5,605.9,134.9z"/>
	<path class="st17" d="M605.9,130.3c-0.1,0.1,0,0.6,0.3,0.9c0.4,0.5,0.9,0.5,1,0.8c0,0.3-0.5,0.4-0.8,1.1c-0.2,0.4-0.3,0.9-0.1,1
		c0.2,0.1,1.5-0.7,1.5-1.9C607.6,130.8,606.1,130.1,605.9,130.3z"/>
</g>
<path class="st3" d="M543.7,135.7c-0.3,0.9,3.9,5.3,8.9,5.4c5,0.1,9.4-4.3,9.1-5.2c0,0-0.1-0.3-0.3-0.4c-0.2-0.1-0.5,0.2-0.7,0.3
	c-0.2,0.2-0.3,0.2-0.4,0.4c-0.2,0.3-3.2,3.6-7.7,3.6c0,0-4.1-0.1-7.5-3.7c-0.1-0.1-0.2-0.2-0.2-0.2c-0.1-0.2-0.1-0.2-0.2-0.2
	c0,0-0.3-0.3-0.6-0.3C543.8,135.4,543.7,135.6,543.7,135.7z"/>
<path class="st18" d="M204.4,238.8c0,27.9-23.5,50.9-52.1,50.9s-52.1-23-52.1-50.9C134.8,238.8,169.6,238.8,204.4,238.8z"/>
<path class="st19" d="M96.1,236.8c-0.2,30.9,24.9,56.5,55.3,56.9c31,0.4,57.1-25.3,56.9-56.9"/>
<path class="st20" d="M92.1,236.7c-0.1,33,26.6,60.2,58.8,60.8c33.2,0.7,61.4-26.8,61.4-60.7"/>
<path class="st21" d="M147.6,237.3c-0.1,3,2.3,5.4,5.2,5.4s5.3-2.5,5.2-5.4C154.6,237.3,151.1,237.3,147.6,237.3z"/>
<line class="st22" x1="98.5" y1="251" x2="150.1" y2="238.1"/>
<line class="st22" x1="116.8" y1="280.9" x2="152.1" y2="239.2"/>
<line class="st22" x1="152.6" y1="293.3" x2="152.6" y2="239.1"/>
<line class="st22" x1="186.9" y1="281.3" x2="153.6" y2="239.1"/>
<line class="st22" x1="206.7" y1="250.7" x2="154.2" y2="238.5"/>
<path class="st2" d="M138.1,251.7c0,2.8,2.2,5.4,5.2,5.4c2.9,0,5.3-2.5,5.2-5.4c0.1-3-2.4-5.4-5.2-5.4
	C140.4,246.2,138.1,248.9,138.1,251.7z"/>
<path class="st2" d="M155.5,251.4c0,2.8,2.2,5.4,5.2,5.4c2.9,0,5.3-2.5,5.2-5.4c0.1-3-2.4-5.4-5.2-5.4
	C157.7,246,155.5,248.6,155.5,251.4z"/>
<path class="st3" d="M146.2,251.8c-0.1,1.5-1.3,2.6-2.7,2.6c-1.4,0-2.7-1.2-2.7-2.6s1.3-2.6,2.7-2.6
	C144.9,249.1,146.1,250.3,146.2,251.8z"/>
<path class="st3" d="M163.4,251.4c0,1.5-1.3,2.6-2.7,2.6c-1.4,0-2.7-1.2-2.7-2.6c0.1-1.5,1.3-2.6,2.7-2.6
	C162.1,248.8,163.4,250,163.4,251.4z"/>
<path class="st23" d="M166.1,261.9c-2,5.7-7.5,9.4-13.5,9.4c-5.9-0.1-11.2-3.9-13.2-9.5C148.4,261.8,157.3,261.9,166.1,261.9z"/>
<path class="st2" d="M149.5,268.6L149.5,268.6c-1.3,0-2.3-1-2.3-2.3v-1.2c0-0.8,0-1.5,0.1-2.3c0.8,0,1.5,0,2.3,0c0.8,0,1.6,0,2.3,0
	c0,0.8,0,1.5,0,2.3v1.2C151.9,267.6,150.8,268.6,149.5,268.6z"/>
<path class="st2" d="M156,268.6L156,268.6c-1.3,0-2.3-1-2.3-2.3v-1.2c0-0.8,0-1.5,0.1-2.3c0.8,0,1.5,0,2.3,0c0.8,0,1.6,0,2.3,0
	c0,0.8,0,1.5,0,2.3v1.2C158.4,267.6,157.3,268.6,156,268.6z"/>
<g>
	<path class="st24" d="M292,229.4c-6.8-11.3-13.8-15.1-19-16.4c-3.4-0.8-8.9-1.3-9.9-4.2c-0.5-1.6,0.2-3.6,1.7-4.6
		c2.4-1.5,6.1,0.3,12.6,3.3c5.9,2.8,8.9,4.2,11.4,7.3c2.7,3.2,3.3,6.1,4.5,5.9c1.1-0.2,1.2-2.8,2.1-6.4c1.2-4.5,3.1-7.6,6.9-13.6
		c3.1-5,6-9.5,7.9-9c1.4,0.4,1.6,3.4,1.7,3.8c0.2,3.9-2.4,5.9-6.2,11.8c-1.4,2.2-3.4,5.5-4.8,9.7c-1.3,4.2-1.5,7.8-1.4,10.3"/>
	<ellipse class="st25" cx="267.2" cy="261.4" rx="15.8" ry="14.1"/>
	<ellipse class="st25" cx="309.5" cy="237.2" rx="15.8" ry="14.1"/>
	<ellipse class="st25" cx="280.4" cy="236.9" rx="15.8" ry="14.1"/>
	<ellipse class="st25" cx="294.9" cy="312.5" rx="15.8" ry="14.1"/>
	<ellipse class="st25" cx="310.5" cy="287.3" rx="15.8" ry="14.1"/>
	<ellipse class="st25" cx="281.1" cy="287.8" rx="15.8" ry="14.1"/>
	<ellipse class="st25" cx="323.7" cy="261.6" rx="15.8" ry="14.1"/>
	<ellipse class="st25" cx="295.1" cy="262.3" rx="15.8" ry="14.1"/>
	<ellipse class="st2" cx="283.1" cy="255.8" rx="7.1" ry="6.4"/>
	<path class="st3" d="M277.7,255.9c0,2.6,2.3,5.1,5.4,5.1c2.9,0,5.4-2.3,5.4-5.1c0.1-2.8-2.4-5.1-5.4-5.1
		C280,250.8,277.7,253.3,277.7,255.9z"/>
	<path class="st26" d="M309.5,278.1c-2.1,5.4-7.6,8.9-13.8,8.9c-6.1-0.1-11.5-3.6-13.5-8.9C291.3,278,300.4,278.1,309.5,278.1z"/>
	<path class="st27" d="M285.7,278.5c0.1,0.8,0.3,2,1.2,3c1.7,2,4.6,2,8.6,2.1c4.2,0.1,7.5,0.1,9.3-2.1c0.9-1,1.1-2.2,1.1-3
		C299.2,278.6,292.4,278.6,285.7,278.5z"/>
</g>
<path class="st28" d="M491.9,237.5c0,27.9-23.5,50.9-52.1,50.9c-28.6,0-52.1-23-52.1-50.9C422.3,237.5,457.1,237.5,491.9,237.5z"/>
<path class="st29" d="M383.6,235.5c-0.2,30.9,24.9,56.5,55.3,56.9c31,0.4,57.1-25.3,56.9-56.9"/>
<path class="st30" d="M379.6,235.5c-0.1,33,26.6,60.2,58.8,60.8c33.2,0.7,61.4-26.8,61.4-60.7"/>
<path class="st31" d="M477.6,247.3c-1.4,0-2.9-1.4-3.4-3.6c1.7-1.4,3.8-1.5,4.9-0.5c0.6,0.6,1.1,1.7,0.7,2.8
	C479.4,246.8,478.4,247.2,477.6,247.3z"/>
<path class="st31" d="M437.5,282.5c-0.6-1.3,0.2-3.2,2.1-4.5c1.9,1.1,2.8,3,2.2,4.4c-0.3,0.8-1.2,1.7-2.3,1.6
	C438.5,283.9,437.8,283.2,437.5,282.5z"/>
<path class="st31" d="M452.9,280.3c-1-1-1.1-3.1,0.2-5c2.2,0.3,3.7,1.7,3.8,3.1c0,0.9-0.5,2-1.5,2.4
	C454.4,281.2,453.4,280.8,452.9,280.3z"/>
<path class="st31" d="M463.8,275c-1.3-0.7-1.9-2.6-1.3-4.8c2.2-0.4,4,0.5,4.5,1.9c0.3,0.8,0.2,2.1-0.7,2.7
	C465.6,275.5,464.5,275.4,463.8,275z"/>
<path class="st31" d="M473.1,266.1c-1.4-0.5-2.3-2.3-1.9-4.6c2.1-0.7,4.1,0,4.7,1.2c0.4,0.8,0.4,2-0.3,2.8
	C474.9,266.3,473.9,266.4,473.1,266.1z"/>
<path class="st31" d="M480.6,255.6c-1.4-0.2-2.7-1.8-2.8-4.1c1.9-1.1,4-0.9,4.9,0.2c0.5,0.7,0.9,1.9,0.3,2.8
	C482.4,255.4,481.3,255.7,480.6,255.6z"/>
<path class="st31" d="M486.6,244c-1.4,0.4-3.2-0.5-4.3-2.5c1.3-1.8,3.2-2.5,4.5-1.8c0.8,0.4,1.6,1.4,1.4,2.5
	C488.2,243.1,487.4,243.8,486.6,244z"/>
<path class="st31" d="M426.6,280.3c1-1,1.1-3.1-0.2-5c-2.2,0.3-3.7,1.7-3.8,3.1c0,0.9,0.5,2,1.5,2.4
	C425.1,281.2,426,280.8,426.6,280.3z"/>
<path class="st31" d="M415.6,275c1.3-0.7,1.9-2.6,1.3-4.8c-2.2-0.4-4,0.5-4.5,1.9c-0.3,0.8-0.2,2.1,0.7,2.7
	C413.9,275.5,415,275.4,415.6,275z"/>
<path class="st31" d="M406.3,266.1c1.4-0.5,2.3-2.3,1.9-4.6c-2.1-0.7-4.1,0-4.7,1.2c-0.4,0.8-0.4,2,0.3,2.8
	C404.5,266.3,405.6,266.4,406.3,266.1z"/>
<path class="st31" d="M398.9,255.6c1.4-0.2,2.7-1.8,2.8-4.1c-1.9-1.1-4-0.9-4.9,0.2c-0.5,0.7-0.9,1.9-0.3,2.8
	C397.1,255.4,398.1,255.7,398.9,255.6z"/>
<path class="st31" d="M392.8,244c1.4,0.4,3.2-0.5,4.3-2.5c-1.3-1.8-3.2-2.5-4.5-1.8c-0.8,0.4-1.6,1.4-1.4,2.5
	C391.3,243.1,392.1,243.8,392.8,244z"/>
<path class="st31" d="M455.6,272.7c-1.3-0.7-1.8-2.7-1.1-4.8c2.2-0.3,4,0.6,4.5,2c0.3,0.8,0.1,2.1-0.8,2.7
	C457.3,273.2,456.2,273.1,455.6,272.7z"/>
<path class="st31" d="M464.3,266.2c-1.4-0.4-2.4-2.2-2.1-4.5c2.1-0.8,4.1-0.2,4.8,1c0.4,0.7,0.5,2-0.2,2.8
	C466.1,266.3,465.1,266.4,464.3,266.2z"/>
<path class="st31" d="M472,257.6c-1.4-0.2-2.6-1.9-2.7-4.2c2-1.1,4-0.7,4.9,0.4c0.5,0.7,0.8,1.9,0.2,2.8
	C473.8,257.4,472.7,257.7,472,257.6z"/>
<path class="st31" d="M444.5,277.4c-0.9-1.1-0.6-3.2,1-4.9c2.1,0.6,3.4,2.2,3.2,3.7c-0.1,0.8-0.8,1.9-1.9,2.2
	C445.9,278.6,444.9,278,444.5,277.4z"/>
<path class="st31" d="M402.3,247.3c1.4,0,2.9-1.4,3.4-3.6c-1.7-1.4-3.8-1.5-4.9-0.5c-0.6,0.6-1.1,1.7-0.7,2.8
	C400.6,246.8,401.6,247.2,402.3,247.3z"/>
<path class="st31" d="M424.4,272.7c1.3-0.7,1.8-2.7,1.1-4.8c-2.2-0.3-4,0.6-4.5,2c-0.3,0.8-0.1,2.1,0.8,2.7
	C422.6,273.2,423.7,273.1,424.4,272.7z"/>
<path class="st31" d="M415.6,266.2c1.4-0.4,2.4-2.2,2.1-4.5c-2.1-0.8-4.1-0.2-4.8,1c-0.4,0.7-0.5,2,0.2,2.8
	C413.8,266.3,414.9,266.4,415.6,266.2z"/>
<path class="st31" d="M407.9,257.6c1.4-0.2,2.6-1.9,2.7-4.2c-2-1.1-4-0.7-4.9,0.4c-0.5,0.7-0.8,1.9-0.2,2.8
	C406.2,257.4,407.2,257.7,407.9,257.6z"/>
<path class="st31" d="M435.5,277.4c0.9-1.1,0.6-3.2-1-4.9c-2.1,0.6-3.4,2.2-3.2,3.7c0.1,0.8,0.8,1.9,1.9,2.2
	C434.1,278.6,435,278,435.5,277.4z"/>
<path class="st2" d="M425.6,246c0,2.8,2.2,5.4,5.2,5.4c2.9,0,5.3-2.5,5.2-5.4c0.1-3-2.4-5.4-5.2-5.4
	C427.8,240.6,425.6,243.2,425.6,246z"/>
<path class="st2" d="M442.4,245.9c0,2.8,2.2,5.4,5.2,5.4c2.9,0,5.3-2.5,5.2-5.4c0.1-3-2.4-5.4-5.2-5.4
	C444.6,240.4,442.4,243.1,442.4,245.9z"/>
<path class="st3" d="M450.4,245.7c0,1.5-1.3,2.6-2.7,2.6c-1.4,0-2.7-1.2-2.7-2.6c0.1-1.5,1.3-2.6,2.7-2.6
	C449.1,243.1,450.4,244.2,450.4,245.7z"/>
<path class="st3" d="M433.6,245.7c-0.1,1.5-1.3,2.6-2.7,2.6c-1.4,0-2.7-1.2-2.7-2.6s1.3-2.6,2.7-2.6
	C432.4,243.1,433.6,244.2,433.6,245.7z"/>
<path class="st3" d="M429.2,256.5c-0.4,0.9,4.4,5.6,9.9,5.7c5.5,0.1,10.4-4.5,10-5.5c0,0-0.1-0.3-0.4-0.4c-0.2-0.1-0.5,0.2-0.7,0.4
	c-0.2,0.2-0.3,0.2-0.5,0.5c-0.3,0.4-3.6,3.8-8.5,3.7c0,0-4.6-0.1-8.4-3.9c-0.1-0.1-0.2-0.2-0.2-0.2c-0.1-0.2-0.2-0.2-0.2-0.2
	c0,0-0.3-0.3-0.6-0.3C429.4,256.1,429.2,256.4,429.2,256.5z"/>
<path class="st32" d="M529.5,314.6c2.1,5.4,25.1,4,44.1-4.2c24.3-10.5,36.6-29.7,40.2-35.7c3.4-5.8,14.7-25.5,11.4-48.3
	c-0.6-4.3-2.4-13.3-8.8-22.1c-2.4-3.2-8.1-11-12.3-9.8c-4.5,1.3-3.1,11.7-6.2,27c-0.3,1.5-4.4,20.6-15.9,38.6
	c-6.2,9.7-12.9,16-26.2,28.7C536.4,307.1,528.1,311.2,529.5,314.6z"/>
<path class="st33" d="M582.6,258c-6.2,8.8-12,15.2-16,19.4c-5.3,5.4-11.3,10.8-25.4,23.8c-10.5,9.7-12.6,11.8-11.9,13.7
	c1.7,5,19.2,4.1,31,1.6c6.7-1.4,24.6-5.4,40-21.3c8.1-8.4,12.5-17,14.9-22.5C604.3,267.8,593.5,262.9,582.6,258z"/>
<path class="st33" d="M582.5,253.8c-1.5-1.2-11-8.3-23.6-6c-15.9,2.9-21.8,18.1-22.5,19.8c-2.8,7.4-2.9,17.1,0.2,18.4
	c2.4,1,5.1-3.8,16.2-11.7c3.9-2.8,7.1-5,11.6-7c6.6-2.9,12.6-3.7,16.6-3.9c4.2-0.5,8.3-1,12.5-1.5
	C589.9,259.2,586.2,256.5,582.5,253.8z"/>
<path class="st33" d="M615.7,268.9c1.9,0.4,13.5,2.7,20.1,13.8c8.3,13.9,0.9,28.4,0,30c-3.8,7-10.9,13.5-13.9,12
	c-2.4-1.1-0.5-6.3-1.9-19.9c-0.5-4.7-0.9-8.7-2.4-13.3c-2.2-6.8-5.6-11.8-8.1-15c-2.4-3.5-4.8-6.9-7.1-10.4
	C606.8,267,611.3,267.9,615.7,268.9z"/>
<path class="st34" d="M529.1,315.1c10-2.1,29.7-7.6,47.8-24.1c10-9.1,16.3-18.6,20.2-25.8"/>
<path class="st2" d="M599.2,231c0,2.8,2.2,5.4,5.2,5.4c2.9,0,5.3-2.5,5.2-5.4c0.1-3-2.4-5.4-5.2-5.4
	C601.4,225.6,599.2,228.2,599.2,231z"/>
<path class="st2" d="M611.6,231.4c0,2.8,2.2,5.4,5.2,5.4c2.9,0,5.3-2.5,5.2-5.4c0.1-3-2.4-5.4-5.2-5.4
	C613.9,225.9,611.6,228.6,611.6,231.4z"/>
<path class="st3" d="M605.9,232.5c0,1.5-1.3,2.6-2.7,2.6c-1.4,0-2.7-1.2-2.7-2.6c0.1-1.5,1.3-2.6,2.7-2.6
	C604.6,229.9,605.9,231,605.9,232.5z"/>
<path class="st3" d="M620.4,229.6c0,1.5-1.3,2.6-2.7,2.6c-1.4,0-2.7-1.2-2.7-2.6c0.1-1.5,1.3-2.6,2.7-2.6
	C619.1,227,620.4,228.2,620.4,229.6z"/>
<ellipse class="st14" cx="608" cy="249.4" rx="6.9" ry="6.8"/>
<path class="st5" d="M604,250.1c0,2.3,1.7,4.4,4.1,4.4c2.2,0,4.1-2,4.1-4.4c0-2.4-1.8-4.4-4.1-4.4C605.8,245.7,604,247.8,604,250.1z
	"/>
<path class="st35" d="M300.7,256.4c0.3-3,2.6-5.3,5.2-5.4c2.7,0,4.9,2.3,5.3,5.4"/>
</svg>
