<svg id="Layer_1" data-name="Layer 1" xmlns="http://www.w3.org/2000/svg" viewBox="0 0 90.08154 146.95926"><defs><style>.cls-1{fill:#439b45;stroke:#2e5027;}.cls-1,.cls-2,.cls-3,.cls-4,.cls-5{stroke-miterlimit:10;}.cls-1,.cls-2{stroke-width:4px;}.cls-2{fill:#b0509e;stroke:#902680;}.cls-3,.cls-6{fill:#fff;}.cls-3{stroke:#fff;}.cls-4{stroke:#000;}.cls-5{stroke:#4f2061;}</style></defs><title>grape</title><path class="cls-1" d="M405.23656,125.9721c-6.691-11.9993-13.4577-16.01059-18.57654-17.365-3.34277-.88449-8.70532-1.35632-9.69214-4.4422a4.59916,4.59916,0,0,1,1.61536-4.846c2.32245-1.62671,6.00024.26651,12.33173,3.52582,5.78046,2.97562,8.67072,4.46344,11.17169,7.68054,2.61328,3.36154,3.25256,6.45544,4.42212,6.28409,1.09253-.16006,1.1571-2.9512,2.09473-6.74957,1.18121-4.78537,3.03735-8.00031,6.74957-14.43011,3.02777-5.24426,5.82385-10.08725,7.67151-9.57986,1.39575.3833,1.59448,3.63974,1.61536,4.03839.21722,4.14594-2.384,6.19788-6.0285,12.5238a47.24783,47.24783,0,0,0-4.65485,10.24072,34.76636,34.76636,0,0,0-1.39648,10.93893" transform="translate(-363.60812 -84.0131)"/><ellipse class="cls-2" cx="17.46721" cy="75.83137" rx="15.46721" ry="14.9197"/><ellipse class="cls-2" cx="58.78444" cy="50.26906" rx="15.46721" ry="14.9197"/><ellipse class="cls-2" cx="30.27495" cy="49.96858" rx="15.46721" ry="14.9197"/><ellipse class="cls-2" cx="44.48985" cy="130.03956" rx="15.46721" ry="14.9197"/><ellipse class="cls-2" cx="59.73648" cy="103.29517" rx="15.46721" ry="14.9197"/><ellipse class="cls-2" cx="30.96946" cy="103.84269" rx="15.46721" ry="14.9197"/><ellipse class="cls-2" cx="72.61432" cy="76.09831" rx="15.46721" ry="14.9197"/><ellipse class="cls-2" cx="44.66858" cy="76.82455" rx="15.46721" ry="14.9197"/><ellipse class="cls-3" cx="32.91235" cy="69.99317" rx="6.93855" ry="6.79598"/><path class="cls-4" d="M412.13873,155.20516c.41144.41162,3.09558-3.43463,7.20923-3.33292,3.9115.09671,6.29932,3.69336,6.66785,3.33292.45154-.44159-2.16-6.79135-6.93854-6.796C414.30865,148.40453,411.65655,154.72277,412.13873,155.20516Z" transform="translate(-363.60812 -84.0131)"/><path class="cls-4" d="M391.26369,154.08783a5.3946,5.3946,0,0,0,5.23059,5.43982,5.444,5.444,0,0,0,0-10.87962A5.39458,5.39458,0,0,0,391.26369,154.08783Z" transform="translate(-363.60812 -84.0131)"/><path class="cls-5" d="M422.37506,177.56921a14.15036,14.15036,0,0,1-26.6747-.07021Z" transform="translate(-363.60812 -84.0131)"/><path class="cls-6" d="M399.07946,178.04857a5.7937,5.7937,0,0,0,1.14044,3.20374c1.64984,2.10352,4.50085,2.1452,8.41864,2.20251,4.10712.06006,7.36633.10773,9.117-2.17719a5.72408,5.72408,0,0,0,1.08862-3.18414Q408.96178,178.071,399.07946,178.04857Z" transform="translate(-363.60812 -84.0131)"/></svg>