<?xml version="1.0" encoding="utf-8"?>
<!-- Generator: Adobe Illustrator 21.0.2, SVG Export Plug-In . SVG Version: 6.00 Build 0)  -->
<svg version="1.1" id="Layer_1" xmlns="http://www.w3.org/2000/svg" xmlns:xlink="http://www.w3.org/1999/xlink" x="0px" y="0px"
	 viewBox="0 0 841.9 595.3" style="enable-background:new 0 0 841.9 595.3;" xml:space="preserve">
<style type="text/css">
	.st0{fill:#439B45;stroke:#2E5027;stroke-width:4;stroke-miterlimit:10;}
	.st1{fill:#B0509E;stroke:#902680;stroke-width:4;stroke-miterlimit:10;}
	.st2{fill:#FFFFFF;stroke:#FFFFFF;stroke-miterlimit:10;}
	.st3{stroke:#000000;stroke-miterlimit:10;}
	.st4{stroke:#4F2061;stroke-miterlimit:10;}
	.st5{fill:#FFFFFF;}
	.st6{fill:none;stroke:#000000;stroke-width:3;stroke-miterlimit:10;}
	.st7{font-family:'AmaticSC-Regular';}
	.st8{font-size:18px;}
</style>
<g>
	<path class="st0" d="M429.2,375.7c-6.8-11.3-13.8-15.1-19-16.4c-3.4-0.8-8.9-1.3-9.9-4.2c-0.5-1.6,0.2-3.6,1.7-4.6
		c2.4-1.5,6.1,0.3,12.6,3.3c5.9,2.8,8.9,4.2,11.4,7.3c2.7,3.2,3.3,6.1,4.5,5.9c1.1-0.2,1.2-2.8,2.1-6.4c1.2-4.5,3.1-7.6,6.9-13.6
		c3.1-5,6-9.5,7.9-9c1.4,0.4,1.6,3.4,1.7,3.8c0.2,3.9-2.4,5.9-6.2,11.8c-1.4,2.2-3.4,5.5-4.8,9.7c-1.3,4.2-1.5,7.8-1.4,10.3"/>
	<ellipse class="st1" cx="404.4" cy="407.7" rx="15.8" ry="14.1"/>
	<ellipse class="st1" cx="446.7" cy="383.6" rx="15.8" ry="14.1"/>
	<ellipse class="st1" cx="417.5" cy="383.3" rx="15.8" ry="14.1"/>
	<ellipse class="st1" cx="432.1" cy="458.9" rx="15.8" ry="14.1"/>
	<ellipse class="st1" cx="447.7" cy="433.6" rx="15.8" ry="14.1"/>
	<ellipse class="st1" cx="418.3" cy="434.2" rx="15.8" ry="14.1"/>
	<ellipse class="st1" cx="460.9" cy="408" rx="15.8" ry="14.1"/>
	<ellipse class="st1" cx="432.3" cy="408.7" rx="15.8" ry="14.1"/>
	<ellipse class="st2" cx="420.2" cy="402.2" rx="7.1" ry="6.4"/>
	<path class="st3" d="M414.9,402.3c0,2.6,2.3,5.1,5.4,5.1c2.9,0,5.4-2.3,5.4-5.1c0.1-2.8-2.4-5.1-5.4-5.1
		C417.2,397.1,414.9,399.6,414.9,402.3z"/>
	<path class="st4" d="M446.7,424.4c-2.1,5.4-7.6,8.9-13.8,8.9c-6.1-0.1-11.5-3.6-13.5-8.9C428.5,424.4,437.6,424.4,446.7,424.4z"/>
	<path class="st5" d="M422.9,424.9c0.1,0.8,0.3,2,1.2,3c1.7,2,4.6,2,8.6,2.1c4.2,0.1,7.5,0.1,9.3-2.1c0.9-1,1.1-2.2,1.1-3
		C436.3,424.9,429.6,424.9,422.9,424.9z"/>
</g>
<path class="st6" d="M437.9,404.8c0.3-3,2.6-5.3,5.2-5.4c2.7,0,4.9,2.3,5.3,5.4"/>
<text transform="matrix(1 0 0 1 373.2412 503.0908)" class="st7 st8">i’m eternally grapeful!</text>
</svg>
