<?xml version="1.0" encoding="utf-8"?>
<!-- Generator: Adobe Illustrator 21.0.2, SVG Export Plug-In . SVG Version: 6.00 Build 0)  -->
<svg version="1.1" id="Layer_1" xmlns="http://www.w3.org/2000/svg" xmlns:xlink="http://www.w3.org/1999/xlink" x="0px" y="0px"
	 viewBox="0 0 841.9 595.3" style="enable-background:new 0 0 841.9 595.3;" xml:space="preserve">
<style type="text/css">
	.st0{fill:#5CA645;stroke:#5CA645;stroke-width:4;stroke-miterlimit:10;}
	.st1{fill:#A9DEE9;stroke:#78CFE1;stroke-width:4;stroke-miterlimit:10;}
	.st2{fill:none;stroke:#3D5C2B;stroke-width:2;stroke-miterlimit:10;}
	.st3{fill:#5CA645;stroke:#3D5C2B;stroke-width:2;stroke-miterlimit:10;}
</style>
<rect x="-0.8" y="1.7" class="st0" width="840.7" height="333.5"/>
<path class="st1" d="M840.9,231.5c-3.7-2.9-33.5-25.6-71.6-16.9c-31.6,7.2-56.4,33.2-63,66c-6.5-13.9-22.6-42.1-55.1-56.8
	c-56.3-25.4-130.9,3.9-157.5,55c-11.4,21.8-11.8,43.3-10.9,56.3c-5.2-6.3-33.4-39.4-81.3-43.1c-11.7-0.9-58.2-4.5-86.6,31
	c-20.7,25.9-25,64.1-8.8,89.7c23.4,37.1,91.4,50.3,147.6,10.1c11.1,13.7,41.1,46.6,90.3,57.3c63.6,13.9,133.3-14.8,177.8-72.7
	c1.6,2.1,24.4,31.4,63.1,29.4c36.4-1.9,55.6-29.9,57.5-32.8"/>
<path class="st1" d="M0,191.7c23.1-3.2,63.6-5.3,109.4,11.8c25.1,9.4,44.7,22,58.9,33c43.1-41.7,102.3-35.7,126.5-2.7
	c16.5,22.4,17,57.2,3.7,88.2c3.5-0.9,31.5-7.8,50.4,10.6c21.7,21,17,61.5,2.5,80.3c-20.9,26.9-76.6,28-129-13.1
	c-4.8,2.6-55,28.3-99.6,0C105.1,388.5,95,373,89.7,362.9c-5.1,5.9-20.9,22.6-46.7,27.6c-19.7,3.8-35.6-1-43-3.9"/>
<path class="st2" d="M574.8,136c5.3-1.5,12.4-4.3,18.3-10.4c8.4-8.6,9.3-18.5,12.2-18.3c5,0.4,5.5,30.3,9.6,30.5
	c3.1,0.1,5.2-17.4,9.6-17.4c4,0,5.6,13.9,9.6,13.9c4.9,0,8-22.1,11.3-21.8c1.9,0.2,1.3,7.5,6.1,15.7c2.7,4.6,6.2,7.7,8.7,9.6"/>
<path class="st2" d="M59.4,183.6c6-20.4,9.5-25.2,11.7-24.9c4.4,0.6,4.5,21.8,8.8,22c1.8,0.1,3.6-3.4,7.2-10.4c3.2-6,3.5-8.1,5-8.3
	c4-0.5,7.1,14.6,11.2,14.3c4.2-0.3,4.8-15.8,8.7-16.2c2-0.2,5,3.7,9.4,18.5"/>
<path class="st2" d="M176.2,135.2c4.1-11.7,6.5-13,7.7-12.9c0.4,0,1,0.3,3.7,4.9c1.6,2.8,2.8,5.2,3.7,7c1.4-1.1,3.5-2.9,5.5-5.5
	c2.4-3.3,3-5.6,4-5.5c2.3,0.2,2.6,11.9,4,12c1.9,0.1,2.3-20.6,6.1-21.1c1.9-0.3,4.8,4.3,9.5,19.9"/>
<path class="st2" d="M431.5,273.5c4.1-11.7,6.5-13,7.7-12.9c0.4,0,1,0.3,3.7,4.9c1.6,2.8,2.8,5.2,3.7,7c1.4-1.1,3.5-2.9,5.5-5.5
	c2.4-3.3,3-5.6,4-5.5c2.3,0.2,2.6,11.9,4,12c1.9,0.1,2.3-20.6,6.1-21.1c1.9-0.3,4.8,4.3,9.5,19.9"/>
<path class="st2" d="M312.2,231.3c5.3-1.5,12.4-4.3,18.3-10.4c8.4-8.6,9.3-18.5,12.2-18.3c5,0.4,5.5,30.3,9.6,30.5
	c3.1,0.1,5.2-17.4,9.6-17.4c4,0,5.6,13.9,9.6,13.9c4.9,0,8-22.1,11.3-21.8c1.9,0.2,1.3,7.5,6.1,15.7c2.7,4.6,6.2,7.7,8.7,9.6"/>
<path class="st2" d="M470.5,194.4c5.3-1.5,12.4-4.3,18.3-10.4c8.4-8.6,9.3-18.5,12.2-18.3c5,0.4,5.5,30.3,9.6,30.5
	c3.1,0.1,5.2-17.4,9.6-17.4c4,0,5.6,13.9,9.6,13.9c4.9,0,8-22.1,11.3-21.8c1.9,0.2,1.3,7.5,6.1,15.7c2.7,4.6,6.2,7.7,8.7,9.6"/>
<path class="st2" d="M336.4,182.3c6-20.4,9.5-25.2,11.7-24.9c4.4,0.6,4.5,21.8,8.8,22c1.8,0.1,3.6-3.4,7.2-10.4c3.2-6,3.5-8.1,5-8.3
	c4-0.5,7.1,14.6,11.2,14.3c4.2-0.3,4.8-15.8,8.7-16.2c2-0.2,5,3.7,9.4,18.5"/>
<path class="st2" d="M170.2,196c2.3-2.3,5.9-6.1,9.6-11.3c6.9-10,7.8-16.5,10.4-16.5c5.5,0,8.1,28.9,11.3,28.7
	c3.8-0.2,4.1-40.7,7.8-40.9c1.9-0.1,3.1,9.8,10.4,26.1c3.1,6.8,5.7,12.5,7.8,12.2c4.4-0.7,2.6-27.6,5.2-27.8
	c2.6-0.2,6,24.6,9.6,24.4c2.6-0.2,2.6-13.4,6.1-13.9c2.7-0.4,6,6.6,8.7,13.9"/>
<path class="st2" d="M18.7,129c2.3-2.3,5.9-6.1,9.6-11.3c6.9-10,7.8-16.5,10.4-16.5c5.5,0,8.1,28.9,11.3,28.7
	c3.8-0.2,4.1-40.7,7.8-40.9c1.9-0.1,3.1,9.8,10.4,26.1c3.1,6.8,5.7,12.5,7.8,12.2c4.4-0.7,2.6-27.6,5.2-27.8
	c2.6-0.2,6,24.6,9.6,24.4c2.6-0.2,2.6-13.4,6.1-13.9c2.7-0.4,6,6.6,8.7,13.9"/>
<path class="st2" d="M726.2,116.9c2.3-2.3,5.9-6.1,9.6-11.3c6.9-10,7.8-16.5,10.4-16.5c5.5,0,8.1,28.9,11.3,28.7
	c3.8-0.2,4.1-40.7,7.8-40.9c1.9-0.1,3.1,9.8,10.4,26.1c3.1,6.8,5.7,12.5,7.8,12.2c4.4-0.7,2.6-27.6,5.2-27.8
	c2.6-0.2,6,24.6,9.6,24.4c2.6-0.2,2.6-13.4,6.1-13.9c2.7-0.4,6,6.6,8.7,13.9"/>
<path class="st3" d="M665.5,180.5c6-20.4,9.5-25.2,11.7-24.9c4.4,0.6,4.5,21.8,8.8,22c1.8,0.1,3.6-3.4,7.2-10.4c3.2-6,3.5-8.1,5-8.3
	c4-0.5,7.1,14.6,11.2,14.3c4.2-0.3,4.8-15.8,8.7-16.2c2-0.2,5,3.7,9.4,18.5"/>
</svg>
