<?xml version="1.0" encoding="utf-8"?>
<!-- Generator: Adobe Illustrator 21.0.2, SVG Export Plug-In . SVG Version: 6.00 Build 0)  -->
<svg version="1.1" id="Layer_1" xmlns="http://www.w3.org/2000/svg" xmlns:xlink="http://www.w3.org/1999/xlink" x="0px" y="0px"
	 viewBox="0 0 841.9 595.3" style="enable-background:new 0 0 841.9 595.3;" xml:space="preserve">
<style type="text/css">
	.st0{fill:none;stroke:#EF3E23;stroke-width:0.25;stroke-miterlimit:10;}
	.st1{fill:#EFD18C;stroke:#C4A974;stroke-width:4;stroke-miterlimit:10;}
	.st2{fill:none;stroke:#315027;stroke-width:4;stroke-miterlimit:10;}
	.st3{fill:#6E5B39;stroke:#8E794F;stroke-width:4;stroke-miterlimit:10;}
	.st4{fill:#EFD18C;stroke:#C4A974;stroke-width:2;stroke-miterlimit:10;}
	.st5{fill:#FFFFFF;stroke:#FFFFFF;stroke-miterlimit:10;}
	.st6{stroke:#000000;stroke-miterlimit:10;}
	.st7{font-family:'AmaticSC-Regular';}
	.st8{font-size:18px;}
</style>
<path class="st0" d="M431,326C431,326,431,326,431,326"/>
<path class="st0" d="M431,326C431,326,431,326,431,326"/>
<g>
	<path class="st1" d="M431.1,321c-7.7,0-15.4,0-23,0c6.3,12.8,7.2,23.1,6.8,30.5c-0.5,7.2-2.5,14.1,2.4,18.6c3.6,3.4,9.4,4,13.8,3.9
		"/>
	<path class="st1" d="M431,321c7.7,0,15.4,0,23,0c-6.3,12.8-7.2,23.1-6.8,30.5c0.5,7.3,2.5,14.1-2.4,18.6c-3.6,3.4-9.5,4-14.1,3.9"
		/>
</g>
<path class="st2" d="M402.4,333"/>
<path class="st3" d="M430.9,265.4c-6.5,0.1-27.5,0.4-41.5,16.7c-12.4,14.4-17.3,38.8-7.6,48.4c7.6,7.5,17.8-0.3,49.1-0.2
	c32.6,0.1,43.1,8.6,50.9,1c9.9-9.8,4.8-35.9-9.3-50.9C457.9,265,437.3,265.3,430.9,265.4z"/>
<ellipse class="st4" cx="445.1" cy="284.5" rx="7.3" ry="7"/>
<ellipse class="st4" cx="394.7" cy="307.9" rx="6.4" ry="6.3"/>
<ellipse class="st4" cx="466.6" cy="309.4" rx="3.8" ry="4"/>
<ellipse class="st4" cx="426.2" cy="312.8" rx="5.9" ry="5.7"/>
<ellipse class="st4" cx="408" cy="282.6" rx="4.4" ry="4.2"/>
<path class="st5" d="M419.6,344.9c0,2.8,2.2,5.4,5.2,5.4c2.9,0,5.3-2.5,5.2-5.4c0.1-3-2.4-5.4-5.2-5.4
	C421.8,339.5,419.6,342.1,419.6,344.9z"/>
<path class="st6" d="M427.7,344.6c-0.1,1.5-1.3,2.6-2.7,2.6c-1.4,0-2.7-1.2-2.7-2.6s1.3-2.6,2.7-2.6
	C426.4,342,427.6,343.1,427.7,344.6z"/>
<path class="st5" d="M432.2,344.6c0,2.8,2.2,5.4,5.2,5.4c2.9,0,5.3-2.5,5.2-5.4c0.1-3-2.4-5.4-5.2-5.4
	C434.4,339.2,432.2,341.8,432.2,344.6z"/>
<path class="st6" d="M440.2,344.3c-0.1,1.5-1.3,2.6-2.7,2.6c-1.4,0-2.7-1.2-2.7-2.6s1.3-2.6,2.7-2.6
	C439,341.7,440.2,342.8,440.2,344.3z"/>
<path class="st6" d="M421.5,355c-0.4,0.9,4.4,5.6,9.9,5.6c5.5,0,10.4-4.6,10-5.6c0,0-0.1-0.3-0.4-0.4c-0.2-0.1-0.5,0.2-0.7,0.4
	c-0.2,0.2-0.3,0.3-0.4,0.5c-0.2,0.4-3.5,3.8-8.5,3.8c0,0-4.6,0-8.4-3.9c-0.1-0.1-0.2-0.2-0.2-0.2c-0.1-0.2-0.2-0.2-0.2-0.2
	c0,0-0.3-0.3-0.6-0.3C421.7,354.7,421.5,355,421.5,355z"/>
<text transform="matrix(1 0 0 1 381.2427 247.0234)" class="st7 st8">I have so mushroom</text>
<text transform="matrix(1 0 0 1 381.7905 401.7979)" class="st7 st8">in my heart for you</text>
</svg>
