<?xml version="1.0" encoding="utf-8"?>
<!-- Generator: Adobe Illustrator 21.0.2, SVG Export Plug-In . SVG Version: 6.00 Build 0)  -->
<svg version="1.1" id="Layer_1" xmlns="http://www.w3.org/2000/svg" xmlns:xlink="http://www.w3.org/1999/xlink" x="0px" y="0px"
	 viewBox="0 0 841.9 595.3" style="enable-background:new 0 0 841.9 595.3;" xml:space="preserve">
<style type="text/css">
	.st0{fill:#F36F2D;stroke:#F36F2D;stroke-width:4;stroke-miterlimit:10;}
	.st1{fill:none;stroke:#FFDDA1;stroke-width:4;stroke-miterlimit:10;}
	.st2{fill:none;stroke:#EF3E23;stroke-width:4;stroke-miterlimit:10;}
	.st3{fill:#FFDDA1;stroke:#FFDDA1;stroke-miterlimit:10;}
	.st4{fill:none;stroke:#FFDDA1;stroke-miterlimit:10;}
	.st5{fill:#FFFFFF;stroke:#FFFFFF;stroke-miterlimit:10;}
	.st6{stroke:#000000;stroke-miterlimit:10;}
	.st7{fill:#401515;stroke:#EC2C26;stroke-miterlimit:10;}
	.st8{font-family:'AmaticSC-Regular';}
	.st9{font-size:18px;}
</style>
<path class="st0" d="M484.6,376.1c0,27.9-23.5,50.9-52.1,50.9c-28.6,0-52.1-23-52.1-50.9C415,376.1,449.8,376.1,484.6,376.1z"/>
<path class="st1" d="M376.3,374.1c-0.2,30.9,24.9,56.5,55.3,56.9c31,0.4,57.1-25.3,56.9-56.9"/>
<path class="st2" d="M372.3,374.1c-0.1,33,26.6,60.2,58.8,60.8c33.2,0.7,61.4-26.8,61.4-60.7"/>
<path class="st3" d="M427.8,374.6c-0.1,3,2.3,5.4,5.2,5.4s5.3-2.5,5.2-5.4C434.7,374.6,431.3,374.6,427.8,374.6z"/>
<line class="st4" x1="378.7" y1="388.4" x2="430.3" y2="375.4"/>
<line class="st4" x1="397" y1="418.2" x2="432.3" y2="376.6"/>
<line class="st4" x1="432.8" y1="430.7" x2="432.8" y2="376.5"/>
<line class="st4" x1="467.1" y1="418.7" x2="433.8" y2="376.5"/>
<line class="st4" x1="486.9" y1="388.1" x2="434.4" y2="375.9"/>
<path class="st5" d="M418.3,389c0,2.8,2.2,5.4,5.2,5.4c2.9,0,5.3-2.5,5.2-5.4c0.1-3-2.4-5.4-5.2-5.4
	C420.6,383.6,418.3,386.2,418.3,389z"/>
<path class="st5" d="M435.7,388.8c0,2.8,2.2,5.4,5.2,5.4c2.9,0,5.3-2.5,5.2-5.4c0.1-3-2.4-5.4-5.2-5.4
	C437.9,383.4,435.7,386,435.7,388.8z"/>
<path class="st6" d="M426.3,389.1c-0.1,1.5-1.3,2.6-2.7,2.6c-1.4,0-2.7-1.2-2.7-2.6s1.3-2.6,2.7-2.6
	C425.1,386.5,426.3,387.7,426.3,389.1z"/>
<path class="st6" d="M443.6,388.8c0,1.5-1.3,2.6-2.7,2.6c-1.4,0-2.7-1.2-2.7-2.6c0.1-1.5,1.3-2.6,2.7-2.6
	C442.3,386.2,443.6,387.3,443.6,388.8z"/>
<path class="st7" d="M446.3,399.2c-2,5.7-7.5,9.4-13.5,9.4c-5.9-0.1-11.2-3.9-13.2-9.5C428.6,399.2,437.4,399.2,446.3,399.2z"/>
<path class="st5" d="M429.7,406L429.7,406c-1.3,0-2.3-1-2.3-2.3v-1.2c0-0.8,0-1.5,0.1-2.3c0.8,0,1.5,0,2.3,0c0.8,0,1.6,0,2.3,0
	c0,0.8,0,1.5,0,2.3v1.2C432,404.9,431,406,429.7,406z"/>
<path class="st5" d="M436.2,406L436.2,406c-1.3,0-2.3-1-2.3-2.3v-1.2c0-0.8,0-1.5,0.1-2.3c0.8,0,1.5,0,2.3,0c0.8,0,1.6,0,2.3,0
	c0,0.8,0,1.5,0,2.3v1.2C438.6,404.9,437.5,406,436.2,406z"/>
<text transform="matrix(1 0 0 1 388.9609 464.0234)" class="st8 st9">orange you cute!</text>
</svg>
