<?xml version="1.0" encoding="utf-8"?>
<!-- Generator: Adobe Illustrator 21.0.2, SVG Export Plug-In . SVG Version: 6.00 Build 0)  -->
<svg version="1.1" id="Layer_1" xmlns="http://www.w3.org/2000/svg" xmlns:xlink="http://www.w3.org/1999/xlink" x="0px" y="0px"
	 viewBox="0 0 841.9 595.3" style="enable-background:new 0 0 841.9 595.3;" xml:space="preserve">
<style type="text/css">
	.st0{fill:#439B45;stroke:#315027;stroke-width:4;stroke-miterlimit:10;}
	.st1{fill:#7AC144;stroke:#315027;stroke-width:2;stroke-miterlimit:10;}
	.st2{fill:#A7CF38;stroke:#325027;stroke-width:2;stroke-miterlimit:10;}
	.st3{stroke:#000000;stroke-miterlimit:10;}
	.st4{fill:none;stroke:#000000;stroke-miterlimit:10;}
	.st5{font-family:'AmaticSC-Regular';}
	.st6{font-size:18px;}
</style>
<path class="st0" d="M499,370.9c0.1,2.3-2.2,4-4.2,4.4c-1.9,0.3-3.5-0.7-3.9-1c-2.7,6.2-9.3,18.7-23,28.7c-5.9,4.3-18.2,13-35.9,13
	c-18,0-30.5-9-36.1-13c-13.7-9.9-20.3-22.3-23.1-28.5c-0.5,0.3-1.9,1.1-3.8,0.8c-2-0.4-4.3-2-4.2-4.4c0.1-2.2,2.2-3.8,4.1-4.1
	c1.9-0.4,3.5,0.6,3.9,0.9c3.4-6.6,10.4-18,23.3-27.6c7.2-5.3,19-14.1,35.8-14.1c16.8,0,28.7,8.8,35.8,14.1
	c12.9,9.6,19.9,21.1,23.2,27.6c0.4-0.3,2-1.2,4-0.9C496.7,367.1,498.9,368.6,499,370.9z"/>
<path class="st1" d="M486.1,371c-10.9,19.6-31.7,31.8-54.1,31.8c-22.4,0-43.1-12.2-54-31.8c11-19.5,31.6-31.5,54-31.6
	C454.3,339.4,475.1,351.5,486.1,371z"/>
<ellipse class="st2" cx="432.2" cy="371.4" rx="21.3" ry="21.3"/>
<path class="st2" d="M420.1,372.1c-0.3,11.2-9.5,20.7-21.3,21.3c-3.2-2.1-6.9-5-10.6-8.8c-4.7-4.8-8.1-9.7-10.3-13.5
	c2.6-4.2,6.2-9.1,11.2-14c3-2.9,5.9-5.3,8.6-7.3C410.3,349.7,420.4,360.2,420.1,372.1z"/>
<path class="st2" d="M485,370.4c-1.8,3.7-4.8,9-9.8,14.1c-4,4.1-8,6.9-11.2,8.8c-12.4-0.5-22-11.1-21.6-22.9
	c0.4-11.2,9.6-20.6,21.3-21.3c3.8,2.1,8.9,5.5,13.9,10.9C481,363.7,483.4,367.3,485,370.4z"/>
<path class="st3" d="M430,367.5c0,0.9-0.8,1.7-1.7,1.7c-0.9,0-1.7-0.7-1.7-1.7s0.8-1.7,1.7-1.7C429.3,365.9,430,366.6,430,367.5z"/>
<path class="st3" d="M437.5,367.7c0,0.9-0.8,1.7-1.7,1.7c-0.9,0-1.7-0.7-1.7-1.7c0-0.9,0.8-1.7,1.7-1.7
	C436.7,366,437.4,366.8,437.5,367.7z"/>
<path class="st4" d="M393.2,367.5c0.2-1.4,1.3-2.4,2.6-2.4c1.3,0,2.5,1,2.6,2.4"/>
<path class="st4" d="M402.7,367.3c0.2-1.4,1.3-2.4,2.6-2.4c1.3,0,2.5,1,2.6,2.4"/>
<path class="st3" d="M390.9,373.9c-0.3,0.3,1.5,3.3,4.4,4.5c3,1.1,6.4,0.1,6.3-0.4c0,0,0-0.2-0.1-0.2c-0.1-0.1-0.3,0-0.5,0
	c-0.1,0-0.2,0.1-0.3,0.1c-0.2,0.1-2.5,1-5.2-0.1c0,0-2.5-0.9-3.9-3.4c0-0.1-0.1-0.2-0.1-0.2c-0.1-0.1-0.1-0.1-0.1-0.1
	c0,0-0.1-0.2-0.3-0.3C391.1,373.8,390.9,373.8,390.9,373.9z"/>
<path class="st4" d="M471.2,365.9c-0.1,1.4-1.2,2.4-2.6,2.4c-1.3,0-2.5-1-2.6-2.4"/>
<path class="st4" d="M461,365.8c-0.1,1.4-1.2,2.4-2.5,2.5c-1.3,0.1-2.5-1-2.7-2.3"/>
<path class="st3" d="M458,376.3c-0.2,0.4,2.6,2.5,5.8,2.5c3.2-0.1,5.9-2.3,5.7-2.8c0,0-0.1-0.1-0.2-0.2c-0.1,0-0.3,0.1-0.4,0.2
	c-0.1,0.1-0.2,0.1-0.3,0.2c-0.1,0.2-2,1.9-4.8,1.9c0,0-2.7,0.1-4.9-1.7c-0.1-0.1-0.1-0.1-0.1-0.1c-0.1-0.1-0.1-0.1-0.1-0.1
	c0,0-0.2-0.2-0.4-0.1C458.1,376.1,458,376.2,458,376.3z"/>
<path class="st3" d="M433.3,377c0,0.7-0.6,1.2-1.2,1.2c-0.6,0-1.2-0.5-1.2-1.2c0-0.7,0.6-1.2,1.2-1.2
	C432.8,375.8,433.3,376.3,433.3,377z"/>
<text transform="matrix(1 0 0 1 377.9253 307.0835)" class="st5 st6">we’re go together like</text>
<text transform="matrix(1 0 0 1 399.9824 445.502)" class="st5 st6">peas in a pod</text>
</svg>
