<?xml version="1.0" encoding="utf-8"?>
<!-- Generator: Adobe Illustrator 21.0.2, SVG Export Plug-In . SVG Version: 6.00 Build 0)  -->
<svg version="1.1" id="Layer_1" xmlns="http://www.w3.org/2000/svg" xmlns:xlink="http://www.w3.org/1999/xlink" x="0px" y="0px"
	 viewBox="0 0 841.9 595.3" style="enable-background:new 0 0 841.9 595.3;" xml:space="preserve">
<style type="text/css">
	.st0{fill:none;stroke:#EF3E23;stroke-width:0.25;stroke-miterlimit:10;}
	.st1{fill:#439B45;stroke:#2F5027;stroke-width:4;stroke-miterlimit:10;}
	.st2{fill:#F47820;stroke:#EF3E23;stroke-width:4;stroke-miterlimit:10;}
	.st3{fill:none;stroke:#EF3E23;stroke-width:4;stroke-miterlimit:10;}
	.st4{fill:#FFFFFF;stroke:#FFFFFF;stroke-miterlimit:10;}
	.st5{stroke:#000000;stroke-miterlimit:10;}
	.st6{stroke:#000000;stroke-width:4;stroke-miterlimit:10;}
	.st7{fill:#FCEE21;stroke:#6A2E12;stroke-width:4;stroke-miterlimit:10;}
	.st8{fill:none;stroke:#6A2E12;stroke-width:4;stroke-miterlimit:10;}
	.st9{fill:none;stroke:#6A2F14;stroke-width:4;stroke-miterlimit:10;}
	.st10{stroke:#9D8730;stroke-width:2;stroke-miterlimit:10;}
	.st11{fill:#ED2024;stroke:#9B1C1F;stroke-width:4;stroke-miterlimit:10;}
	.st12{fill:#439B46;stroke:#305027;stroke-width:2;stroke-miterlimit:10;}
	.st13{fill:#439B46;stroke:#315027;stroke-width:4;stroke-miterlimit:10;}
	.st14{fill:#1E4721;stroke:#315027;stroke-width:4;stroke-miterlimit:10;}
	.st15{fill:none;stroke:#000000;stroke-miterlimit:10;}
	.st16{fill:#439B46;stroke:#000000;stroke-miterlimit:10;}
	.st17{stroke:#157139;stroke-width:2;stroke-miterlimit:10;}
	.st18{fill:#F27079;stroke:#F27079;stroke-miterlimit:10;}
	.st19{fill:none;stroke:#325027;stroke-width:4;stroke-miterlimit:10;}
	.st20{fill:#EFD18C;stroke:#C4A974;stroke-width:4;stroke-miterlimit:10;}
	.st21{fill:none;stroke:#315027;stroke-width:4;stroke-miterlimit:10;}
	.st22{fill:#6E5B39;stroke:#8E794F;stroke-width:4;stroke-miterlimit:10;}
	.st23{fill:#EFD18C;stroke:#C4A974;stroke-width:2;stroke-miterlimit:10;}
	.st24{fill:#439B45;stroke:#305027;stroke-width:4;stroke-miterlimit:10;}
	.st25{fill:#DBE352;stroke:#7AC144;stroke-width:2;stroke-miterlimit:10;}
	.st26{fill:#763031;stroke:#5B3533;stroke-width:4;stroke-miterlimit:10;}
	.st27{stroke:#315027;stroke-width:2;stroke-miterlimit:10;}
	.st28{display:none;fill:none;stroke:#5B3533;stroke-width:0.75;stroke-miterlimit:10;}
	.st29{fill:#439B45;stroke:#315027;stroke-width:4;stroke-miterlimit:10;}
	.st30{fill:#7AC144;stroke:#315027;stroke-width:2;stroke-miterlimit:10;}
	.st31{fill:#A7CF38;stroke:#325027;stroke-width:0.75;stroke-miterlimit:10;}
	.st32{fill:#A74F9E;stroke:#8D278E;stroke-width:4;stroke-miterlimit:10;}
	.st33{fill:#FEF9CC;stroke:#F8EB8E;stroke-width:4;stroke-miterlimit:10;}
	.st34{stroke:#8D288C;stroke-width:2;stroke-miterlimit:10;}
	.st35{fill:#FFFFFF;}
</style>
<path class="st0" d="M144.1,219C144.1,219,144,219,144.1,219"/>
<path class="st1" d="M121.8,82.5c-0.3,1.1-2.9,11.1,3.9,19.9c6.9,8.9,17.5,8.8,18.5,8.7c0.3-1.1,2.7-11.1-4.1-19.9
	C133.2,82.6,123,82.5,121.8,82.5z"/>
<path class="st1" d="M167.1,82.5c0.3,1.1,2.9,11.1-3.9,19.9c-6.9,8.9-17.5,8.8-18.5,8.7c-0.3-1.1-2.7-11.1,4.1-19.9
	C155.6,82.6,165.9,82.5,167.1,82.5z"/>
<path class="st1" d="M144,75c0.9,0.7,9.1,7,9,18.1c-0.1,11.3-8.5,17.6-9.4,18.2c-0.9-0.7-8.9-7.2-8.8-18.3S143,75.7,144,75z"/>
<path class="st2" d="M171.9,143.7c0.3,14.2-10,34.2-14.3,42.3c-5.6,10.5-10.3,19.2-13.5,25c-2.6-4.9-7.4-13.7-13.4-25
	c-4.7-8.9-14.5-28-14.3-42c0-1.2,0.1-2.2,0.2-3.2c0.1-0.9,0.2-2,0.5-3.4c0.8-4.2,2.5-10.2,7.4-15c7.3-7.2,17.4-7.4,19.6-7.3
	c2.2,0,12.4,0,19.8,7.3c6.5,6.4,7.5,15.1,7.9,18.5C171.8,141.7,171.9,142.6,171.9,143.7z"/>
<path class="st0" d="M144,219L144,219"/>
<line class="st3" x1="116.9" y1="138" x2="169.8" y2="138"/>
<line class="st3" x1="118.2" y1="156" x2="168.6" y2="156.1"/>
<line class="st3" x1="124.2" y1="174.2" x2="163.6" y2="174.2"/>
<line class="st3" x1="132.7" y1="191.9" x2="155.2" y2="191.8"/>
<line class="st3" x1="127.2" y1="120.2" x2="161.3" y2="119.7"/>
<ellipse class="st4" cx="154.2" cy="140.3" rx="6.9" ry="6.8"/>
<ellipse class="st4" cx="135.3" cy="140" rx="6.9" ry="6.8"/>
<path class="st5" d="M130.1,140c0,2.9,2.4,5.4,5.2,5.4c2.2,0,4.2-1.3,5.1-3.5c-2.1-2.4-4.3-4.8-6.4-7.1
	C131.7,135.6,130.2,137.7,130.1,140z"/>
<path class="st5" d="M159.5,140c0,2.9-2.4,5.4-5.2,5.4c-2.2,0-4.2-1.3-5.1-3.5c2.1-2.4,4.3-4.8,6.4-7.1
	C157.9,135.6,159.5,137.7,159.5,140z"/>
<path class="st6" d="M153.7,163.2h-18.5c-1,0-1.8-0.8-1.8-1.8l0,0c0-1,0.8-1.8,1.8-1.8h18.5c1,0,1.8,0.8,1.8,1.8l0,0
	C155.6,162.3,154.7,163.2,153.7,163.2z"/>
<path class="st7" d="M318.7,136.1c-10.2,10.3-20.3,20.6-30.5,31c-10.2-10.3-20.3-20.6-30.5-31c-0.1-6,0.2-29.8,17.2-46.3
	c4.5-4.4,9.2-7.3,13.3-9.3c4.2,2,8.9,5,13.3,9.3C318.5,106.3,318.8,130,318.7,136.1z"/>
<line class="st8" x1="277.6" y1="86.8" x2="307.7" y2="97.1"/>
<line class="st8" x1="299" y1="86.7" x2="268.9" y2="97.1"/>
<line class="st8" x1="269.4" y1="94.7" x2="315.1" y2="113.6"/>
<line class="st8" x1="305.5" y1="95.1" x2="260.4" y2="114.1"/>
<line class="st8" x1="261.8" y1="110.8" x2="318.4" y2="129.2"/>
<line class="st8" x1="314.7" y1="110.4" x2="257.1" y2="129.4"/>
<line class="st8" x1="258.8" y1="126.2" x2="311.4" y2="143.8"/>
<line class="st8" x1="318.1" y1="126.2" x2="265.5" y2="143.9"/>
<line class="st9" x1="266.5" y1="143.6" x2="292.2" y2="164.3"/>
<line class="st9" x1="311.8" y1="143" x2="283.7" y2="164.6"/>
<path class="st1" d="M236.8,124.4c21.1-0.4,35,14.4,36.7,16.3c10.7,11.7,12.4,25.1,12.9,29.9c0,12.8,0,25.6-0.1,38.4
	c-12.5-1.9-18.8-6.7-22.3-10.8c-5.5-6.4-7.4-15.2-11.3-33c-2.7-12.1-2.7-16.4-7-19.9c-4.8-3.9-9.4-2.6-15.5-7.4
	c-4.2-3.4-6.5-7.6-7.7-10.8C225.7,125.8,230.6,124.5,236.8,124.4z"/>
<path class="st1" d="M290.2,170.5c0,12.8,0,25.6,0.1,38.4c12.5-1.9,18.8-6.7,22.3-10.8c5.5-6.4,7.4-15.2,11.3-33
	c2.7-12.1,2.7-16.4,7-19.9c4.8-3.9,9.4-2.6,15.5-7.4c4.2-3.4,6.5-7.6,7.7-10.8c-3.3-1.2-8.2-2.5-14.4-2.6
	c-21.1-0.4-35,14.4-36.7,16.3C292.4,152.3,290.6,165.7,290.2,170.5z"/>
<ellipse class="st4" cx="299" cy="111.3" rx="6.9" ry="6.8"/>
<ellipse class="st4" cx="277.9" cy="111.7" rx="6.9" ry="6.8"/>
<path class="st5" d="M293.9,111.4c0,2.8,2.3,5.4,5.2,5.4c2.9,0,5.3-2.5,5.2-5.4c-0.2,0-2.5,0.4-4.2-1.4c-1.5-1.7-1.1-3.8-1.1-4
	C296.2,106.1,293.9,108.6,293.9,111.4z"/>
<path class="st5" d="M272.6,111.7c0,2.8,2.3,5.4,5.2,5.4c2.9,0,5.3-2.5,5.2-5.4c-0.2,0-2.5,0.4-4.2-1.4c-1.5-1.7-1.1-3.8-1.1-4
	C274.9,106.4,272.6,108.8,272.6,111.7z"/>
<path class="st10" d="M301.6,129.5c-2,5.7-7.5,9.4-13.5,9.4c-5.9-0.1-11.2-3.9-13.2-9.5C283.8,129.4,292.7,129.5,301.6,129.5z"/>
<path class="st11" d="M485.6,117c1.7,4.8,1.2,9.4-1.8,19.7c-4.6,15.4-8.5,29.9-17.1,40.8c-16.7,21.3-47.5,32.8-80.6,29.8
	c6.3-23.6,14.7-37.9,21.6-46.6c3-3.8,7.6-9.1,10.7-17.9c4.3-12.4,0.3-16.8,4-25.1c5.1-11.3,19.8-19.2,34-18.5
	C467.5,99.7,481.6,105.6,485.6,117z"/>
<path class="st12" d="M447,96.8c-2.8,0.2-4.6,0.3-5.5,1.6c-1.4,2,0,6.1,2.1,6.8c3.1,1.1,7.8-5,8.4-4.5c0.5,0.5-3.7,4.3-2.7,7
	c0.8,2.2,5,3.4,7,2c2.2-1.6,1.3-6.3,1.9-6.3c0.8-0.1,0.6,7.5,4.3,9.2c2.5,1.2,6.5-0.6,6.8-2.4c0.4-2.2-4.4-4.8-4.2-5
	c0.2-0.3,4.5,3.7,7.3,2.6c2.2-0.9,3.5-4.9,2.1-7.1c-2.2-3.5-10.2,0-12.3-3.1c-1.2-1.7-0.6-5.1,4.7-12.2c-4.3-0.8-8.6-1.6-12.9-2.4
	c2.3,10.2,1.3,13.2-0.2,14C452.6,97.5,451.3,96.5,447,96.8z"/>
<ellipse class="st4" cx="462.3" cy="130.2" rx="6.9" ry="6.8"/>
<ellipse class="st4" cx="442.3" cy="129.9" rx="6.9" ry="6.8"/>
<path class="st5" d="M457.1,130.4c0,2.8,2.2,5.4,5.2,5.4c2.9,0,5.3-2.5,5.2-5.4c0.1-3-2.4-5.4-5.2-5.4
	C459.4,124.9,457.1,127.6,457.1,130.4z"/>
<path class="st5" d="M437,129.9c0,2.8,2.2,5.4,5.2,5.4c2.9,0,5.3-2.5,5.2-5.4c0.1-3-2.4-5.4-5.2-5.4
	C439.2,124.4,437,127.1,437,129.9z"/>
<path class="st5" d="M459.3,156.8c0.4-0.9-4.1-5.8-9.6-6.1s-10.6,4.1-10.3,5.1c0,0,0.1,0.3,0.4,0.4c0.2,0.1,0.5-0.1,0.8-0.3
	c0.2-0.2,0.3-0.2,0.5-0.5c0.3-0.3,3.7-3.7,8.7-3.4c0,0,4.6,0.3,8.2,4.3c0.1,0.1,0.2,0.3,0.2,0.3c0.1,0.2,0.1,0.2,0.2,0.2
	c0,0,0.3,0.4,0.6,0.3C459.1,157.1,459.3,156.8,459.3,156.8z"/>
<path class="st13" d="M600.2,138.6c-6.9,2.8-3.1,23-9,24.4c-2.1,0.5-4.9-1.4-6-3.5c-0.9-1.8-0.3-3.3,0.1-6
	c0.1-0.5,1.8-11.8-1.6-13.8c-0.7-0.4-2.5-1-6.9,2.1c-1,4.6-1.4,8.5-1.6,11.2c-0.4,6.1,0.1,9.7-2.3,11.3c-1.1,0.8-2.8,0.9-4.1,0.4
	c-2.7-1.1-3-4.7-4.8-11.7c-0.6-2.5-1.7-6.2-3.2-10.6c-5.5,1.2-11,2.5-16.5,3.7c8.4,16.2,10.5,29.7,10.8,39.4
	c0.3,10.4-1.6,15.8,2.4,20.6c7.5,8.9,28.8,7.9,35.4-1.7c3.2-4.7,1.8-9.7,1.5-15.9c-0.5-10.7,2.5-25.6,17.4-44.5
	C605.7,138.3,602.3,137.8,600.2,138.6z"/>
<path class="st14" d="M574.5,147.1c-0.3,0.2-7.5,4.9-13.5,1.3c-3-1.8-4.2-4.7-4.6-5.9c-0.6,2.1-3.6,10.9-12.2,15.2
	c-9.8,4.9-24.9,2.9-30.8-8.4c-5.6-10.6-0.8-25.1,11.4-30.8c-2.1-1.2-8.7-5.4-10.1-12.6c-2.2-11,8.6-23.2,21.1-24.9
	c10.7-1.4,21.8,5.2,26.6,16.4c0.8-3.4,2.8-10.2,8.9-14.8c11.6-8.8,31.7-5.2,38.8,6.7c3.2,5.4,2.9,11.3,2.5,14.3
	c7.1-4.3,15.6-4.5,21.9-0.4c10.1,6.6,8.2,20.2,8,21.9c-1.1,7.7-6.4,18.9-17.3,20.7c-11.1,1.8-19.2-7.6-19.7-8.3
	c-0.8,6-5.6,10.7-11.5,11.6c-6,0.9-12-2.4-14.5-8C578.8,142.5,577.4,145.1,574.5,147.1z"/>
<path class="st15" d="M564.4,171.3c0.8,0,2.4,0.2,4.1,1c1.5,0.7,2.4,1.7,2.9,2.3c-1-0.3-2.2-0.5-3.6-0.7c-1-0.1-2-0.1-2.8-0.1"/>
<path class="st16" d="M571.8,174.8c-0.9,0.1-1.9,0.2-3,0.5c-1.3,0.3-2.5,0.6-3.5,1"/>
<path class="st15" d="M584.8,171.3c-0.8,0-2.4,0.2-4.1,1c-1.5,0.7-2.4,1.7-2.9,2.3c1-0.3,2.2-0.5,3.6-0.7c1-0.1,2-0.1,2.8-0.1"/>
<path class="st16" d="M577.4,174.8c0.9,0.1,1.9,0.2,3,0.5c1.3,0.3,2.5,0.6,3.5,1"/>
<path class="st17" d="M584.9,184.7c-0.5,4.7-3.9,8.5-8.2,9.4s-8.8-1.2-11.1-5.3C572,187.4,578.5,186,584.9,184.7z"/>
<path class="st18" d="M572.4,192.9c0.8-0.5,2.2-1.4,4.2-1.8c1.8-0.4,3.3-0.2,4.2,0c-0.2,1.8-1.6,3.4-3.4,3.8
	C575.4,195.4,573.4,194.6,572.4,192.9z"/>
<path class="st19" d="M577,106.6c-1.6,3.7,0,7.9,3.4,9.6c3,1.5,6.7,0.6,8.9-2.2c0.2,0.4,2.3,4.1,5.6,4.3c3.6,0.2,7.9-3.8,8-9.9"/>
<path class="st19" d="M532,138.1c4.7,3.2,10.2,2.2,12.3-0.9c1.9-2.8,0.5-6.6,0.3-7.1c0.8,0.1,4.2,0.4,6.5-1.9
	c2.8-2.8,2.7-8.5-1.2-13"/>
<g>
	<path class="st20" d="M146.1,311c-7.7,0-15.4,0-23,0c6.3,12.8,7.2,23.1,6.8,30.5c-0.5,7.2-2.5,14.1,2.4,18.6
		c3.6,3.4,9.4,4,13.8,3.9"/>
	<path class="st20" d="M146,311c7.7,0,15.4,0,23,0c-6.3,12.8-7.2,23.1-6.8,30.5c0.5,7.3,2.5,14.1-2.4,18.6c-3.6,3.4-9.5,4-14.1,3.9"
		/>
</g>
<path class="st21" d="M117.4,323"/>
<path class="st22" d="M145.9,255.4c-6.5,0.1-27.5,0.4-41.5,16.7c-12.4,14.4-17.3,38.8-7.6,48.4c7.6,7.5,17.8-0.3,49.1-0.2
	c32.6,0.1,43.1,8.6,50.9,1c9.9-9.8,4.8-35.9-9.3-50.9C172.9,255,152.3,255.3,145.9,255.4z"/>
<ellipse class="st23" cx="160.1" cy="274.5" rx="7.3" ry="7"/>
<ellipse class="st23" cx="109.7" cy="297.9" rx="6.4" ry="6.3"/>
<ellipse class="st23" cx="181.6" cy="299.4" rx="3.8" ry="4"/>
<ellipse class="st23" cx="141.2" cy="302.8" rx="5.9" ry="5.7"/>
<ellipse class="st23" cx="123" cy="272.6" rx="4.4" ry="4.2"/>
<path class="st4" d="M134.6,334.9c0,2.8,2.2,5.4,5.2,5.4c2.9,0,5.3-2.5,5.2-5.4c0.1-3-2.4-5.4-5.2-5.4
	C136.8,329.5,134.6,332.1,134.6,334.9z"/>
<path class="st5" d="M142.7,334.6c-0.1,1.5-1.3,2.6-2.7,2.6s-2.7-1.2-2.7-2.6s1.3-2.6,2.7-2.6S142.6,333.1,142.7,334.6z"/>
<path class="st4" d="M147.2,334.6c0,2.8,2.2,5.4,5.2,5.4c2.9,0,5.3-2.5,5.2-5.4c0.1-3-2.4-5.4-5.2-5.4
	C149.4,329.2,147.2,331.8,147.2,334.6z"/>
<path class="st5" d="M155.2,334.3c-0.1,1.5-1.3,2.6-2.7,2.6s-2.7-1.2-2.7-2.6s1.3-2.6,2.7-2.6C154,331.7,155.2,332.8,155.2,334.3z"
	/>
<path class="st5" d="M136.5,345c-0.4,0.9,4.4,5.6,9.9,5.6s10.4-4.6,10-5.6c0,0-0.1-0.3-0.4-0.4c-0.2-0.1-0.5,0.2-0.7,0.4
	c-0.2,0.2-0.3,0.3-0.4,0.5c-0.2,0.4-3.5,3.8-8.5,3.8c0,0-4.6,0-8.4-3.9c-0.1-0.1-0.2-0.2-0.2-0.2c-0.1-0.2-0.2-0.2-0.2-0.2
	s-0.3-0.3-0.6-0.3C136.7,344.7,136.5,345,136.5,345z"/>
<path class="st24" d="M326.5,363.8c-5.6,6.6-13,9.8-16.7,11.4c-9,3.9-16.8,4.2-19.3,4.2c-9.1,0.2-15.8-2.3-17.6-2.9
	c-2.9-1.1-11.7-4.5-18.3-12.7c-9.7-12-12.4-31.3-5.2-44.3c4.7-8.5,11.8-11.9,13.5-21.5c1.1-6.4,1-13.9,1-13.9c0-3.3-0.4-5-0.3-6.5
	c0.2-4.2,0.4-19.6,11.5-27.8c2.1-1.6,7.3-4.9,15.9-5.1c8,0.4,12.8,3.5,15,5.1c11.1,8.3,11.3,23.7,11.5,27.8c0.1,1.4-0.3,3.3-0.3,6.5
	c0,0,0,6.9,1,13.2c1.6,9.5,9,13.8,13.5,22.3C338.8,332.7,336.3,352.3,326.5,363.8z"/>
<path class="st25" d="M323.7,354.9c-4.7,7.5-11.3,10.8-14.7,12.4c-7.1,3.4-13.3,3.7-17,3.8c-3.9,0.1-10.1,0.4-17.2-2.5
	c-2.8-1.1-11.1-4.6-16.6-13.7c-4.5-7.5-6.6-17.7-3.3-26.1c0.9-2.3,2.7-5.9,5.1-9.4s3.8-4.5,6.1-8.4c2-3.4,3.2-6.3,3.6-7.4
	c0.5-1.3,2.1-5.9,2.6-14.2c0.5-9.1-1.2-9.5-0.3-16c0.3-2.3,1.1-7.8,4.3-12.4c0.9-1.2,6.1-8.6,14.6-8.5c8.4,0,13.5,7.2,14.5,8.5
	c3.3,4.6,4,10.1,4.3,12.4c0.9,6.5-0.7,6.8-0.3,16c0.4,8.3,2.1,12.9,2.5,14.2c0.4,1.1,1.5,3.9,3.6,7.4c2.3,3.8,3.7,4.9,6.1,8.4
	s4.2,7.1,5.1,9.4C330.1,336.9,328.5,347.2,323.7,354.9z"/>
<ellipse class="st26" cx="290.9" cy="339.3" rx="19.1" ry="18.9"/>
<path class="st15" d="M281.5,276.9c0.2-1.8,1.7-3.2,3.3-3.2c1.7,0,3.2,1.4,3.4,3.2"/>
<path class="st27" d="M298,285c-1.2,3.8-4.3,6.3-7.7,6.3c-3.4,0-6.4-2.6-7.6-6.3C287.8,284.9,292.9,284.9,298,285z"/>
<path class="st15" d="M292.3,276.7c0.2-1.8,1.7-3.2,3.3-3.2c1.7,0,3.2,1.4,3.4,3.2"/>
<circle class="st28" cx="369" cy="360" r="4.3"/>
<path class="st29" d="M501,310.9c0.1,2.3-2.2,4-4.2,4.4c-1.9,0.3-3.5-0.7-3.9-1c-2.7,6.2-9.3,18.7-23,28.7c-5.9,4.3-18.2,13-35.9,13
	c-18,0-30.5-9-36.1-13c-13.7-9.9-20.3-22.3-23.1-28.5c-0.5,0.3-1.9,1.1-3.8,0.8c-2-0.4-4.3-2-4.2-4.4c0.1-2.2,2.2-3.8,4.1-4.1
	c1.9-0.4,3.5,0.6,3.9,0.9c3.4-6.6,10.4-18,23.3-27.6c7.2-5.3,19-14.1,35.8-14.1s28.7,8.8,35.8,14.1c12.9,9.6,19.9,21.1,23.2,27.6
	c0.4-0.3,2-1.2,4-0.9C498.7,307.1,500.9,308.6,501,310.9z"/>
<path class="st30" d="M488.1,311c-10.9,19.6-31.7,31.8-54.1,31.8s-43.1-12.2-54-31.8c11-19.5,31.6-31.5,54-31.6
	C456.3,279.4,477.1,291.5,488.1,311z"/>
<ellipse class="st31" cx="434.2" cy="311.4" rx="21.3" ry="21.3"/>
<path class="st31" d="M422.1,312.1c-0.3,11.2-9.5,20.7-21.3,21.3c-3.2-2.1-6.9-5-10.6-8.8c-4.7-4.8-8.1-9.7-10.3-13.5
	c2.6-4.2,6.2-9.1,11.2-14c3-2.9,5.9-5.3,8.6-7.3C412.3,289.7,422.4,300.2,422.1,312.1z"/>
<path class="st31" d="M487,310.4c-1.8,3.7-4.8,9-9.8,14.1c-4,4.1-8,6.9-11.2,8.8c-12.4-0.5-22-11.1-21.6-22.9
	c0.4-11.2,9.6-20.6,21.3-21.3c3.8,2.1,8.9,5.5,13.9,10.9C483,303.7,485.4,307.3,487,310.4z"/>
<path class="st5" d="M432,307.5c0,0.9-0.8,1.7-1.7,1.7c-0.9,0-1.7-0.7-1.7-1.7s0.8-1.7,1.7-1.7C431.3,305.9,432,306.6,432,307.5z"/>
<path class="st5" d="M439.5,307.7c0,0.9-0.8,1.7-1.7,1.7c-0.9,0-1.7-0.7-1.7-1.7c0-0.9,0.8-1.7,1.7-1.7S439.4,306.8,439.5,307.7z"/>
<path class="st15" d="M395.2,307.5c0.2-1.4,1.3-2.4,2.6-2.4c1.3,0,2.5,1,2.6,2.4"/>
<path class="st15" d="M404.7,307.3c0.2-1.4,1.3-2.4,2.6-2.4c1.3,0,2.5,1,2.6,2.4"/>
<path class="st5" d="M392.9,313.9c-0.3,0.3,1.5,3.3,4.4,4.5c3,1.1,6.4,0.1,6.3-0.4c0,0,0-0.2-0.1-0.2c-0.1-0.1-0.3,0-0.5,0
	c-0.1,0-0.2,0.1-0.3,0.1c-0.2,0.1-2.5,1-5.2-0.1c0,0-2.5-0.9-3.9-3.4c0-0.1-0.1-0.2-0.1-0.2c-0.1-0.1-0.1-0.1-0.1-0.1
	s-0.1-0.2-0.3-0.3C393.1,313.8,392.9,313.8,392.9,313.9z"/>
<path class="st15" d="M473.2,305.9c-0.1,1.4-1.2,2.4-2.6,2.4c-1.3,0-2.5-1-2.6-2.4"/>
<path class="st15" d="M463,305.8c-0.1,1.4-1.2,2.4-2.5,2.5s-2.5-1-2.7-2.3"/>
<path class="st5" d="M460,316.3c-0.2,0.4,2.6,2.5,5.8,2.5c3.2-0.1,5.9-2.3,5.7-2.8c0,0-0.1-0.1-0.2-0.2c-0.1,0-0.3,0.1-0.4,0.2
	s-0.2,0.1-0.3,0.2c-0.1,0.2-2,1.9-4.8,1.9c0,0-2.7,0.1-4.9-1.7c-0.1-0.1-0.1-0.1-0.1-0.1c-0.1-0.1-0.1-0.1-0.1-0.1s-0.2-0.2-0.4-0.1
	C460.1,316.1,460,316.2,460,316.3z"/>
<path class="st5" d="M435.3,317c0,0.7-0.6,1.2-1.2,1.2s-1.2-0.5-1.2-1.2s0.6-1.2,1.2-1.2C434.8,315.8,435.3,316.3,435.3,317z"/>
<path class="st1" d="M556.1,251.7c-0.3,1.1-2.9,11.1,3.9,19.9c6.9,8.9,17.5,8.8,18.5,8.7c0.3-1.1,2.7-11.1-4.1-19.9
	C567.5,251.8,557.3,251.7,556.1,251.7z"/>
<path class="st1" d="M601.4,251.7c0.3,1.1,2.9,11.1-3.9,19.9c-6.9,8.9-17.5,8.8-18.5,8.7c-0.3-1.1-2.7-11.1,4.1-19.9
	C590,251.8,600.2,251.7,601.4,251.7z"/>
<path class="st1" d="M578.3,244.2c0.9,0.7,9.1,7,9,18.1c-0.1,11.3-8.5,17.6-9.4,18.2c-0.9-0.7-8.9-7.2-8.8-18.3
	C569.2,251.1,577.3,244.9,578.3,244.2z"/>
<path class="st32" d="M604.5,345.8c-6.8,6.5-13.6,8.6-13.6,8.6c-4.2-3.9-6.5-4.4-8-3.8c-2,0.8-3.1,4.2-4.3,3.9c-0.5-0.2-0.9-1-1-1
	c0,0,0.2,0.3,0.3,0.6c0.2,2,0.2,4-0.3,4.1c-0.6,0.1-1.1-2.8-3.1-4.3c-1.4-1.1-4.1-1.8-9.9,0.5c0,0-6.8-2.1-13.6-8.6
	c-10.9-10.5-9.6-25.2-9.4-27.4c1.3-16.2,14.9-35.5,35.9-35.6c21.2-0.1,35.1,19.5,36.4,35.6C614.8,330.1,609.3,341.2,604.5,345.8z"/>
<path class="st33" d="M543.1,333c10.7-3.5,17.3-2,21.4,0c6.7,3.3,8.1,9,13.4,9c5.3,0,6.8-5.7,13.7-8.9c4.2-2,10.5-3.1,20.2,0
	c-1.6,5.2-4,8.7-5.7,10.8c-1.3,1.6-6.5,8-15.2,10.5c-4.5,1.3-6.8,0.8-9.5,3.1c-2.6,2.3-3.5,5.6-3.8,8.1c-0.3-2.5-1.1-5.8-3.6-8
	c-2.8-2.5-5.3-1.5-10-2.8c-10.2-2.9-16-11.3-17.3-13.3C544.8,338.3,543.7,335.3,543.1,333z"/>
<ellipse class="st4" cx="587.5" cy="305.2" rx="6.9" ry="6.8"/>
<ellipse class="st4" cx="568" cy="305.4" rx="6.9" ry="6.8"/>
<path class="st5" d="M592.9,305.1c0.1,3-2.4,5.4-5.2,5.4c-3,0-5.2-2.6-5.2-5.4s2.3-5.3,5.2-5.4c-0.4,1.6,0,3.3,1.2,4.4
	C590.5,305.7,592.7,305.2,592.9,305.1z"/>
<path class="st5" d="M573.2,305.5c0.1,3-2.4,5.4-5.2,5.4c-3,0-5.2-2.6-5.2-5.4s2.3-5.3,5.2-5.4c-0.4,1.6,0,3.3,1.2,4.4
	C570.8,306.1,573,305.6,573.2,305.5z"/>
<path class="st34" d="M590.8,321.2c-2,5.7-7.5,9.4-13.5,9.4c-5.9-0.1-11.2-3.9-13.2-9.5C573,321.2,581.9,321.2,590.8,321.2z"/>
<path class="st35" d="M567.6,322.1c0.1,0.9,0.3,2.1,1.1,3.2c1.6,2.1,4.5,2.1,8.4,2.2c4.1,0.1,7.4,0.1,9.1-2.2c0.8-1.1,1-2.3,1.1-3.2
	C580.8,322.2,574.2,322.2,567.6,322.1z"/>
</svg>
